<svg xmlns="http://www.w3.org/2000/svg" width="352" height="253" viewBox="0 0 352 253">
    <g fill="none" fill-rule="evenodd">
        <path fill="#FF2615" fill-rule="nonzero" d="M214.5 16.5h25.143v9.429H214.5zM256.143 0h25.143v9.429h-25.143zM257.714 29.071h25.143V38.5h-25.143zM177.571 39.286h25.143v9.429h-25.143zM169.714 77.786h25.143v9.429h-25.143zM207.429 77h25.143v9.429h-25.143z" opacity=".3"/>
        <path stroke="#3F3D56" d="M255.935 3.929l-17.078 15.824L257.714 33M214.5 20.429L189.357 40.07M182.286 77.786l7.921-29.072L220 76.928"/>
        <path fill="#FF2615" fill-rule="nonzero" d="M44.786 25.929h25.143v9.429H44.786zM87.214 9.429h25.143v9.429H87.214zM88.786 38.5h25.143v9.429H88.786zM8.643 49.5h25.143v9.429H8.643zM0 88h25.143v9.429H0zM38.5 87.214h25.143v9.429H38.5z" opacity=".3"/>
        <path stroke="#3F3D56" d="M87.007 14.143L69.929 29.968l18.857 13.246M45.571 29.857L20.43 49.5M12.571 88l7.922-29.071 29.793 28.213M113.929 43.214h28.285"/>
        <path fill="#FF2615" fill-rule="nonzero" d="M128.857 38.5h29.857v9.429h-29.857z"/>
        <path stroke="#3F3D56" d="M158.714 43.214h18.857M128.857 43.214l-17.286-29.071"/>
        <ellipse cx="214.893" cy="222.75" fill="#F2F2F2" fill-rule="nonzero" rx="137.107" ry="30.25"/>
        <path fill="#47465A" fill-rule="nonzero" d="M278.929 121.786l-13.203 66.785h-2.858l-.315-.493-.91-1.43 11.433-62.389 1.735-.734z"/>
        <path fill="#000" fill-rule="nonzero" d="M274.214 122.571l-12.433 65.215-.924-1.445 11.597-63.028z" opacity=".1"/>
        <path fill="#47465A" fill-rule="nonzero" d="M297.786 213.13l-3.336 1.102-.81.268-1.07-2.465-18.356-85.748 1.909-.438 4.01-.92z"/>
        <path fill="#000" fill-rule="nonzero" d="M294.643 214.231l-.818.269-1.08-2.469-18.53-85.878 1.926-.439z" opacity=".1"/>
        <path fill="#47465A" fill-rule="nonzero" d="M135.143 122.571l-3.087 86.392-3.537.768-.25.055-.983-1.783 1.964-84.61 1.89-.262z"/>
        <path fill="#000" fill-rule="nonzero" d="M130.429 122.571l-2.138 87.16-.204.055-.801-1.794 1.602-85.156z" opacity=".1"/>
        <path fill="#47465A" fill-rule="nonzero" d="M153.214 239.742l-3.498.618-.392.069-1.073-2.334-17.037-112.991.491-.153 2.595-.808z"/>
        <path fill="#000" fill-rule="nonzero" d="M149.286 240.36l-.4.069-1.093-2.335-17.364-113.013.5-.152z" opacity=".1"/>
        <path fill="#7A799C" fill-rule="nonzero" d="M228.643 115.339l13.407 16.615c.934 1.158 2.423 1.76 3.93 1.589l55.035-6.252c2.19-.249 3.842-2.049 3.842-4.188v-12.317l-76.214 4.553z"/>
        <path fill="#47465A" fill-rule="nonzero" d="M274.214 117.857h3.143v5.624c0 .8-.523 1.448-1.168 1.448h-.807c-.645 0-1.168-.649-1.168-1.448v-5.624z"/>
        <path fill="#7A799C" fill-rule="nonzero" d="M130.429 126.339l13.406 16.615c.935 1.158 2.424 1.76 3.93 1.589l55.036-6.252c2.19-.249 3.842-2.049 3.842-4.188v-12.317l-76.214 4.553z"/>
        <path fill="#47465A" fill-rule="nonzero" d="M176 128.071h3.143v5.624c0 .8-.523 1.448-1.168 1.448h-.807c-.645 0-1.168-.648-1.168-1.448v-5.624z"/>
        <path fill="#47465A" fill-rule="nonzero" d="M145.965 134.25l163.057-18.88a2.392 2.392 0 0 0 2.084-1.951 2.38 2.38 0 0 0-1.282-2.545l-29.169-14.582a33.935 33.935 0 0 0-18.592-3.405l-144.864 14.684a2.77 2.77 0 0 0-2.32 1.804 2.744 2.744 0 0 0 .623 2.86l16.869 17.205a16.434 16.434 0 0 0 13.594 4.81zM326.857 113.358l-1.749-1s-1.887 1.438-3.425 7.502c-1.538 6.063 2.874.065 2.874.065l1.93-4.14.37-2.427zM308 166.943s-1.784 8.425-2.608 10.773c-.403 1.15-2.352 2.2-4.513 3.004a30.063 30.063 0 0 1-5.918 1.554c-2.333.276-32.254-4.42-46.803-7.597-9.8-2.14-11.068-4.594-10.85-5.966.07-.41.264-.786.557-1.078 0 0 14.41-9.806 19.49-14.503 5.078-4.696 15.097-.966 26.077.967 10.98 1.934 24.568 12.846 24.568 12.846z"/>
        <path fill="#47465A" fill-rule="nonzero" d="M325.527 112.357s6.772 4.414-16.03 13.517c0 0-12.394 6.974-10.78 35.704a7.869 7.869 0 0 0 1.147 3.649c2.352 3.862 7.394 13.638-1.008 14.852v2.207s15.201-7.586 16.86-14.069c1.658-6.482 7.186-42.481 9.95-45.791 2.763-3.31 4.56-8.552-.139-10.069z"/>
        <path fill="#000" fill-rule="nonzero" d="M301.714 180.745a31.185 31.185 0 0 1-5.996 1.53c-2.364.271-32.677-4.35-47.417-7.475-9.93-2.106-11.213-4.52-10.993-5.871 6.527 2.18 27.721 9.104 35.327 9.676 9.039.68 26.307 2.568 27.615 1.284.503-.495 1.02.027 1.464.856z" opacity=".1"/>
        <path fill="#47465A" fill-rule="nonzero" d="M223.143 238.071l13.172-59.916s2.357-6.35 7.765-6.075l4.991 2.485s-8.319-1.933-10.121 4.418c-1.803 6.35-13.311 59.088-13.311 59.088h-2.496zM253.786 210.571l5.428-36.928h2.429l-5.572 36.928zM304.333 246.714l-4.976-57.519s0-4.862 2.488-7.224 10.52-9.1 10.52-9.1 2.059-.487 3.718 4.237c1.658 4.724 13.131 51.962 13.131 51.962l-2.211.972-14.238-54.462-9.814 9.308s-1.935 3.474-.968 6.67c.968 3.195 4.562 55.156 4.562 55.156h-2.212z"/>
        <path fill="#47465A" fill-rule="nonzero" d="M288.357 180.714l12.857 3.143 2.857-2.297-7.428-.846z"/>
        <path fill="#7A799C" fill-rule="nonzero" d="M178.364 79.522L180.39 110l44.323-4.316-1.763-29.794a2.999 2.999 0 0 0-1.028-2.087 2.986 2.986 0 0 0-2.208-.721l-38.618 3.255a2.995 2.995 0 0 0-2.733 3.185z"/>
        <path fill="#7A799C" fill-rule="nonzero" d="M238.857 113.903l-43.71 4.568-1.65.172-12.783-7.899v-1.712l43.435-3.746z"/>
        <path fill="#000" fill-rule="nonzero" d="M195.643 119.242l-1.617.187-12.526-8.555v-1.66z" opacity=".1"/>
        <path fill="#9493B6" fill-rule="nonzero" d="M181.5 79.117l1.515 26.954 38.556-3.593-1.377-26.264z"/>
        <path fill="#000" fill-rule="nonzero" d="M204.286 114.248l4.68 2.823 14.177-1.227-4.818-2.701z" opacity=".1"/>
        <path fill="#9493B6" fill-rule="nonzero" d="M185.429 110.38l5.843 4.334 37.37-3.522-6.658-4.335z"/>
        <path fill="#FF6584" fill-rule="nonzero" d="M253 69.143h28.286v28.286H253z"/>
        <path fill="#000" fill-rule="nonzero" d="M253 69.143h28.286v28.286H253z" opacity=".1"/>
        <path fill="#FBBEBE" fill-rule="nonzero" d="M262.202 82.2s3.914 10.782 0 12.773c-3.915 1.99 14.027 0 14.027 0l5.057-4.147s-11.418-3.318-9.787-10.947c1.631-7.63-9.298 2.322-9.298 2.322z"/>
        <path fill="#000" fill-rule="nonzero" d="M262.202 82.2s3.914 10.782 0 12.773c-3.915 1.99 14.027 0 14.027 0l5.057-4.147s-11.418-3.318-9.787-10.947c1.631-7.63-9.298 2.322-9.298 2.322z" opacity=".1"/>
        <path fill="#FBBEBE" fill-rule="nonzero" d="M229.429 189.073s15.118 20.923 12.598 26.689c-2.52 5.766-1.176 9.39-6.215 11.367-5.04 1.977-6.383 5.602-2.016 5.437 4.368-.165 10.079-1.318 10.919-2.8.84-1.483 2.856-8.568 5.711-9.556 2.856-.989 8.231-4.778 4.368-9.39-3.864-4.614-13.599-21.605-12.847-23.323.752-1.72-12.518 1.576-12.518 1.576z"/>
        <path fill="#9493B6" fill-rule="nonzero" d="M260.768 147.714s-30.576 1.974-38.466 9.375c-7.89 7.402 6.904 35.033 8.548 35.362 1.644.33 14.466-.987 13.973-4.605-.494-3.618-9.206-18.421-9.206-18.421s11.343-4.112 17.59-5.099c6.246-.987 13.15-5.592 13.15-5.592l-5.589-11.02z"/>
        <path fill="#FBBEBE" fill-rule="nonzero" d="M246.714 143.66s.489 18.302 5.046 18.961c4.558.66 0-14.015 0-14.015l-.163-5.606-4.883.66z"/>
        <path fill="#FF2615" fill-rule="nonzero" d="M260.857 95.524s-8.786-2.464-10.476 4.106c-1.69 6.569-2.197 29.233-2.197 29.233l-3.041 18.066s5.576-1.643 6.759-.822l7.096-8.704 1.86-41.88z"/>
        <path fill="#000" fill-rule="nonzero" d="M260.857 95.524s-8.786-2.464-10.476 4.106c-1.69 6.569-2.197 29.233-2.197 29.233l-3.041 18.066s5.576-1.643 6.759-.822l7.096-8.704 1.86-41.88z" opacity=".1"/>
        <path fill="#FBBEBE" fill-rule="nonzero" d="M272.413 192.5s5.743 11.373 9.194 11.207c3.452-.165 6.738-2.317 8.382 4.47 1.643 6.786-.329 4.965 1.643 8.938 1.972 3.973 2.3 10.925-1.479 12.58-3.78 1.656-7.23 1.822-7.395 0-.165-1.82 3.287-1.82-.658-8.276-3.944-6.456-12.325-18.208-15.776-19.367-3.451-1.159 6.089-9.552 6.089-9.552z"/>
        <path fill="#9493B6" fill-rule="nonzero" d="M287.153 140.643s11.795 19.874 4.095 25.67c-7.7 5.798-30.634 16.894-30.634 16.894s12.286 8.447 12.942 11.262c.655 2.816-5.898 10.434-8.191 10.6-2.294.165-9.01-7.619-16.219-9.606-7.208-1.988-11.631-16.23-3.768-21.53 7.864-5.3 15.236-14.078 15.236-14.078l-2.292-12.751 28.83-6.461z"/>
        <path fill="#FBBEBE" fill-rule="nonzero" d="M276.571 75.707c0 7.16-7.135 13.079-14.101 13.079-6.966 0-12.613-5.805-12.613-12.965s5.647-12.964 12.613-12.964c6.966 0 14.101 5.69 14.101 12.85z"/>
        <path fill="#FF2615" fill-rule="nonzero" d="M266.234 93.64s11.303-4.87 11.303-5.519c0-.65 6.553 1.461 8.027 2.76 1.475 1.299 2.294 1.136 3.277 3.733.982 2.598-4.915 26.785-4.915 26.785s3.276 18.669 5.078 20.454c1.802 1.786-14.58 4.383-14.58 4.383s-10.811 1.948-12.613 2.76c-1.802.812-5.079 1.948-4.424 0 .656-1.948 3.44-3.41-1.31-5.844 0 0 1.638-7.954 0-11.526-1.638-3.571-9.174-16.558-3.113-25.973 6.062-9.415 8.847-12.824 8.847-12.824s2.13 1.785 4.423.811z"/>
        <path fill="#FBBEBE" fill-rule="nonzero" d="M269.51 138.286s-12.737 5.402-16.574 5.902c-3.837.5-15.43 3.312-9.062 5.81 6.368 2.499 16.002-1.25 16.002-1.25l13.553-5.465-3.92-4.997z"/>
        <path fill="#000" fill-rule="nonzero" d="M283.915 93.798s4.818-2.265 6.157 5.7c1.338 7.963 6.022 33.155 0 36.893-6.023 3.738-19.909 9.752-19.909 9.752s-8.198-5.364-4.35-7.314c3.848-1.95 13.05-7.476 14.388-9.427 1.338-1.95 2.69-23.72.349-27.295-2.343-3.576 3.365-8.31 3.365-8.31z" opacity=".1"/>
        <path fill="#FF2615" fill-rule="nonzero" d="M282.827 91.145s6.692-.33 8.03 7.739c1.339 8.069 6.023 33.592 0 37.379-6.022 3.787-19.908 9.88-19.908 9.88s-8.198-5.434-4.35-7.41c3.848-1.976 13.05-7.575 14.388-9.55 1.338-1.977-1.004-22.56-3.346-26.182-2.342-3.623 5.186-11.856 5.186-11.856z"/>
        <path fill="#FF6584" fill-rule="nonzero" d="M259.514 54.371c-1.999.272-4.142 1.003-5.148 2.752-.492.855-.65 1.859-1.03 2.77-1.046 2.515-3.586 4.017-5.42 6.03-2.39 2.624-3.577 6.578-2.168 9.836.546 1.261 1.433 2.342 2.105 3.54 1.875 3.345 1.976 7.362 2.029 11.197l.105 7.539c.016 1.15.029 2.325-.318 3.423-.347 1.098-1.12 2.126-2.218 2.473a5.749 5.749 0 0 0 6.695-2.287 5.876 5.876 0 0 1-1.796 5.213c2.985-.703 5.487-2.874 7.064-5.503 1.577-2.63 2.308-5.689 2.635-8.738.174-1.612.235-3.28-.275-4.82-.359-1.084-.984-2.056-1.578-3.032-1.532-2.515-2.91-5.19-3.405-8.093-.493-2.903.002-6.088 1.887-8.35a7.542 7.542 0 0 1 5.958-2.732 6.632 6.632 0 0 1 5.53 3.385c.435.82 1.054 1.931 1.937 1.643.163-.07.323-.148.478-.235.984-.447 2.101.436 2.535 1.426 1.369 3.124-1.153 6.534-1.413 9.934-.243 3.164 1.52 6.147 3.628 8.517a27.98 27.98 0 0 0 13.68 8.406 3.84 3.84 0 0 1-1.984-1.233 26.05 26.05 0 0 0 6.402-.537c-2.29-1.726-4.597-3.467-6.51-5.605-1.912-2.137-3.426-4.724-3.839-7.562-.553-3.81.865-7.935-.757-11.426-1.482-3.191-5.16-4.975-6.503-8.228-1.364-3.304-2.249-6.174-5.861-7.613-3.942-1.57-8.186-2.67-12.445-2.09z"/>
    </g>
</svg>
