<svg xmlns="http://www.w3.org/2000/svg" width="352" height="190" viewBox="0 0 352 190">
    <g fill="none" fill-rule="nonzero">
        <path fill="#FF2615" d="M352 121.907a55.978 55.978 0 0 1-2.108 15.262 55.405 55.405 0 0 1-5.93 13.625c0 15.416-10.405 28.74-25.51 35.078a51.476 51.476 0 0 1-19.917 3.939H66.822c-12.385 0-23.862-3.342-33.274-9.034a57.157 57.157 0 0 1-7.64-5.505C15.446 166.28 8.96 153.856 8.96 140.132A55.54 55.54 0 0 1 0 109.757c0-22.572 13.35-41.982 32.477-50.552a53.698 53.698 0 0 1 7.85-2.806 53.965 53.965 0 0 1 10.73-1.772 53.53 53.53 0 0 1 2.875-.102h.53c1.064 0 2.12.037 3.169.099l.344-.585a81.03 81.03 0 0 1 1.299-2.095c.8-1.26 1.639-2.5 2.517-3.723a85.782 85.782 0 0 1 2.877-3.81l.255-.307a83.72 83.72 0 0 1 1.736-2.093 102.768 102.768 0 0 1 5.846-6.261C94.692 14 129.452 0 168.529 0c30.406 0 58.2 8.477 79.49 22.484a53.593 53.593 0 0 1 26.442-6.951c30.074 0 54.462 24.73 54.462 55.235a56.895 56.895 0 0 1-.308 5.778A55.386 55.386 0 0 1 352 121.907z" opacity=".1"/>
        <path fill="#FF2615" d="M72.241 35.412v6.375h-5.666a95.49 95.49 0 0 1 5.666-6.375zM75.074 33.996h7.791v7.791h-7.791zM86.406 33.996h7.791v7.791h-7.791zM97.03 33.996h7.791v7.791H97.03zM107.654 33.996h7.791v7.791h-7.791zM118.278 33.996h7.791v7.791h-7.791z" opacity=".2"/>
        <path fill="#FF2615" d="M128.901 33.996h7.791v7.791h-7.791z"/>
        <path fill="#FF2615" d="M139.525 33.996h7.791v7.791h-7.791zM150.149 33.996h7.791v7.791h-7.791zM160.773 33.996h7.791v7.791h-7.791z" opacity=".2"/>
        <path fill="#FF2615" d="M172.105 33.996h7.791v7.791h-7.791z"/>
        <path fill="#FF2615" d="M182.728 33.996h7.791v7.791h-7.791zM193.352 33.996h7.791v7.791h-7.791zM203.976 33.996h7.791v7.791h-7.791zM214.6 33.996h7.791v7.791H214.6zM225.223 33.996h7.791v7.791h-7.791zM235.847 33.996h7.791v7.791h-7.791z" opacity=".2"/>
        <path fill="#FF2615" d="M247.179 33.996h7.791v7.791h-7.791zM257.803 33.996h7.791v7.791h-7.791z"/>
        <path fill="#FF2615" d="M268.427 33.996h7.791v7.791h-7.791zM279.05 33.996h7.791v7.791h-7.791z" opacity=".2"/>
        <path fill="#FF2615" d="M289.674 33.996h7.791v7.791h-7.791zM300.298 33.996h7.791v7.791h-7.791zM61.618 48.161v3.541h-2.833a68.435 68.435 0 0 1 2.833-3.541z"/>
        <path fill="#FF2615" d="M64.451 43.911h7.791v7.791h-7.791z" opacity=".2"/>
        <path fill="#FF2615" d="M75.074 43.911h7.791v7.791h-7.791z"/>
        <path fill="#FF2615" d="M86.406 43.911h7.791v7.791h-7.791z" opacity=".2"/>
        <path fill="#FF2615" d="M97.03 43.911h7.791v7.791H97.03z" opacity=".7"/>
        <path fill="#FF2615" d="M107.654 43.911h7.791v7.791h-7.791z" opacity=".2"/>
        <path fill="#FF2615" d="M118.278 43.911h7.791v7.791h-7.791z" opacity=".4"/>
        <path fill="#FF2615" d="M128.901 43.911h7.791v7.791h-7.791z"/>
        <path fill="#FF2615" d="M139.525 43.911h7.791v7.791h-7.791z" opacity=".4"/>
        <path fill="#FF2615" d="M150.149 43.911h7.791v7.791h-7.791z" opacity=".2"/>
        <path fill="#FF2615" d="M160.773 43.911h7.791v7.791h-7.791z" opacity=".4"/>
        <path fill="#FF2615" d="M172.105 43.911h7.791v7.791h-7.791z"/>
        <path fill="#FF2615" d="M182.728 43.911h7.791v7.791h-7.791zM193.352 43.911h7.791v7.791h-7.791z" opacity=".4"/>
        <path fill="#FF2615" d="M203.976 43.911h7.791v7.791h-7.791z" opacity=".2"/>
        <path fill="#FF2615" d="M214.6 43.911h7.791v7.791H214.6zM225.223 43.911h7.791v7.791h-7.791z" opacity=".4"/>
        <path fill="#FF2615" d="M235.847 43.911h7.791v7.791h-7.791zM247.179 43.911h7.791v7.791h-7.791z" opacity=".2"/>
        <path fill="#FF2615" d="M257.803 43.911h7.791v7.791h-7.791z" opacity=".4"/>
        <path fill="#FF2615" d="M268.427 43.911h7.791v7.791h-7.791z" opacity=".2"/>
        <path fill="#FF2615" d="M279.05 43.911h7.791v7.791h-7.791zM289.674 43.911h7.791v7.791h-7.791zM300.298 43.911h7.791v7.791h-7.791z"/>
        <path fill="#FF2615" d="M40.37 55.952v5.666h-7.79V58.85a51.949 51.949 0 0 1 7.79-2.898zM50.994 54.535v7.083h-7.79v-6.032z" opacity=".2"/>
        <path fill="#FF2615" d="M53.827 53.827h7.791v7.791h-7.791z"/>
        <path fill="#FF2615" d="M64.451 53.827h7.791v7.791h-7.791z" opacity=".7"/>
        <path fill="#FF2615" d="M75.074 53.827h7.791v7.791h-7.791z"/>
        <path fill="#FF2615" d="M86.406 53.827h7.791v7.791h-7.791zM97.03 53.827h7.791v7.791H97.03z" opacity=".7"/>
        <path fill="#FF2615" d="M107.654 53.827h7.791v7.791h-7.791z" opacity=".2"/>
        <path fill="#FF2615" d="M118.278 53.827h7.791v7.791h-7.791zM128.901 53.827h7.791v7.791h-7.791z" opacity=".4"/>
        <path fill="#FF2615" d="M139.525 53.827h7.791v7.791h-7.791z"/>
        <path fill="#FF2615" d="M150.149 53.827h7.791v7.791h-7.791z" opacity=".2"/>
        <path fill="#FF2615" d="M160.773 53.827h7.791v7.791h-7.791z" opacity=".4"/>
        <path fill="#FF2615" d="M172.105 53.827h7.791v7.791h-7.791z"/>
        <path fill="#FF2615" d="M182.728 53.827h7.791v7.791h-7.791z" opacity=".2"/>
        <path fill="#FF2615" d="M193.352 53.827h7.791v7.791h-7.791z" opacity=".4"/>
        <path fill="#FF2615" d="M203.976 53.827h7.791v7.791h-7.791z" opacity=".2"/>
        <path fill="#FF2615" d="M214.6 53.827h7.791v7.791H214.6z"/>
        <path fill="#FF2615" d="M225.223 53.827h7.791v7.791h-7.791z" opacity=".2"/>
        <path fill="#FF2615" d="M235.847 53.827h7.791v7.791h-7.791zM247.179 53.827h7.791v7.791h-7.791z" opacity=".7"/>
        <path fill="#FF2615" d="M257.803 53.827h7.791v7.791h-7.791z" opacity=".4"/>
        <path fill="#FF2615" d="M268.427 53.827h7.791v7.791h-7.791z" opacity=".2"/>
        <path fill="#FF2615" d="M279.05 53.827h7.791v7.791h-7.791zM289.674 53.827h7.791v7.791h-7.791zM300.298 53.827h7.791v7.791h-7.791z"/>
        <path fill="#FF2615" d="M32.579 63.742h7.791v7.791h-7.791zM43.203 63.742h7.791v7.791h-7.791zM53.827 63.742h7.791v7.791h-7.791zM64.451 63.742h7.791v7.791h-7.791z" opacity=".2"/>
        <path fill="#FF2615" d="M75.074 63.742h7.791v7.791h-7.791z"/>
        <path fill="#FF2615" d="M86.406 63.742h7.791v7.791h-7.791zM97.03 63.742h7.791v7.791H97.03z" opacity=".7"/>
        <path fill="#FF2615" d="M107.654 63.742h7.791v7.791h-7.791zM118.278 63.742h7.791v7.791h-7.791z" opacity=".2"/>
        <path fill="#FF2615" d="M128.901 63.742h7.791v7.791h-7.791zM139.525 63.742h7.791v7.791h-7.791z" opacity=".4"/>
        <path fill="#FF2615" d="M150.149 63.742h7.791v7.791h-7.791z"/>
        <path fill="#FF2615" d="M160.773 63.742h7.791v7.791h-7.791z" opacity=".2"/>
        <path fill="#FF2615" d="M172.105 63.742h7.791v7.791h-7.791zM182.728 63.742h7.791v7.791h-7.791zM193.352 63.742h7.791v7.791h-7.791zM203.976 63.742h7.791v7.791h-7.791z" opacity=".4"/>
        <path fill="#FF2615" d="M214.6 63.742h7.791v7.791H214.6zM225.223 63.742h7.791v7.791h-7.791zM235.847 63.742h7.791v7.791h-7.791zM247.179 63.742h7.791v7.791h-7.791z" opacity=".2"/>
        <path fill="#FF2615" d="M257.803 63.742h7.791v7.791h-7.791zM268.427 63.742h7.791v7.791h-7.791z" opacity=".7"/>
        <path fill="#FF2615" d="M279.05 63.742h7.791v7.791h-7.791z" opacity=".4"/>
        <path fill="#FF2615" d="M289.674 63.742h7.791v7.791h-7.791z" opacity=".2"/>
        <path fill="#FF2615" d="M300.298 63.742h7.791v7.791h-7.791z"/>
        <path fill="#FF2615" d="M32.579 73.658h7.791v7.791h-7.791zM43.203 73.658h7.791v7.791h-7.791z" opacity=".2"/>
        <path fill="#FF2615" d="M53.827 73.658h7.791v7.791h-7.791z" opacity=".4"/>
        <path fill="#FF2615" d="M64.451 73.658h7.791v7.791h-7.791zM75.074 73.658h7.791v7.791h-7.791z" opacity=".2"/>
        <path fill="#FF2615" d="M86.406 73.658h7.791v7.791h-7.791zM97.03 73.658h7.791v7.791H97.03z" opacity=".7"/>
        <path fill="#FF2615" d="M107.654 73.658h7.791v7.791h-7.791zM118.278 73.658h7.791v7.791h-7.791z" opacity=".2"/>
        <path fill="#FF2615" d="M128.901 73.658h7.791v7.791h-7.791z" opacity=".4"/>
        <path fill="#FF2615" d="M139.525 73.658h7.791v7.791h-7.791z"/>
        <path fill="#FF2615" d="M150.149 73.658h7.791v7.791h-7.791z" opacity=".2"/>
        <path fill="#FF2615" d="M160.773 73.658h7.791v7.791h-7.791zM172.105 73.658h7.791v7.791h-7.791zM182.728 73.658h7.791v7.791h-7.791z"/>
        <path fill="#FF2615" d="M193.352 73.658h7.791v7.791h-7.791z" opacity=".2"/>
        <path fill="#FF2615" d="M203.976 73.658h7.791v7.791h-7.791z"/>
        <path fill="#FF2615" d="M214.6 73.658h7.791v7.791H214.6zM225.223 73.658h7.791v7.791h-7.791zM235.847 73.658h7.791v7.791h-7.791zM247.179 73.658h7.791v7.791h-7.791zM257.803 73.658h7.791v7.791h-7.791z" opacity=".2"/>
        <path fill="#FF2615" d="M268.427 73.658h7.791v7.791h-7.791z" opacity=".7"/>
        <path fill="#FF2615" d="M279.05 73.658h7.791v7.791h-7.791zM289.674 73.658h7.791v7.791h-7.791z" opacity=".2"/>
        <path fill="#FF2615" d="M300.298 73.658h7.791v7.791h-7.791z"/>
        <path fill="#FF2615" d="M32.579 83.573h7.791v7.791h-7.791zM43.203 83.573h7.791v7.791h-7.791zM53.827 83.573h7.791v7.791h-7.791z" opacity=".2"/>
        <path fill="#FF2615" d="M64.451 83.573h7.791v7.791h-7.791z" opacity=".4"/>
        <path fill="#FF2615" d="M75.074 83.573h7.791v7.791h-7.791zM86.406 83.573h7.791v7.791h-7.791z" opacity=".2"/>
        <path fill="#FF2615" d="M97.03 83.573h7.791v7.791H97.03z" opacity=".7"/>
        <path fill="#FF2615" d="M107.654 83.573h7.791v7.791h-7.791zM118.278 83.573h7.791v7.791h-7.791zM128.901 83.573h7.791v7.791h-7.791z" opacity=".2"/>
        <path fill="#FF2615" d="M139.525 83.573h7.791v7.791h-7.791z"/>
        <path fill="#FF2615" d="M150.149 83.573h7.791v7.791h-7.791z" opacity=".2"/>
        <path fill="#FF2615" d="M160.773 83.573h7.791v7.791h-7.791zM172.105 83.573h7.791v7.791h-7.791z"/>
        <path fill="#FF2615" d="M182.728 83.573h7.791v7.791h-7.791zM193.352 83.573h7.791v7.791h-7.791zM203.976 83.573h7.791v7.791h-7.791zM214.6 83.573h7.791v7.791H214.6zM225.223 83.573h7.791v7.791h-7.791zM235.847 83.573h7.791v7.791h-7.791zM247.179 83.573h7.791v7.791h-7.791zM257.803 83.573h7.791v7.791h-7.791zM268.427 83.573h7.791v7.791h-7.791zM279.05 83.573h7.791v7.791h-7.791z" opacity=".2"/>
        <path fill="#FF2615" d="M289.674 83.573h7.791v7.791h-7.791z" opacity=".4"/>
        <path fill="#FF2615" d="M300.298 83.573h7.791v7.791h-7.791z"/>
        <path fill="#FF2615" d="M32.579 93.489h7.791v7.791h-7.791zM43.203 93.489h7.791v7.791h-7.791zM53.827 93.489h7.791v7.791h-7.791zM64.451 93.489h7.791v7.791h-7.791zM75.074 93.489h7.791v7.791h-7.791z" opacity=".7"/>
        <path fill="#FF2615" d="M86.406 93.489h7.791v7.791h-7.791zM97.03 93.489h7.791v7.791H97.03zM107.654 93.489h7.791v7.791h-7.791zM118.278 93.489h7.791v7.791h-7.791zM128.901 93.489h7.791v7.791h-7.791zM139.525 93.489h7.791v7.791h-7.791z" opacity=".2"/>
        <path fill="#FF2615" d="M150.149 93.489h7.791v7.791h-7.791z"/>
        <path fill="#FF2615" d="M160.773 93.489h7.791v7.791h-7.791zM172.105 93.489h7.791v7.791h-7.791zM182.728 93.489h7.791v7.791h-7.791z" opacity=".2"/>
        <path fill="#FF2615" d="M193.352 93.489h7.791v7.791h-7.791z"/>
        <path fill="#FF2615" d="M203.976 93.489h7.791v7.791h-7.791zM214.6 93.489h7.791v7.791H214.6zM225.223 93.489h7.791v7.791h-7.791zM235.847 93.489h7.791v7.791h-7.791zM247.179 93.489h7.791v7.791h-7.791zM257.803 93.489h7.791v7.791h-7.791zM268.427 93.489h7.791v7.791h-7.791zM279.05 93.489h7.791v7.791h-7.791zM289.674 93.489h7.791v7.791h-7.791z" opacity=".2"/>
        <path fill="#FF2615" d="M300.298 93.489h7.791v7.791h-7.791z"/>
        <circle cx="225.932" cy="111.903" r="10.624" fill="#767D9F"/>
        <path fill="#AE6E79" d="M225.499 98.187a208.974 208.974 0 0 1 2.73 14.164c.225 1.413.426 2.904-.086 4.24-.428 1.114-1.3 1.984-1.985 2.96-.684.974-1.202 2.224-.786 3.341.416 1.117 1.63 1.728 2.79 2.043 3.316.895 6.85.244 10.151-.725a16.412 16.412 0 0 0 4.256-1.765c1.4-.889 2.546-2.123 3.6-3.395 4.811-5.841 7.96-12.852 10.926-19.82a12.049 12.049 0 0 1-10.205-4.117c-1.214-1.428-2.105-3.419-1.42-5.165-2.007 1.101-4.39 1.175-6.55 1.928a23.253 23.253 0 0 0-3.852 1.898 237.857 237.857 0 0 0-4.401 2.61c-1.667 1.007-3.23 1.902-5.168 1.803z"/>
        <path fill="#767D9F" d="M247.95 106.192c-1.874 3.646-4.313 7.152-7.794 9.323-3.481 2.171-8.168 2.76-11.656.613-1.718-1.048-3.018-2.643-4.518-3.986-1.5-1.344-3.374-2.494-5.39-2.319-2.22.193-3.96 1.926-5.447 3.585-2.258 2.521-4.438 5.15-6.036 8.133-3.068 5.735-3.795 12.44-3.66 18.94.135 6.502 1.077 12.97 1.098 19.472.031 7.998-1.325 15.932-2.696 23.81 12.607-1.552 25.229 1.84 37.863 3.125 8.086.831 16.233.813 24.361.792 1.43 0 2.95-.037 4.14-.829a5.582 5.582 0 0 0 1.716-2.036c1.122-2.07 1.573-4.431 1.886-6.765.794-5.895.819-11.862.84-17.812.056-14.414.108-28.88-1.723-43.18-.451-3.518-1.028-7.054-2.378-10.345-1.35-3.29-3.552-6.317-6.631-8.08-1.979-1.135-6.564-3.11-8.895-1.966-2.617 1.275-3.825 7.084-5.08 9.525z"/>
        <path fill="#4C4981" d="M248.425 147.225c-.473-8.883-2.4-18.362 1.7-26.246 1.008-1.936-2.606-4.353-1.489-6.227a28.254 28.254 0 0 0 3.071-7.33c.232-.885.418-1.822.199-2.71-.406-1.621-2.003-2.586-3.359-3.572-1.495-1.09-2.265-4.414-2.747-6.212-.482-1.798 3.837.368 5.574-.272 2.412-.885 5.477-.328 7.883.57 1.343.496 2.802.538 4.234.575 2.781.074 5.571.144 8.331-.199 1.24-.156 2.482-.392 3.728-.321 3.178.18 5.94 2.361 7.821 4.94 1.88 2.58 3.077 5.584 4.619 8.377 1.285 2.328 2.818 4.527 3.914 6.95.97 2.144 1.584 4.447 2.192 6.738l1.566 5.878c.274.841.404 1.722.384 2.607-.079.94-.494 1.816-.915 2.652a50.285 50.285 0 0 1-5.7 8.727c-3.294 4.052-7.293 7.706-9.25 12.558-.763 1.89-1.188 3.899-1.575 5.902a217.515 217.515 0 0 0-3.328 24.243 53.059 53.059 0 0 0-16.95-4.659c-1.706-.177-3.907.16-5.531-.306-2.717-.775-3.016-5.385-3.428-7.798-.66-3.844-.791-7.756-.815-11.64-.031-4.416.106-8.824-.129-13.225zM188.562 130.224c1.286 7.389 2.704 14.8 5.498 21.741-.07.068-.14.13-.21.191-.248.213-.504.413-.773.616-.626.443-1.314.819-1.833 1.397a2.466 2.466 0 0 0-.458.755 1.7 1.7 0 0 0 0 1.376c-1.457.65-3.15.45-4.783.388-1.408-.053-2.774 0-3.904.779-1.57 1.09-2.043 3.183-2.297 5.085a55.307 55.307 0 0 0-.241 2.085 58.522 58.522 0 0 0-.217 8.41c.016.394.038.788.064 1.182-4.991-.12-9.54-2.743-13.843-5.292-.983-.582-1.998-1.194-2.636-2.155a4.895 4.895 0 0 1-.705-3.167c0-.157.027-.308.048-.468.137-.914.372-1.81.7-2.673a33.06 33.06 0 0 1 5.861-10.051c1.094-1.287 2.325-2.546 2.835-4.162.223-.705.305-1.453.531-2.155 1.015-3.042 4.674-4.48 5.926-7.432.306-.705.446-1.478.825-2.155a5.413 5.413 0 0 1 1.298-1.462c.223-.188.455-.37.684-.551a90.955 90.955 0 0 0 6.204-5.372c.37-.351.737-.706 1.1-1.066a18.452 18.452 0 0 0 .326 4.156z"/>
        <path fill="#4C4981" d="M219.449 108.68c-.44.467-.916.906-1.382 1.342l-.126.114-.494.46c-.897.78-1.673 1.69-2.303 2.7l-.052.086c-1.556 2.804-.98 6.257-.546 9.442a80.86 80.86 0 0 1 .723 11.977c-.08 5.529-.726 11.02-.738 16.542 0 1.253.027 2.503.082 3.756.088 2.037.241 4.07.424 6.103.198 2.23.436 4.456.659 6.683.177 1.723.345 3.443.485 5.163.07.89.137 1.778.192 2.669.064 1.044.116 2.091.147 3.136.021.663.033 1.323.033 1.987v1.127c0 .719-.019 1.435-.058 2.15-.04.92-.102 1.84-.186 2.764-.094 1.004-.262 2.1-.964 2.807a2.553 2.553 0 0 1-.134.123l-.989-.123a100.834 100.834 0 0 0-20.531-.369c.15-1.038.286-2.073.42-3.114a218 218 0 0 0 .568-5.018 196.084 196.084 0 0 0 .924-15.025c.035-1.376.051-2.753.05-4.13 0-1.34-.012-2.68-.034-4.024 0-.442-.019-.885-.055-1.324a8.453 8.453 0 0 0-.162-1.176 15.385 15.385 0 0 0-.915-2.605c-.067-.16-.131-.307-.195-.476-.037-.082-.07-.168-.104-.251 1.757-1.576 3.008-3.686 4.21-5.762 1.95-3.345 3.945-6.837 4.271-10.7.327-3.864-1.58-8.204-5.247-9.383-.998-.307-2.053-.393-3.082-.574-.97-.172-2.992-.562-4.115-1.263-.61.63-1.22 1.25-1.83 1.858a6.84 6.84 0 0 1 .661-2.675l.434.022a.837.837 0 0 1-.05-.307c0-.329.227-.7.709-1.112 1.437-1.229 3.697-1.502 4.603-3.164.379-.69.443-1.514.748-2.238.875-2.067 3.39-2.83 4.902-4.481 1.514-1.653 1.892-3.993 3.115-5.836a8.745 8.745 0 0 1 3.661-3.071c.122-.058.247-.117.372-.169 2.533-1.09 5.54-1.34 8.164-1.333 1.02 0 3.661.03 4.955.55.21.075.402.193.564.347 1.38 1.51-.766 4.702-1.784 5.795z"/>
        <path fill="#4C4981" d="M189.127 123.323a18.29 18.29 0 0 1 14.207 1.5c2.189 1.232 4.152 2.95 5.356 5.168 1.809 3.326 1.73 7.336 1.602 11.133-.064 1.9-.146 3.869-.973 5.575-.957 1.974-2.763 3.329-4.605 4.438a12.753 12.753 0 0 1-3.745 1.641c-2.042.45-4.164.068-6.222-.308-2.237-.419-4.638-.924-6.191-2.611-.912-.98-1.41-2.252-1.903-3.496-.708-1.797-1.417-3.591-2.128-5.383-1.231-3.114-1.648-5.704-.021-8.738.738-1.383 1.641-2.676 2.37-4.068.365-.709 1.672-4.67 2.253-4.85z"/>
        <path fill="#504F60" d="M318.004 176.648v9.132a51.746 51.746 0 0 1-19.903 3.909h-82.924a2.56 2.56 0 0 1-.135.122l-.997-.122H66.54c-12.377 0-23.845-3.317-33.251-8.967v-13.941l70.941-8.133h.056l41.312 3.475 10.692.917 5.553.467 11.493.968 5.913.498 8.61.727 1.21.1 6.206.523 8.419.687 11.838.995 19.734 1.665 13.882 1.17 22.797 1.92 4.335.364.467.04.406.033 5.726.483 6.284.531.73.061 28.112 2.376z"/>
        <path fill="#9C9CA1" d="M234.43 176.073l-88.635-15.3-3.437 17.576 40.63 4.92 12.51 1.584 34.414-6.855z"/>
        <path fill="#9C9CA1" d="M189.103 184.142l44.222-8.468c.448-.088.911.034 1.262.33.351.297.554.738.552 1.203a1.548 1.548 0 0 1-1.249 1.533l-43.188 8.238-1.6-2.836z"/>
        <path fill="#AE6E79" d="M208.273 157.472c1.39-.128 2.799-.344 4.05-.955 1.542-.759 2.74-2.068 4.168-3.031 3.138-2.136 7.336-2.422 10.934-1.196 3.597 1.226 6.6 3.852 8.702 6.988 1.396 2.09 2.444 4.755 1.458 7.061a9.295 9.295 0 0 1-1.27 1.965l-2.571 3.324a8.883 8.883 0 0 1-1.745 1.858c-.962.692-2.158.976-3.335 1.147-3.129.451-6.313.195-9.467.403-5.415.356-10.705 2.083-16.133 2.025-3.12-.034-6.2-.656-9.248-1.278l-13.492-2.745c-2.349-.476-5.003-1.172-6.11-3.28-.496-.948-.588-2.046-.647-3.114-.16-2.94 0-6.21 2.06-8.33 1.935-1.989 4.996-2.617 7.308-4.087 2.83-1.803 3.764-1.22 6.748.134a37.336 37.336 0 0 0 18.59 3.111z"/>
        <path fill="#000" d="M208.273 157.472c1.39-.128 2.799-.344 4.05-.955 1.542-.759 2.74-2.068 4.168-3.031 3.138-2.136 7.336-2.422 10.934-1.196 3.597 1.226 6.6 3.852 8.702 6.988 1.396 2.09 2.444 4.755 1.458 7.061a9.295 9.295 0 0 1-1.27 1.965l-2.571 3.324a8.883 8.883 0 0 1-1.745 1.858c-.962.692-2.158.976-3.335 1.147-3.129.451-6.313.195-9.467.403-5.415.356-10.705 2.083-16.133 2.025-3.12-.034-6.2-.656-9.248-1.278l-13.492-2.745c-2.349-.476-5.003-1.172-6.11-3.28-.496-.948-.588-2.046-.647-3.114-.16-2.94 0-6.21 2.06-8.33 1.935-1.989 4.996-2.617 7.308-4.087 2.83-1.803 3.764-1.22 6.748.134a37.336 37.336 0 0 0 18.59 3.111z" opacity=".05"/>
        <path fill="#AE6E79" d="M262.58 153.124c-3.787 1.446-7.596 2.899-11.561 3.76-6.65 1.447-13.606 1.219-20.203 2.872-3.484.877-6.948 2.29-10.528 2.004-1.6-.128-3.145-.609-4.703-.974-8.749-2.132-18.694-1.44-25.8 4.04-2.43 1.873-4.418 4.21-6.222 6.7a4.43 4.43 0 0 0-.678 3.755 4.492 4.492 0 0 0 2.5 2.908 26.98 26.98 0 0 0 8.752 2.305c4.05.353 8.117-.213 12.144-.78 5.977-.837 11.956-1.677 17.917-2.618 2.14-.338 4.28-.688 6.433-.956 15.49-1.934 31.261.417 46.791-1.197 1.57-.165 3.168-.378 4.595-1.039 3.615-1.674 5.403-6.09 4.657-9.97-.746-3.88-3.627-7.104-7.093-9.083-2.905-1.666-6.038-2.34-9.273-3.046-3.004-.69-4.835.223-7.728 1.319z"/>
        <path fill="#000" d="M295.526 129.914c1.716 2.222 2.08 5.203 1.895 7.985-.186 2.782-.854 5.534-.953 8.328-.137 3.832.798 7.652.64 11.471-.111 2.672-.752 5.292-1.51 7.857-.895 3.027-2.19 6.28-5.016 7.734-3.752 1.931-11.622.845-15.57 2.357.36-2.213 3.802-5.417 4.162-7.63.247-1.53.498-3.104.232-4.637-.34-1.956-1.502-3.691-2.88-5.136-2.191-2.298-5.052-4.028-8.194-4.59-3.143-.564-10.836-.102-13.35 1.86-.31-2.026 5.449-3.979 7.473-4.417 1.01-.223 2.168-.097 2.976-.731 1.548-1.2.424-3.59.498-5.51.059-1.53.963-2.931 1.146-4.462.31-2.448-1.307-4.943-.672-7.345.235-.888.758-1.668 1.12-2.513 1.103-2.586.62-5.537.031-8.285-.365-1.726-.72-3.673.251-5.145.901-1.374 3.458 3.52 5.096 3.293 5.409-.75 10.303-4.713 14.672-1.469 2.226 1.653 2.517 3.367 3.405 5.727.864 2.246 3.103 3.397 4.548 5.258z" opacity=".1"/>
        <path fill="#4C4981" d="M296.235 129.872c1.715 2.224 2.08 5.208 1.894 7.993-.185 2.784-.854 5.538-.953 8.335-.136 3.836.799 7.659.64 11.482-.11 2.674-.752 5.297-1.51 7.864-.895 3.03-2.189 6.286-5.016 7.741-3.752 1.933-11.622.846-15.57 2.359.36-2.215 3.803-5.422 4.162-7.637.247-1.532.498-3.107.232-4.641-.34-1.958-1.502-3.695-2.88-5.14-2.191-2.301-5.052-4.032-8.194-4.596-3.143-.564-10.836-.101-13.35 1.863-.31-2.028 5.449-3.983 7.474-4.42 1.009-.225 2.167-.099 2.975-.733 1.548-1.2.424-3.593.498-5.514.06-1.532.963-2.935 1.146-4.467.31-2.45-1.307-4.947-.672-7.352.235-.888.759-1.67 1.12-2.515 1.103-2.589.62-5.542.032-8.293-.366-1.727-.722-3.676.25-5.15.901-1.375 2.663-1.896 4.3-2.125a21.351 21.351 0 0 1 15.48 3.951c2.226 1.655 2.518 3.37 3.406 5.732.851 2.249 3.09 3.4 4.536 5.263z"/>
        <path fill="#9C9CA1" d="M92.916 115.187l16.748 61.722a3.863 3.863 0 0 0 3.361 2.83l75.385 7.221a3.868 3.868 0 0 0 3.293-1.315 3.844 3.844 0 0 0 .829-3.44l-18.341-74.452a3.862 3.862 0 0 0-4.042-2.921l-73.805 5.504a3.865 3.865 0 0 0-2.858 1.622 3.843 3.843 0 0 0-.57 3.229z"/>
        <ellipse cx="241.867" cy="118.986" fill="#FFF" rx="8.145" ry="8.499"/>
        <path fill="#FFF" d="M248.575 103.54s1.817 5.277-3.543 7.497l-.686 1.17 3.358 3.238s4.14-7.38 3.69-10c0 0-.64-2.66-2.819-1.906z"/>
        <ellipse cx="242.575" cy="119.694" fill="#FF2615" rx="8.145" ry="7.791"/>
        <path fill="#FF2615" d="M251.827 106.946l-1.29-2.124-1.879-.266c.4-6.994-1.418-9.077-1.418-9.077l-.423-.04-1.841-.179-3.463-3.586v-1.018c4.866.578 7.555 2.883 9.008 5.585 2.568 4.742 1.306 10.705 1.306 10.705z"/>
        <path fill="#000" stroke="#4C4981" d="M246.47 94.403v1.21l-1.72-.167-3.237-3.374s5.007 1.126 4.957 2.33zM251.153 106.946l-1.14-2.11v-8.514c2.255 4.699 1.14 10.624 1.14 10.624z" opacity=".1"/>
        <ellipse cx="224.145" cy="115.748" fill="#FFF" rx="4.435" ry="8.086" transform="rotate(-30 224.145 115.748)"/>
        <path fill="#FF2615" d="M225.214 114.79c2.193 3.959 4.883 6.604 2.802 7.862s-8.144.629-10.337-3.334c-2.192-3.963-.202-9.435 1.88-10.693 2.08-1.258 3.46 2.195 5.655 6.164z"/>
        <path fill="#000" d="M245.054 87.002c0 12.32-8.458 24.193-20.82 24.193-12.361 0-22.383-9.988-22.383-22.31 0-12.321 10.022-22.31 22.384-22.31 12.36.013 20.82 8.104 20.82 20.427z" opacity=".1"/>
        <circle cx="224.161" cy="88.177" r="22.31" fill="#AE6E79"/>
        <path fill="#444053" d="M222.564 78.632c2.677.977 4.261 3.72 6.663 5.248 3.397 2.142 7.819 1.588 11.697.53 2.162-.586 4.422-1.299 6.55-.65.312.138.658.186.997.141.463-.132.691-.64.843-1.093 2.63-7.776 1.448-16.583-2.523-23.777-1.025-1.856-2.254-3.65-3.946-4.938-1.334-1.014-2.903-1.678-4.484-2.244a45.093 45.093 0 0 0-8.917-2.183 5.587 5.587 0 0 0-1.628-.052c-.744.12-1.41.517-2.075.872a21.38 21.38 0 0 1-9.22 2.483c-4.323.162-9.263-.848-12.595 1.901-4.014 3.297-3.014 9.73-5.617 14.205-1.723 2.96-5.046 5.11-5.592 8.48a7.763 7.763 0 0 0 .194 3.083c1.273 5.186 6.337 9.202 11.734 9.297a4.485 4.485 0 0 0 2.396-.487 5.4 5.4 0 0 0 1.263-1.19c3.536-4.152 7.58-12.062 14.26-9.626z"/>
        <path fill="#000" d="M249.311 80.574c-.151.452-.38.96-.843 1.092a1.868 1.868 0 0 1-.997-.141c-2.127-.648-4.4.064-6.545.648-3.88 1.058-8.31 1.624-11.694-.529-2.405-1.529-3.986-4.281-6.665-5.242-6.678-2.446-10.722 5.468-14.266 9.615-.353.462-.78.864-1.263 1.19a4.487 4.487 0 0 1-2.395.486c-5.378-.095-10.444-4.107-11.732-9.287a12.02 12.02 0 0 1-.179-.918c0 .028 0 .052-.015.08a7.749 7.749 0 0 0 .194 3.08c1.272 5.18 6.338 9.192 11.732 9.287a4.487 4.487 0 0 0 2.395-.486c.483-.327.91-.729 1.263-1.19 3.544-4.147 7.588-12.05 14.266-9.615 2.68.976 4.26 3.716 6.665 5.242 3.396 2.14 7.814 1.587 11.694.529 2.161-.584 4.418-1.297 6.545-.648.313.137.658.185.997.14.463-.131.692-.639.843-1.092a27.372 27.372 0 0 0 1.383-9.865 26.928 26.928 0 0 1-1.383 7.624z" opacity=".1"/>
    </g>
</svg>
