<svg xmlns="http://www.w3.org/2000/svg" width="352" height="264" viewBox="0 0 352 264">
    <defs>
        <linearGradient id="a" x1="50.016%" x2="50.016%" y1="99.982%" y2=".001%">
            <stop offset="0%" stop-color="gray" stop-opacity=".25"/>
            <stop offset="54%" stop-color="gray" stop-opacity=".12"/>
            <stop offset="100%" stop-color="gray" stop-opacity=".1"/>
        </linearGradient>
        <linearGradient id="b" x1="50.028%" x2="50.028%" y1="99.976%" y2="-.106%">
            <stop offset="0%" stop-color="gray" stop-opacity=".25"/>
            <stop offset="54%" stop-color="gray" stop-opacity=".12"/>
            <stop offset="100%" stop-color="gray" stop-opacity=".1"/>
        </linearGradient>
        <linearGradient id="c" x1="49.927%" x2="49.927%" y1="99.961%" y2="-.078%">
            <stop offset="0%" stop-color="gray" stop-opacity=".25"/>
            <stop offset="54%" stop-color="gray" stop-opacity=".12"/>
            <stop offset="100%" stop-color="gray" stop-opacity=".1"/>
        </linearGradient>
        <linearGradient id="d" x1="50%" x2="50%" y1="99.99%" y2="0%">
            <stop offset="0%" stop-color="gray" stop-opacity=".25"/>
            <stop offset="54%" stop-color="gray" stop-opacity=".12"/>
            <stop offset="100%" stop-color="gray" stop-opacity=".1"/>
        </linearGradient>
        <linearGradient id="e" x1="49.97%" x2="49.97%" y1="100.035%" y2="0%">
            <stop offset="0%" stop-color="gray" stop-opacity=".25"/>
            <stop offset="54%" stop-color="gray" stop-opacity=".12"/>
            <stop offset="100%" stop-color="gray" stop-opacity=".1"/>
        </linearGradient>
        <linearGradient id="f" x1="50.021%" x2="50.021%" y1="99.979%" y2="-.046%">
            <stop offset="0%" stop-color="gray" stop-opacity=".25"/>
            <stop offset="54%" stop-color="gray" stop-opacity=".12"/>
            <stop offset="100%" stop-color="gray" stop-opacity=".1"/>
        </linearGradient>
        <linearGradient id="g" x1="50.024%" x2="50.024%" y1="78.348%" y2="21.348%">
            <stop offset="0%" stop-color="gray" stop-opacity=".25"/>
            <stop offset="54%" stop-color="gray" stop-opacity=".12"/>
            <stop offset="100%" stop-color="gray" stop-opacity=".1"/>
        </linearGradient>
        <linearGradient id="h" x1="50.001%" x2="50.001%" y1="99.927%" y2=".101%">
            <stop offset="0%" stop-color="gray" stop-opacity=".25"/>
            <stop offset="54%" stop-color="gray" stop-opacity=".12"/>
            <stop offset="100%" stop-color="gray" stop-opacity=".1"/>
        </linearGradient>
        <linearGradient id="i" x1="49.988%" x2="49.988%" y1="99.782%" y2="0%">
            <stop offset="0%" stop-color="gray" stop-opacity=".25"/>
            <stop offset="54%" stop-color="gray" stop-opacity=".12"/>
            <stop offset="100%" stop-color="gray" stop-opacity=".1"/>
        </linearGradient>
        <linearGradient id="j" x1="50.032%" x2="50.032%" y1="100%" y2=".02%">
            <stop offset="0%" stop-color="gray" stop-opacity=".25"/>
            <stop offset="54%" stop-color="gray" stop-opacity=".12"/>
            <stop offset="100%" stop-color="gray" stop-opacity=".1"/>
        </linearGradient>
        <linearGradient id="k" x1="50%" x2="50%" y1="100%" y2="0%">
            <stop offset="0%" stop-color="gray" stop-opacity=".25"/>
            <stop offset="54%" stop-color="gray" stop-opacity=".12"/>
            <stop offset="100%" stop-color="gray" stop-opacity=".1"/>
        </linearGradient>
        <linearGradient id="l" x1="50.004%" x2="50.004%" y1="100%" y2="-.007%">
            <stop offset="0%" stop-color="gray" stop-opacity=".25"/>
            <stop offset="54%" stop-color="gray" stop-opacity=".12"/>
            <stop offset="100%" stop-color="gray" stop-opacity=".1"/>
        </linearGradient>
        <linearGradient id="m" x1="49.994%" x2="49.994%" y1="99.899%" y2="-.124%">
            <stop offset="0%" stop-color="gray" stop-opacity=".25"/>
            <stop offset="54%" stop-color="gray" stop-opacity=".12"/>
            <stop offset="100%" stop-color="gray" stop-opacity=".1"/>
        </linearGradient>
        <linearGradient id="n" x1="49.975%" x2="49.975%" y1="99.987%" y2="-.029%">
            <stop offset="0%" stop-color="gray" stop-opacity=".25"/>
            <stop offset="54%" stop-color="gray" stop-opacity=".12"/>
            <stop offset="100%" stop-color="gray" stop-opacity=".1"/>
        </linearGradient>
        <linearGradient id="o" x1="50.04%" x2="50.04%" y1="99.997%" y2="-.18%">
            <stop offset="0%" stop-color="gray" stop-opacity=".25"/>
            <stop offset="54%" stop-color="gray" stop-opacity=".12"/>
            <stop offset="100%" stop-color="gray" stop-opacity=".1"/>
        </linearGradient>
        <linearGradient id="p" x1="50.04%" x2="50.04%" y1="99.797%" y2="-.19%">
            <stop offset="0%" stop-color="gray" stop-opacity=".25"/>
            <stop offset="54%" stop-color="gray" stop-opacity=".12"/>
            <stop offset="100%" stop-color="gray" stop-opacity=".1"/>
        </linearGradient>
        <linearGradient id="q" x1="49.828%" x2="49.828%" y1="100%" y2="0%">
            <stop offset="0%" stop-color="gray" stop-opacity=".25"/>
            <stop offset="54%" stop-color="gray" stop-opacity=".12"/>
            <stop offset="100%" stop-color="gray" stop-opacity=".1"/>
        </linearGradient>
        <linearGradient id="r" x1="49.939%" x2="49.939%" y1="99.889%" y2="-.222%">
            <stop offset="0%" stop-color="gray" stop-opacity=".25"/>
            <stop offset="54%" stop-color="gray" stop-opacity=".12"/>
            <stop offset="100%" stop-color="gray" stop-opacity=".1"/>
        </linearGradient>
        <linearGradient id="s" x1="50.007%" x2="50.007%" y1="100.021%" y2=".095%">
            <stop offset="0%" stop-color="gray" stop-opacity=".25"/>
            <stop offset="54%" stop-color="gray" stop-opacity=".12"/>
            <stop offset="100%" stop-color="gray" stop-opacity=".1"/>
        </linearGradient>
        <linearGradient id="t" x1="49.986%" x2="49.986%" y1="100.005%" y2="0%">
            <stop offset="0%" stop-color="gray" stop-opacity=".25"/>
            <stop offset="54%" stop-color="gray" stop-opacity=".12"/>
            <stop offset="100%" stop-color="gray" stop-opacity=".1"/>
        </linearGradient>
        <linearGradient id="u" x1="49.783%" x2="49.783%" y1="100.118%" y2="0%">
            <stop offset="0%" stop-color="gray" stop-opacity=".25"/>
            <stop offset="54%" stop-color="gray" stop-opacity=".12"/>
            <stop offset="100%" stop-color="gray" stop-opacity=".1"/>
        </linearGradient>
        <linearGradient id="v" x1="49.791%" x2="49.791%" y1="100.035%" y2="0%">
            <stop offset="0%" stop-color="gray" stop-opacity=".25"/>
            <stop offset="54%" stop-color="gray" stop-opacity=".12"/>
            <stop offset="100%" stop-color="gray" stop-opacity=".1"/>
        </linearGradient>
        <linearGradient id="w" x1="51.108%" x2="51.108%" y1="100.087%" y2="0%">
            <stop offset="0%" stop-color="gray" stop-opacity=".25"/>
            <stop offset="54%" stop-color="gray" stop-opacity=".12"/>
            <stop offset="100%" stop-color="gray" stop-opacity=".1"/>
        </linearGradient>
        <linearGradient id="x" x1="49.981%" x2="49.981%" y1="100.109%" y2=".574%">
            <stop offset="0%" stop-color="gray" stop-opacity=".25"/>
            <stop offset="54%" stop-color="gray" stop-opacity=".12"/>
            <stop offset="100%" stop-color="gray" stop-opacity=".1"/>
        </linearGradient>
        <linearGradient id="y" x1="50%" x2="50%" y1="100.006%" y2="0%">
            <stop offset="0%" stop-color="gray" stop-opacity=".25"/>
            <stop offset="54%" stop-color="gray" stop-opacity=".12"/>
            <stop offset="100%" stop-color="gray" stop-opacity=".1"/>
        </linearGradient>
        <linearGradient id="z" x1="49.993%" x2="49.993%" y1="66.72%" y2="32.72%">
            <stop offset="0%" stop-color="gray" stop-opacity=".25"/>
            <stop offset="54%" stop-color="gray" stop-opacity=".12"/>
            <stop offset="100%" stop-color="gray" stop-opacity=".1"/>
        </linearGradient>
        <linearGradient id="A" x1="49.997%" x2="49.997%" y1="100.025%" y2="0%">
            <stop offset="0%" stop-color="gray" stop-opacity=".25"/>
            <stop offset="54%" stop-color="gray" stop-opacity=".12"/>
            <stop offset="100%" stop-color="gray" stop-opacity=".1"/>
        </linearGradient>
        <linearGradient id="B" x1="49.996%" x2="49.996%" y1="99.974%" y2="-.014%">
            <stop offset="0%" stop-color="gray" stop-opacity=".25"/>
            <stop offset="54%" stop-color="gray" stop-opacity=".12"/>
            <stop offset="100%" stop-color="gray" stop-opacity=".1"/>
        </linearGradient>
        <linearGradient id="C" x1="49.713%" x2="49.713%" y1="100%" y2="0%">
            <stop offset="0%" stop-color="gray" stop-opacity=".25"/>
            <stop offset="54%" stop-color="gray" stop-opacity=".12"/>
            <stop offset="100%" stop-color="gray" stop-opacity=".1"/>
        </linearGradient>
        <linearGradient id="D" x1="49.888%" x2="49.888%" y1="100%" y2="-.036%">
            <stop offset="0%" stop-color="gray" stop-opacity=".25"/>
            <stop offset="54%" stop-color="gray" stop-opacity=".12"/>
            <stop offset="100%" stop-color="gray" stop-opacity=".1"/>
        </linearGradient>
        <linearGradient id="E" x1="50.033%" x2="50.033%" y1="99.858%" y2="-.134%">
            <stop offset="0%" stop-color="gray" stop-opacity=".25"/>
            <stop offset="54%" stop-color="gray" stop-opacity=".12"/>
            <stop offset="100%" stop-color="gray" stop-opacity=".1"/>
        </linearGradient>
        <linearGradient id="F" x1="50.083%" x2="50.083%" y1="100%" y2="0%">
            <stop offset="0%" stop-color="gray" stop-opacity=".25"/>
            <stop offset="54%" stop-color="gray" stop-opacity=".12"/>
            <stop offset="100%" stop-color="gray" stop-opacity=".1"/>
        </linearGradient>
        <linearGradient id="G" x1="50.074%" x2="50.074%" y1="99.959%" y2="0%">
            <stop offset="0%" stop-color="gray" stop-opacity=".25"/>
            <stop offset="54%" stop-color="gray" stop-opacity=".12"/>
            <stop offset="100%" stop-color="gray" stop-opacity=".1"/>
        </linearGradient>
        <linearGradient id="H" x1="50.009%" x2="50.009%" y1="100.128%" y2=".043%">
            <stop offset="0%" stop-color="gray" stop-opacity=".25"/>
            <stop offset="54%" stop-color="gray" stop-opacity=".12"/>
            <stop offset="100%" stop-color="gray" stop-opacity=".1"/>
        </linearGradient>
        <linearGradient id="I" x1="49.992%" x2="49.992%" y1="100.132%" y2=".132%">
            <stop offset="0%" stop-color="gray" stop-opacity=".25"/>
            <stop offset="54%" stop-color="gray" stop-opacity=".12"/>
            <stop offset="100%" stop-color="gray" stop-opacity=".1"/>
        </linearGradient>
    </defs>
    <g fill="none" fill-rule="evenodd">
        <path fill="#FF2615" fill-rule="nonzero" d="M201.543 36.92c-21.457-.743-41.894-7.67-61.41-15.246-19.514-7.576-38.844-15.98-59.788-19.98-13.47-2.586-28.878-2.95-39.73 4.271-10.44 6.947-13.822 18.95-15.635 30.066-1.366 8.372-2.169 17.184 1.571 25.022 2.6 5.442 7.208 10.016 10.398 15.225 11.097 18.139 3.252 40.503-8.77 58.21-5.636 8.306-12.184 16.24-16.537 25.072-4.354 8.832-6.366 18.974-2.557 27.995 3.773 8.948 12.768 15.656 22.513 20.379 19.79 9.594 43.101 12.338 65.849 13.896 50.339 3.44 100.943 1.952 151.415.457 18.68-.55 37.439-1.11 55.813-3.997 10.206-1.604 20.739-4.149 28.149-10.293 9.403-7.799 11.734-21.002 5.43-30.782-10.569-16.402-39.785-20.475-47.182-38.077-4.065-9.69.11-20.481 6.02-29.466 12.68-19.279 33.928-36.19 35.046-58.223.769-15.133-9.446-30.288-25.241-37.45-16.554-7.507-39.514-6.562-51.722 5.86-12.582 12.795-34.69 17.72-53.632 17.06z" opacity=".1"/>
        <path fill="#E8E9ED" fill-rule="nonzero" d="M0 40.857h86.429v84.857H0zM265.571 40.857H352v84.857h-86.429z"/>
        <path fill="#3ACC6C" fill-rule="nonzero" d="M47.874 10.44l-.837-.947a.167.167 0 0 0-.133-.064.161.161 0 0 0-.132.064l-5.784 6.437-2.107-2.328a.173.173 0 0 0-.133-.064.173.173 0 0 0-.132.064l-.844.933a.219.219 0 0 0-.058.15c0 .057.021.111.058.15l2.657 2.936c.142.175.34.282.552.3a.847.847 0 0 0 .553-.29l6.343-7.04a.243.243 0 0 0 0-.3h-.003z" opacity=".5"/>
        <path fill="#FF2615" fill-rule="nonzero" d="M42.429 4.518a8.83 8.83 0 1 1-6.25 2.586 8.782 8.782 0 0 1 6.25-2.586zm0-1.375a10.214 10.214 0 1 0 10.214 10.21 10.207 10.207 0 0 0-10.214-10.21z" opacity=".5"/>
        <path fill="#3ACC6C" fill-rule="nonzero" d="M113.875 38.91l-1.03-1.122a.21.21 0 0 0-.162-.074.203.203 0 0 0-.165.074l-7.126 7.62-2.597-2.753a.216.216 0 0 0-.325 0l-1.041 1.105a.249.249 0 0 0-.072.176c0 .067.026.13.072.176l3.27 3.464c.177.206.422.332.684.353a1.06 1.06 0 0 0 .677-.336l7.812-8.338a.278.278 0 0 0 0-.336l.003-.01z" opacity=".8"/>
        <path fill="#FF2615" fill-rule="nonzero" d="M108.036 32.281c5.35.001 9.956 3.553 10.999 8.483 1.043 4.93-1.766 9.866-6.71 11.79-4.944 1.923-10.646.298-13.618-3.882-2.973-4.18-2.39-9.75 1.394-13.304 2.1-1.984 4.957-3.096 7.935-3.087zm0-1.638c-7.16 0-12.965 5.452-12.965 12.178 0 6.726 5.805 12.179 12.965 12.179S121 49.547 121 42.821c0-3.23-1.365-6.328-3.796-8.612-2.432-2.284-5.73-3.567-9.168-3.566z" opacity=".8"/>
        <path fill="#FF2615" fill-rule="nonzero" d="M309.572 4.518a8.83 8.83 0 1 1-6.25 2.586 8.782 8.782 0 0 1 6.25-2.586zm0-1.375a10.214 10.214 0 1 0 10.214 10.21 10.207 10.207 0 0 0-10.214-10.21z" opacity=".5"/>
        <path fill="#FF2615" fill-rule="nonzero" d="M243.947 32.281c5.353-.006 9.965 3.54 11.014 8.472 1.05 4.93-1.756 9.87-6.7 11.797-4.944 1.928-10.648.305-13.623-3.875-2.976-4.18-2.393-9.751 1.392-13.307 2.1-1.983 4.957-3.094 7.934-3.087h-.017zm.017-1.638c-7.16 0-12.964 5.452-12.964 12.178C231 49.547 236.804 55 243.964 55s12.965-5.453 12.965-12.179c0-3.233-1.367-6.333-3.803-8.618-2.435-2.284-5.737-3.565-9.179-3.56h.017z" opacity=".8"/>
        <path fill="#FF2615" fill-rule="nonzero" d="M175.214 51.721a14.269 14.269 0 1 1-10.1 4.18 14.181 14.181 0 0 1 10.1-4.18zm0-2.221c-9.112 0-16.5 7.387-16.5 16.5s7.388 16.5 16.5 16.5c9.113 0 16.5-7.387 16.5-16.5a16.497 16.497 0 0 0-16.5-16.5z"/>
        <path fill="#F3F5F7" fill-rule="nonzero" d="M60.5 62.857h96.643v95.071H60.5zM194.857 62.857H291.5v95.071h-96.643z"/>
        <path fill="#000" fill-rule="nonzero" d="M9.429 56.571h31.429v3.143H9.429zM282.071 56.571H313.5v3.143h-31.429z" opacity=".1"/>
        <path stroke="#535461" stroke-width="2" d="M232.571 204.286s8.33-14.962 20.875-19.273a25.707 25.707 0 0 0 13.004-9.863 44.217 44.217 0 0 0 3.836-7.007"/>
        <path fill="#FF2615" fill-rule="nonzero" d="M277.803 166.764c-1.467 1.449-8.303 2.95-8.303 2.95s1.68-6.912 3.147-8.364a3.657 3.657 0 0 1 5.237.081 3.82 3.82 0 0 1-.08 5.333zM272.987 179.096c-1.929.427-8.201-2.218-8.201-2.218s4.898-5.1 6.827-5.533c1.905-.37 3.728 1.018 4.104 3.125.376 2.106-.832 4.16-2.72 4.626h-.01zM260.319 191.497c-1.756-.728-5.748-6.513-5.748-6.513s6.204-1.662 7.95-.95c1.136.462 1.976 1.6 2.204 2.985.227 1.385-.192 2.807-1.101 3.731-.91.924-2.169 1.208-3.305.747zM248.102 199.513c-1.914-.363-6.888-5.265-6.888-5.265s6.119-2.856 8.03-2.504c1.246.218 2.293 1.169 2.741 2.492.448 1.322.23 2.813-.574 3.905-.803 1.091-2.066 1.615-3.309 1.372z"/>
        <path fill="#FF2615" fill-rule="nonzero" d="M260.864 172.414c0 1.93 3.925 7.515 3.925 7.515s3.925-5.586 3.925-7.512c0-1.926-1.759-3.488-3.928-3.488-2.17 0-3.929 1.562-3.929 3.488l.007-.003zM245.323 180.342c.652 1.762 6.313 5.872 6.313 5.872s1.878-6.107 1.227-7.87c-.422-1.139-1.53-2.002-2.907-2.263-1.377-.261-2.814.12-3.77.998-.955.879-1.284 2.123-.863 3.263zM232.607 190.192c.29 1.921 5.027 7.022 5.027 7.022s3.062-6.036 2.776-7.957c-.188-1.243-1.104-2.302-2.405-2.779-1.3-.477-2.788-.299-3.902.467-1.113.766-1.684 2.004-1.496 3.247z"/>
        <path fill="#000" fill-rule="nonzero" d="M277.803 166.764c-1.467 1.449-8.303 2.95-8.303 2.95s1.68-6.912 3.147-8.364a3.657 3.657 0 0 1 5.237.081 3.82 3.82 0 0 1-.08 5.333zM272.987 179.096c-1.929.427-8.201-2.218-8.201-2.218s4.898-5.1 6.827-5.533c1.905-.37 3.728 1.018 4.104 3.125.376 2.106-.832 4.16-2.72 4.626h-.01zM260.319 191.497c-1.756-.728-5.748-6.513-5.748-6.513s6.204-1.662 7.95-.95c1.136.462 1.976 1.6 2.204 2.985.227 1.385-.192 2.807-1.101 3.731-.91.924-2.169 1.208-3.305.747zM248.102 199.513c-1.914-.363-6.888-5.265-6.888-5.265s6.119-2.856 8.03-2.504c1.246.218 2.293 1.169 2.741 2.492.448 1.322.23 2.813-.574 3.905-.803 1.091-2.066 1.615-3.309 1.372z" opacity=".25"/>
        <path fill="#000" fill-rule="nonzero" d="M260.864 172.414c0 1.93 3.925 7.515 3.925 7.515s3.925-5.586 3.925-7.512c0-1.926-1.759-3.488-3.928-3.488-2.17 0-3.929 1.562-3.929 3.488l.007-.003zM245.323 180.342c.652 1.762 6.313 5.872 6.313 5.872s1.878-6.107 1.227-7.87c-.422-1.139-1.53-2.002-2.907-2.263-1.377-.261-2.814.12-3.77.998-.955.879-1.284 2.123-.863 3.263zM232.607 190.192c.29 1.921 5.027 7.022 5.027 7.022s3.062-6.036 2.776-7.957c-.188-1.243-1.104-2.302-2.405-2.779-1.3-.477-2.788-.299-3.902.467-1.113.766-1.684 2.004-1.496 3.247z" opacity=".25"/>
        <path stroke="#535461" stroke-width="2" d="M232.571 204.286s1.607-17.16 11.158-26.29c4.03-3.806 6.764-8.866 7.791-14.421.466-2.64.698-5.32.694-8.004"/>
        <path fill="#FF2615" fill-rule="nonzero" d="M259.786 150.038c-.813 1.746-6.821 5.533-6.821 5.533s-1.296-6.334-.483-8.08c.526-1.129 1.708-1.93 3.1-2.1 1.393-.17 2.785.315 3.652 1.273.867.959 1.078 2.245.552 3.374zM260.935 163.358c-1.686 1.237-8.72 1.642-8.72 1.642s2.751-6.768 4.427-8c1.684-1.157 3.946-.71 5.107 1.009 1.16 1.72.8 4.088-.814 5.35zM252.11 181.493c-1.924.181-7.753-3.205-7.753-3.205s5.256-4.444 7.169-4.625c1.25-.144 2.473.485 3.197 1.647.724 1.161.836 2.674.295 3.956-.542 1.282-1.654 2.133-2.909 2.227zM245.668 193.2c-1.921.547-8.382-1.693-8.382-1.693s4.662-5.42 6.58-5.97c1.9-.5 3.813.77 4.304 2.855.49 2.086-.622 4.221-2.502 4.804v.004zM243.908 162.754c.878 1.737 7.002 5.389 7.002 5.389s1.044-6.429.17-8.166c-.877-1.738-3.194-2.522-5.174-1.753-1.98.77-2.875 2.802-1.998 4.54v-.01zM235.11 176.975c1.436 1.618 8.461 3.74 8.461 3.74s-1.19-7.27-2.608-8.888a3.889 3.889 0 0 0-5.495-.357 3.907 3.907 0 0 0-.357 5.505zM226.84 190.916c1.064 1.696 7.302 4.727 7.302 4.727s.055-6.801-1.02-8.498c-1.067-1.694-3.34-2.224-5.077-1.183-1.737 1.041-2.28 3.26-1.213 4.954h.007z"/>
        <path fill="#000" fill-rule="nonzero" d="M72.286 83.286h31.429v3.143H72.286zM131.214 115.5h18.857v3.143h-18.857zM131.214 139.857h29.071V143h-29.071zM72.286 96.643h31.429v3.143H72.286zM216.857 83.286h31.429v3.143h-31.429zM216.857 96.643h31.429v3.143h-31.429z" opacity=".1"/>
        <path fill="#FF2615" fill-rule="nonzero" d="M171.286 71.464l.902-1.14a4.768 4.768 0 0 0 3.247 1.288c1.524 0 2.653-.718 2.653-1.88 0-1.263-1.083-2.094-4.083-2.094v-1.311c2.673 0 3.675-.848 3.675-1.965 0-1.012-.899-1.643-2.232-1.643-1.038.03-2.03.42-2.793 1.102l-.958-1.102a5.967 5.967 0 0 1 3.825-1.433c2.308 0 4.009 1.07 4.009 2.944 0 1.32-1.002 2.184-2.446 2.66v.071c1.547.322 2.844 1.311 2.844 2.854 0 2.036-2.005 3.256-4.37 3.256-2.012-.003-3.391-.74-4.273-1.607z"/>
        <path fill="#FF2615" fill-rule="nonzero" d="M244.804 40.65c0-.622.057-1.415.09-2.036h-.083c-.37.55-.792 1.097-1.169 1.644l-2.694 3.32h7.153v1.335h-8.998v-1.132l5.37-6.794h1.978v10.802h-1.647v-7.14z" opacity=".8"/>
        <path fill="#FF2615" fill-rule="nonzero" d="M305.173 17.363l.674-.896a3.55 3.55 0 0 0 2.438.976c1.198 0 2.14-.696 2.14-1.839 0-1.142-.83-1.759-2.062-1.759a3.213 3.213 0 0 0-1.757.505l-.7-.44.284-4.282h5.21v1.179h-3.982l-.22 2.346a3.744 3.744 0 0 1 1.545-.32c1.708 0 3.1.857 3.1 2.75 0 1.892-1.63 2.999-3.39 2.999a4.642 4.642 0 0 1-3.28-1.219z" opacity=".5"/>
        <path fill="#FF2615" fill-rule="nonzero" d="M114.714 93.5h118.643v118.643H114.714z" opacity=".1"/>
        <path fill="#FFF" fill-rule="nonzero" d="M119.429 88.786h118.643v118.643H119.429z"/>
        <path fill="#FF2615" fill-rule="nonzero" d="M131.214 100.571h93.5v3.143h-93.5z" opacity=".5"/>
        <path fill="#000" fill-rule="nonzero" d="M131.214 127.286h59.714v3.143h-59.714zM131.214 150.857h58.143V154h-58.143zM131.214 162.643h79.357v3.143h-79.357z" opacity=".1"/>
        <path fill="#3ACC6C" fill-rule="nonzero" d="M207.41 127.654l-.32-.346a.077.077 0 0 0-.053-.022.069.069 0 0 0-.05.022l-2.226 2.344-.811-.848a.082.082 0 0 0-.052-.022.074.074 0 0 0-.05.022l-.326.34a.078.078 0 0 0 0 .11l1.023 1.066a.321.321 0 0 0 .214.109.323.323 0 0 0 .211-.107l2.44-2.56a.09.09 0 0 0 0-.108z" opacity=".5"/>
        <path fill="#3ACC6C" fill-rule="nonzero" d="M206.254 124.042a4.423 4.423 0 1 1-3.124 1.295 4.388 4.388 0 0 1 3.124-1.295zm0-.685a5.107 5.107 0 1 0 5.103 5.104 5.104 5.104 0 0 0-5.103-5.097v-.007zM207.41 151.222l-.32-.343a.066.066 0 0 0-.053-.022.061.061 0 0 0-.05.022l-2.226 2.341-.811-.845a.072.072 0 0 0-.052-.024c-.02 0-.037.01-.05.024l-.326.338a.078.078 0 0 0 0 .11l1.023 1.068a.321.321 0 0 0 .214.109.336.336 0 0 0 .211-.106l2.44-2.563a.09.09 0 0 0 0-.109z" opacity=".5"/>
        <path fill="#3ACC6C" fill-rule="nonzero" d="M206.254 148.416a4.423 4.423 0 1 1-3.124 1.295 4.388 4.388 0 0 1 3.124-1.295zm0-.702a5.107 5.107 0 1 0-.007 10.214 5.107 5.107 0 0 0 .007-10.214z" opacity=".5"/>
        <ellipse cx="169.321" cy="258.893" fill="#FF2615" fill-rule="nonzero" opacity=".1" rx="23.964" ry="4.321"/>
        <path fill="#FF2615" fill-rule="nonzero" d="M43.967 230.214s1.413 1.638-.654 4.112c-2.067 2.475-3.777 4.56-3.085 6.103 0 0 3.12-4.593 5.661-4.657 2.543-.064.87-2.794-1.922-5.558z"/>
        <path fill="#000" fill-rule="nonzero" d="M43.502 230.214c.11.159.198.332.26.515 2.227 2.578 3.416 4.982 1.274 5.043-1.996.057-4.39 3.567-4.965 4.455.019.069.041.136.069.202 0 0 2.805-4.593 5.09-4.657 2.286-.064.783-2.794-1.728-5.558z" opacity=".1"/>
        <path fill="#FFD037" fill-rule="nonzero" d="M46.5 232.196c0 .642-.063 1.161-.143 1.161-.08 0-.142-.519-.142-1.16 0-.642.08-.34.159-.34.08 0 .126-.299.126.34z"/>
        <path fill="#FFD037" fill-rule="nonzero" d="M46.776 232.971c-.62.274-1.156.44-1.201.37-.046-.07.41-.333 1.033-.623s.373-.073.41 0c.037.073.373-.02-.242.253z"/>
        <path fill="#FF2615" fill-rule="nonzero" d="M36.962 230.214s-1.418 1.638.654 4.112c2.071 2.475 3.774 4.56 3.086 6.103 0 0-3.124-4.593-5.663-4.657-2.54-.064-.875-2.794 1.923-5.558z"/>
        <path fill="#000" fill-rule="nonzero" d="M36.64 230.214c-.11.159-.197.332-.259.515-2.23 2.578-3.417 4.982-1.274 5.043 1.995.057 4.39 3.567 4.964 4.455-.02.067-.04.134-.068.202 0 0-2.809-4.593-5.091-4.657-2.282-.064-.786-2.794 1.729-5.558z" opacity=".1"/>
        <path fill="#FFD037" fill-rule="nonzero" d="M34.429 232.196c0 .642.063 1.161.142 1.161.08 0 .143-.519.143-1.16 0-.642-.08-.34-.16-.34-.079 0-.125-.299-.125.34z"/>
        <path fill="#FFD037" fill-rule="nonzero" d="M33.368 232.971c.614.274 1.15.44 1.2.37.049-.07-.41-.333-1.032-.623-.623-.29-.373-.073-.41 0-.037.073-.377-.02.242.253z"/>
        <ellipse cx="39.286" cy="249.857" fill="#FF2615" fill-rule="nonzero" opacity=".1" rx="13.357" ry="1.571"/>
        <path fill="#65617D" fill-rule="nonzero" d="M45.569 238.779l-.06.476-.081.667-.035.28-.081.67-.034.28-.085.667-.94 7.615c-.081.68-1.2 1.209-2.546 1.209H36.86c-1.346 0-2.461-.53-2.543-1.209l-.94-7.615-.081-.666-.034-.28-.082-.67-.034-.28-.082-.668-.062-.476c-.047-.384.557-.708 1.318-.708h9.923c.767 0 1.372.324 1.325.708z"/>
        <path fill="#9D9CB5" fill-rule="nonzero" d="M45.571 238.857l-.082.786H33.085l-.085-.786zM45.571 239.643l-.083.786H33.084l-.084-.786z"/>
        <path fill="#9D9CB5" fill-rule="nonzero" d="M45.571 239.643l-.088.786H33.085l-.085-.786z"/>
        <path fill="#000" fill-rule="nonzero" d="M195.494 152.733c-.223-.453-1.997-6.28-1.997-6.28l-3.418-8.616s-2.074-11.339-5.17-8.51c-3.095 2.83 1.665 9.617 1.665 9.617s1.954 4.958 1.854 5.95c-.1.99 1.088 4.626 1.088 4.626l-.386 2.089c-.502-.033-.829-.033-.829-.033s-.306.436-.599.466c-.05.007-.1 0-.146-.02-.333-.149-1.435-.119-1.997-.119a4.496 4.496 0 0 1-1.495-.476c-.193-.383-1.284-.611-2.253-.74-.735-1.818-1.77-3.586-1.914-5.483a2.356 2.356 0 0 1 .293-1.494 1.87 1.87 0 0 1 .22-.27c.27-.272.599-.51.899-.761.15-.126.286-.254.416-.387 2.54-2.445 2.136-6.233-.167-8.854-2.663-3.03-14.671-9.55-18.306-3.965-.506.78-.523 1.682-.666 2.548a10.595 10.595 0 0 1-2.869 5.618c-1.205 1.272-2.786 2.446-3.478 3.887l-.023-.053a3.833 3.833 0 0 0-.36.991c-.35 1.755.842 3.444 1.468 5.153a9.2 9.2 0 0 1 .46 1.79l.04-.376c.153.873.205 1.76.156 2.644-4.36.886-4.364 8.348-4.364 8.348s-.536 2.975-.446 4.036c.09 1.06.09 3.38.09 3.946 0 .565-.539 4.035-.599 4.451-.076.46-.895 2.66 1.082 3.157.136.036.283.066.433.092.083 1.781.24 5.52.103 6.346 0 0 .719 5.016 1.314 6.279.383.746.828 1.46 1.332 2.132a2.303 2.303 0 0 1-.303.862c-.303.44-.147.8.363.955-.016.152-.036.324-.06.516-.217 1.937-.543 5.78 0 7.73.762 2.67.805 3.56.805 3.56 0 .434.107.862.313 1.245.333.447.899 4.584.899 5.252 0 .668 1.524 6.676 1.075 8.1-.45 1.425-.09 3.428-.09 3.428s-.27 3.516-.582 4.273c-.313.757-.45 12.952.043 16.111.492 3.16.809 5.787.809 5.787s-.333 2.892-.047 3.305c.286.413.762 2.806.403 2.938-.36.132-.536 1.114-.536 1.114.19.287.394.564.612.83a3.395 3.395 0 0 1-.406-.172c.143.201.356.479.616.783l-.243 3.2a.536.536 0 0 0 .4.561 4.494 4.494 0 0 0 4.453-1.253c2.24-2.27 2.995-1.956 3.408-3.338.04-.148.08-.29.11-.43a1.439 1.439 0 0 0-.515-1.455 1.463 1.463 0 0 0-1.545-.164c.143-.991.256-2.078.146-2.703-.223-1.289-.18-4.673-.18-4.673l-.313-16.194s.583-3.203 1.255-4.449c.673-1.246.583-5.618.583-5.618l.762-14.334.759-6.94s.715-2.403 1.61.268c0 0-.492 5.383-.266 6.676.227 1.292.536 7.565.313 8.946-.223 1.382-1.211 8.947-.582 10.86.629 1.914 1.298 4.227 1.165 4.984-.133.757-.583 17.186-.583 17.186s1.209 3.16.313 4.184c-.895 1.024-.043 5.119-.043 5.119s.106.076.293.185l-.027.33-.28 3.682a.539.539 0 0 0 .4.562 4.5 4.5 0 0 0 4.453-1.253c2.24-2.27 2.996-1.96 3.409-3.338.04-.148.08-.294.113-.432a1.443 1.443 0 0 0-.657-1.554 1.466 1.466 0 0 0-1.743.159 2.27 2.27 0 0 1-.176.135l-.087.057c.223-1.018.55-2.753.396-3.573-.223-1.203.223-4.852.223-4.852s1.302-4.362 1.332-6.097c.03-1.735.359-13.881.359-13.881s-.043-5.651.136-7.03c.18-1.378 1.611-13.308 3.046-16.855 1.102-2.73 1.594-9.686 1.301-13.22-.016-.178-.033-.33-.05-.502 1.755-1.308 1.94-3.463 1.94-3.463s-1.613-3.087-3.168-4.393c-1.554-1.305-1.914-3.559-1.854-4.51a2.333 2.333 0 0 0-.536-1.6s-.718-2.314-1.198-2.552a.333.333 0 0 1-.103-.08c-.333-.35-.076-1.344-.076-1.344v-.03c.053-.231.402-1.725.29-2.108-.114-.384.059-2.373.059-2.373s1.138-3.381.959-6.052c-.18-2.67 2.33-2.435 2.33-2.435l7.751-.08h.882a6.47 6.47 0 0 0 .999-1.06 2.148 2.148 0 0 0 1.714-.417c1.644-1.494 1.441-4.346 1.218-4.805zm-36.05 23.134l.057-1.355.303.258c.092.355.092.728 0 1.084a1.16 1.16 0 0 1-.666.753.743.743 0 0 0-.11.066l-.076-.773c.316-.02.492-.036.492-.036v.003z" opacity=".1"/>
        <path fill="url(#a)" fill-rule="nonzero" d="M188.284 156.137s4.346 2.87 5.991 1.346c1.645-1.524 1.442-4.464 1.22-4.929-.224-.464-1.994-6.435-1.994-6.435l-3.418-8.84s-2.078-11.636-5.179-8.746c-3.1 2.89 1.672 9.866 1.672 9.866s1.966 5.09 1.855 6.109c-.111 1.02 1.088 4.753 1.088 4.753l-1.235 6.876z"/>
        <path fill="url(#b)" fill-rule="nonzero" d="M180.68 257.355c-.033.159-.07.322-.117.489-.414 1.56-1.199 1.209-3.501 3.774-1.172 1.367-2.932 1.911-4.578 1.416-.258-.074-.431-.34-.411-.634l.29-4.163.138-2.006s3.665 1.135 5.534-.3c.06-.048.12-.097.178-.152l.054-.048a1.389 1.389 0 0 1 1.73-.132c.544.366.818 1.07.684 1.756z"/>
        <path fill="url(#c)" fill-rule="nonzero" d="M169.68 255.784c-.031.16-.071.323-.115.49-.414 1.56-1.199 1.208-3.502 3.772-1.172 1.365-2.931 1.91-4.579 1.42-.26-.074-.434-.343-.41-.638l.286-4.161.141-2.005s3.667 1.134 5.532-.3c.064-.049.121-.097.182-.153l.054-.048a1.387 1.387 0 0 1 1.73-.133c.544.366.817 1.071.68 1.756z"/>
        <path fill="url(#d)" fill-rule="nonzero" d="M5.812.126l.167 2.036C3.664 4.327.913 1.114.099.045c2.12 1.027 5.713.08 5.713.08z" opacity=".1" transform="translate(160.286 257.714)"/>
        <path fill="url(#e)" fill-rule="nonzero" d="M5.751 1.303l.29-.189c-1.997 3.01-4.958 1.62-5.88 1.083L.304.307s3.803 1.069 5.74-.283c-.153.737-.293 1.279-.293 1.279z" opacity=".1" transform="translate(172.071 255.357)"/>
        <path fill="url(#f)" fill-rule="nonzero" d="M182.45 204.032c-1.46 3.58-2.92 15.578-3.103 16.966-.184 1.389-.137 7.073-.137 7.073l-.38 13.966c-.043 1.747-1.367 6.132-1.367 6.132s-.456 3.673-.23 4.88c.227 1.207-.593 4.388-.593 4.388l.277-.178c-2.284 3.4-5.887.848-5.887.848s-.867-4.118.043-5.147-.316-4.207-.316-4.207.453-16.518.593-17.28c.14-.761-.52-3.09-1.187-5.015-.666-1.925.364-9.535.594-10.923.23-1.388-.094-7.698-.334-8.997-.24-1.3.274-6.717.274-6.717-.914-2.683-1.644-.267-1.644-.267l-.73 7.03-.75 14.43s.094 4.386-.593 5.639c-.687 1.253-1.277 4.477-1.277 4.477l.334 16.294s-.047 3.403.183 4.702c.23 1.299-.503 4.655-.503 4.655-2.554 5.909-6.667-.49-6.667-.49s.18-.99.547-1.122c.366-.132-.137-2.552-.41-2.967-.274-.416.043-3.297.043-3.297s-.317-2.638-.82-5.823c-.503-3.185-.363-15.443-.047-16.205.317-.762.594-4.286.594-4.286s-.364-2.015.093-3.449c.457-1.434-1.097-7.474-1.097-8.147 0-.672-.593-4.833-.913-5.275a2.615 2.615 0 0 1-.333-1.253s-.047-.897-.824-3.58c-.566-1.979-.233-5.83 0-7.775.08-.722.147-1.18.147-1.18s26.19-4.165 27.24-3.222c.247.218.41.99.503 2.064.297 3.515-.206 10.515-1.323 13.258z"/>
        <path fill="url(#g)" fill-rule="nonzero" d="M.036.566c.09 0 2.176.573 2.957.07C3.773.134.036.566.036.566z" opacity=".1" transform="translate(175.214 223.143)"/>
        <path fill="url(#h)" fill-rule="nonzero" d="M.222.414s3.367 1.09 3.535.524C3.926.372.222.414.222.414z" opacity=".1" transform="translate(175.214 224.714)"/>
        <path fill="url(#i)" fill-rule="nonzero" d="M.057.325s1.772.141 2.737.948C3.76 2.08.057.325.057.325z" opacity=".1" transform="translate(161.071 224.714)"/>
        <path fill="url(#j)" fill-rule="nonzero" d="M155.571 174.49s.252 6.192.116 7.285c0 0 .552 5.007 1.008 6.28a19.254 19.254 0 0 0 1.45 2.874l1.355-12.292-.315-4.208-3.614.062z"/>
        <circle cx="173.25" cy="138.679" r="6.679" fill="url(#k)" fill-rule="nonzero"/>
        <path fill="url(#l)" fill-rule="nonzero" d="M170.25 142.439s-2.128 4.046-4.256 5.943c-2.128 1.896 12.767 4.047 13.12 4.047.353 0-2.66-8.61-2.128-9.645.531-1.033-6.737-.345-6.737-.345z"/>
        <path fill="url(#m)" fill-rule="nonzero" d="M28.228 2.891a4.46 4.46 0 0 1-1.138.739c-2.825 1.28-5.9 3.06-7.99 2.357-2.092-.703-6.513 0-6.513 0S3.674 5.131 1.892 5.63a2.982 2.982 0 0 1-1.838.055c.08-.86.148-1.407.148-1.407S26.659-.684 27.72.44c.25.251.414 1.159.508 2.451z" opacity=".1" transform="translate(155.571 187)"/>
        <path fill="url(#n)" fill-rule="nonzero" d="M186.214 186.17s-.236 3.043-2.958 4.163c-2.721 1.12-5.676 2.634-7.688 2.029-2.012-.605-6.266 0-6.266 0s-8.576-.737-10.29-.308c-1.714.43-2.592-.122-2.07-.92.521-.798.476-3.425.476-4.528 0-1.102-.593-5.573-.061-6.368.53-.795 1.004-3.855 2.07-4.345.323-.14.568-.427.664-.778a2.28 2.28 0 0 0 0-1.12s-.178-.152-.428-.382c-.625-.578-1.688-1.653-1.347-2.005.473-.49 0-3.676 0-3.676s-1.125-2.449-.71-3.365c.415-.917-3.606-5.75-3.606-5.75s0-8.325 4.86-8.694c0 0 3.428.125 3.842-1.467.415-1.593 3.133-2.513 3.133-2.513l6.208 1.41s5.508 1.224 6.506.49c.998-.733 1.775.978 1.775.978s3.428.186 3.784.92c.357.733-1.124 7.896-1.124 7.896s-2.485-.243-2.307 2.513c.178 2.756-.946 6.243-.946 6.243s-.178 2.029-.058 2.448c.12.42-.233 1.934-.288 2.175v.03s-.247 1.015.074 1.39c.031.032.066.059.104.081.473.244 1.182 2.631 1.182 2.631.37.462.56 1.052.535 1.654-.058.98.295 3.304 1.83 4.653 1.536 1.35 3.104 4.515 3.104 4.515z"/>
        <path fill="url(#o)" fill-rule="nonzero" d="M160.286 172.856v.255l-.123 2.803s-4.06.297-6.274-.212c-2.214-.51-1.277-2.723-1.19-3.186.065-.42.658-3.924.658-4.493 0-.57 0-2.905-.097-3.97-.098-1.066.495-4.073.495-4.073l.427-.48 4.657 1.618 1.447 11.738z"/>
        <path fill="url(#p)" fill-rule="nonzero" d="M7.567.623l-.116 2.42S3.618 3.3 1.527 2.86C-.563 2.42.321.509.403.109l7.164.514z" opacity=".1" transform="translate(152.429 172.071)"/>
        <path fill="url(#q)" fill-rule="nonzero" d="M.659 3.035a1.36 1.36 0 0 0 0-.866S.478 2.05.224 1.873C3.41 1.524 16.02.157 20.27.01v.024s-.25.786.076 1.076L.66 3.035z" opacity=".1" transform="translate(159.5 171.286)"/>
        <path fill="url(#r)" fill-rule="nonzero" d="M2.024.067s.699 4.954-1.91 6.7c0 0 1.48-2.468 1.91-6.7z" opacity=".1" transform="translate(178.357 176.786)"/>
        <path fill="url(#s)" fill-rule="nonzero" d="M.321.99S7.777-.432 9.243.668C10.71 1.768.321.99.321.99z" opacity=".1" transform="translate(161.071 182.286)"/>
        <path fill="url(#t)" fill-rule="nonzero" d="M.97.022S-.318 4.973.648 6.112C1.615 7.25.97.022.97.022z" opacity=".1" transform="translate(177.571 155.571)"/>
        <path fill="url(#u)" fill-rule="nonzero" d="M.314.026s1.572 1.31.624 2.656C-.01 4.028.314.026.314.026z" opacity=".1" transform="translate(157.143 152.429)"/>
        <path fill="url(#v)" fill-rule="nonzero" d="M154.786 167.357s1.07.811.712 2.072c-.357 1.261-.712-2.072-.712-2.072z"/>
        <path fill="url(#w)" fill-rule="nonzero" d="M0 .107s1.119.5 1.257 1.234C1.395 2.074 0 .107 0 .107z" opacity=".1" transform="translate(155.571 163.429)"/>
        <path fill="url(#x)" fill-rule="nonzero" d="M.263 1.153s7.529.714 9.034-.942c0 .006-6.792 1.257-9.034.942z" opacity=".1" transform="translate(172.071 198.786)"/>
        <path fill="url(#y)" fill-rule="nonzero" d="M.063.161s8.454 2.204 10.123.46c0 0-7.263.605-10.123-.46z" opacity=".1" transform="translate(159.5 199.571)"/>
        <path fill="url(#z)" fill-rule="nonzero" d="M.125.794s2.456 0 3.607.212C4.884 1.218.125.794.125.794z" opacity=".1" transform="translate(172.857 201.929)"/>
        <path fill="url(#A)" fill-rule="nonzero" d="M.198.082S1.39 1.817 2.734 1.505C4.078 1.195.198.082.198.082z" opacity=".1" transform="translate(160.286 203.5)"/>
        <path fill="url(#B)" fill-rule="nonzero" d="M163.125 127.917c-.52.784-.538 1.69-.672 2.56a10.57 10.57 0 0 1-2.945 5.661c-1.472 1.522-3.492 2.899-3.872 4.756-.36 1.766.864 3.462 1.506 5.178 1.68 4.529-.672 9.275-1.361 13.949-.188 1.291.04 2.941 1.68 3.37.511.134 1.096.118 1.553.329.619.286.807.882.921 1.42.41 1.918.551 3.883.42 5.839-.073 1.1-.154 2.362.911 3.116.544.328 1.142.56 1.768.685 1.68.441 3.856.794 4.988-.237.478-.432.673-1.044 1.247-1.387.888-.51 2.148-.165 3.267-.112 2.154.09 4.189-.971 5.315-2.773.904-1.584.826-3.39.49-5.095-.336-1.707-.914-3.393-.958-5.119a2.916 2.916 0 0 1 .397-1.736c.672-1.027 2.275-1.495 3.361-2.305 2.037-1.515 2.017-3.999 1.29-6.077-.725-2.078-2.07-4.064-2.234-6.212a2.319 2.319 0 0 1 .302-1.502 5.93 5.93 0 0 1 1.237-1.126c2.975-2.441 2.625-6.453.165-9.196-2.73-3.054-15.062-9.608-18.776-3.986z"/>
        <g fill-rule="nonzero" opacity=".1">
            <path fill="url(#C)" d="M2.27 13.176A11.12 11.12 0 0 0 1.807 7.8c-.333-.866-.789-1.73-1.125-2.596-.169.31-.292.643-.366.988-.36 1.763.855 3.46 1.491 5.18.214.585.37 1.19.463 1.805z" transform="translate(155.571 134.357)"/>
            <path fill="url(#D)" d="M4.992 32.715a21.309 21.309 0 0 0-.42-5.842c-.113-.537-.3-1.133-.908-1.42-.456-.214-1.035-.197-1.54-.33a2.095 2.095 0 0 1-1.419-1.152c-.09.454-.173.909-.24 1.36-.189 1.292.037 2.943 1.665 3.371.506.135 1.085.119 1.54.33.61.286.796.883.909 1.42.188.89.32 1.791.393 2.698-.007-.141.02-.29.02-.435z" transform="translate(155.571 134.357)"/>
            <path fill="url(#E)" d="M22.296 32.02a5.885 5.885 0 0 1-5.258 2.774c-1.108-.052-2.356-.398-3.235.112-.585.33-.765.956-1.234 1.388-1.122 1.031-3.275.678-4.939.237a5.355 5.355 0 0 1-1.75-.685 2.126 2.126 0 0 1-.862-1.378c0 .613 0 1.23-.04 1.842-.073 1.097-.153 2.36.902 3.114.538.33 1.13.561 1.75.685 1.664.445 3.817.794 4.939-.237.47-.432.665-1.041 1.234-1.384.879-.514 2.127-.168 3.235-.112a5.879 5.879 0 0 0 5.258-2.778c.862-1.522.825-3.248.526-4.896a5.3 5.3 0 0 1-.526 1.318z" transform="translate(155.571 134.357)"/>
            <path fill="url(#F)" d="M26.153 2.827a5.914 5.914 0 0 0-1.228 1.127 2.343 2.343 0 0 0-.296 1.502 7.7 7.7 0 0 0 .416 1.915c.34-.354.71-.677 1.108-.966 1.996-1.647 2.475-4.02 1.83-6.23a5.722 5.722 0 0 1-1.83 2.652z" transform="translate(155.571 134.357)"/>
            <path fill="url(#G)" d="M25.564 17.75c-1.079.807-2.663 1.275-3.328 2.306a2.919 2.919 0 0 0-.393 1.737c.025.698.112 1.392.26 2.075.04-.08.084-.158.133-.233.665-1.025 2.25-1.496 3.328-2.307 1.84-1.384 1.996-3.575 1.45-5.529a4.178 4.178 0 0 1-1.45 1.95z" transform="translate(155.571 134.357)"/>
        </g>
        <path fill="url(#H)" fill-rule="nonzero" d="M194.726 154.57c-1.156 3.472-2.653 4.841-2.653 4.841h-.832l-7.322.089-.848-2.738 1.188-5.905.73.055c.44.276.917.457 1.41.536.535 0 1.58-.034 1.89.132a.209.209 0 0 0 .138.023c.275-.034.57-.524.57-.524s6.886.014 5.73 3.49z"/>
        <path fill="url(#I)" fill-rule="nonzero" d="M7.666 3.634c-1.399 3.388-3.21 4.724-3.21 4.724H3.45c.523-1.343 1.631-4.101 2.065-4.735C5.949 2.989 2.219 1.52.049.709.382.677.737.2.737.2s8.329.042 6.93 3.435z" opacity=".1" transform="translate(188.571 150.857)"/>
        <path fill="#EFB7B9" fill-rule="nonzero" d="M187.984 156.928s4.04 2.868 5.593 1.336c1.553-1.533 1.345-4.463 1.137-4.927-.208-.465-1.864-6.443-1.864-6.443l-3.191-8.84s-1.936-11.634-4.825-8.732c-2.89 2.903 1.553 9.868 1.553 9.868s1.824 5.086 1.73 6.103c-.092 1.018 1.017 4.748 1.017 4.748l-1.15 6.887z"/>
        <path fill="#FF2615" fill-rule="nonzero" d="M180.677 257.357c-.034.157-.075.321-.117.49-.417 1.558-1.2 1.206-3.501 3.773-1.167 1.363-2.928 1.908-4.576 1.416-.258-.076-.43-.343-.41-.635l.287-4.162.14-2.003s3.666 1.121 5.53-.302c.062-.049.123-.097.181-.153a1.397 1.397 0 0 1 1.79-.18c.547.367.818 1.073.676 1.756zM169.677 255.787c-.031.157-.072.318-.113.486-.418 1.562-1.201 1.207-3.503 3.774-1.166 1.365-2.93 1.91-4.577 1.417-.26-.075-.433-.343-.41-.636l.287-4.163.14-2.003s3.667 1.121 5.531-.303c.063-.046.124-.096.182-.149l.05-.052a1.398 1.398 0 0 1 1.74-.128c.545.369.815 1.075.673 1.757z"/>
        <path fill="#000" fill-rule="nonzero" d="M164.89 256.204l.11 1.69c-1.545 1.792-3.386-.876-3.929-1.751 1.422.84 3.818.061 3.818.061zM178.046 257.16l.307-.15c-2.13 2.392-5.307 1.289-6.282.86l.156-1.5s4.064.84 6.13-.227c-.163.585-.31 1.016-.31 1.016z" opacity=".1"/>
        <path fill="#444053" fill-rule="nonzero" d="M182.438 204.71c-1.46 3.54-2.92 15.398-3.1 16.758-.18 1.36-.14 6.99-.14 6.99l-.365 13.8c-.044 1.725-1.356 6.062-1.356 6.062s-.454 3.615-.227 4.824c.227 1.21-.593 4.337-.593 4.337l.275-.177c-2.281 3.361-5.887.841-5.887.841s-.867-4.071.044-5.09c.912-1.018-.318-4.16-.318-4.16s.457-16.327.593-17.086c.135-.759-.55-3.053-1.186-4.955-.638-1.903.366-9.427.593-10.797.227-1.37-.092-7.614-.319-8.895-.227-1.282.271-6.637.271-6.637-.911-2.655-1.64-.267-1.64-.267l-.732 6.947-.79 14.263s.092 4.335-.593 5.586c-.684 1.252-1.274 4.41-1.274 4.41l.319 16.1s-.044 3.365.183 4.647c.227 1.281-.502 4.6-.502 4.6-2.555 5.839-6.662-.486-6.662-.486s.183-.986.545-1.108c.363-.121-.135-2.523-.41-2.92-.274-.398.048-3.287.048-3.287s-.34-2.612-.824-5.753c-.485-3.141-.363-15.266-.044-16.019.319-.752.593-4.248.593-4.248s-.366-1.991.092-3.408c.457-1.416-1.095-7.39-1.095-8.053 0-.664-.593-4.778-.915-5.221a2.565 2.565 0 0 1-.319-1.24s-.044-.883-.82-3.538c-.566-1.939-.234-5.76 0-7.686.082-.713.15-1.166.15-1.166s26.195-4.114 27.246-3.184c.244.217.41.986.501 2.04.282 3.53-.22 10.446-1.342 13.177z"/>
        <path fill="#000" fill-rule="nonzero" d="M175.214 223.907c.091 0 2.25.238 3.036.03.787-.21-3.036-.03-3.036-.03zM175.214 225.5s2.978 1.244 3.138.601c.16-.642-3.138-.6-3.138-.6zM161.071 224.714s1.923.097 2.97.643c1.046.545-2.97-.643-2.97-.643z" opacity=".1"/>
        <path fill="#EFB7B9" fill-rule="nonzero" d="M155.571 175.274s.256 6.194.116 7.29c0 0 .552 5.013 1.01 6.274a19.409 19.409 0 0 0 1.447 2.876l1.356-12.29-.32-4.21-3.609.06z"/>
        <circle cx="173.25" cy="139.464" r="6.679" fill="#EFB7B9" fill-rule="nonzero"/>
        <path fill="#EFB7B9" fill-rule="nonzero" d="M169.986 143.226s-2 4.045-4.004 5.94c-2.004 1.897 12.013 4.048 12.348 4.048.334 0-2.503-8.613-2.004-9.646.498-1.033-6.34-.342-6.34-.342z"/>
        <path fill="#000" fill-rule="nonzero" d="M185.429 190.331a4.958 4.958 0 0 1-1.11.495c-2.759.854-5.759 2.041-7.8 1.565-2.041-.476-6.347 0-6.347 0s-8.686-.568-10.436-.238a4.22 4.22 0 0 1-1.807.03 24.9 24.9 0 0 1 .147-.94s25.823-3.31 26.858-2.561c.24.174.404.78.495 1.65z" opacity=".1"/>
        <path fill="#FF2615" fill-rule="nonzero" d="M186.214 187.284s-.237 2.913-2.962 3.951c-2.725 1.039-5.675 2.498-7.686 1.92-2.011-.58-6.254 0-6.254 0s-8.558-.7-10.283-.292c-1.724.408-2.6-.117-2.07-.874.53-.757.474-3.236.474-4.297 0-1.061-.592-5.287-.06-6.045.534-.757.988-3.66 2.071-4.125.322-.135.564-.407.659-.738a2.088 2.088 0 0 0 0-1.061s-.178-.146-.428-.363c-.626-.55-1.686-1.57-1.343-1.902.47-.466 0-3.489 0-3.489s-1.126-2.323-.711-3.194c.414-.87-3.621-5.462-3.621-5.462s0-7.902 4.848-8.251c0 0 3.427.116 3.842-1.395.414-1.51 3.133-2.381 3.133-2.381l6.205 1.336s5.497 1.162 6.5.466c1.004-.696 1.762.926 1.762.926s3.426.174 3.781.87c.356.696-1.122 7.494-1.122 7.494s-2.482-.23-2.304 2.385c.178 2.615-.948 5.925-.948 5.925s-.178 1.919-.06 2.323c.12.405-.233 1.838-.286 2.065v.029s-.243.97.076 1.317a.329.329 0 0 0 .102.077c.474.23 1.185 2.499 1.185 2.499.368.439.557.997.53 1.566-.06.932.296 3.138 1.833 4.417 1.538 1.278 3.137 4.303 3.137 4.303z"/>
        <path fill="#FF2615" fill-rule="nonzero" d="M160.286 173.645v.253l-.122 2.8s-4.058.3-6.271-.21-1.284-2.72-1.199-3.183c.066-.42.664-3.923.664-4.49 0-.566 0-2.903-.1-3.98-.1-1.076.495-4.07.495-4.07l.431-.48 4.67 1.617 1.432 11.743z"/>
        <path fill="#000" fill-rule="nonzero" d="M160.286 173.393l-.122 2.528s-4.058.27-6.271-.19-1.284-2.456-1.199-2.874l7.592.536zM160.71 175.214c.091-.296.091-.607 0-.904 0 0-.176-.124-.424-.309 3.112-.364 15.42-1.789 19.567-1.93v.025s-.242.827.076 1.122l-19.218 1.996zM180.613 177.571s.829 4.643-2.256 6.286c0 0 1.75-2.304 2.256-6.286zM161.857 183.648s7.106-1.11 8.507-.25c1.401.859-8.507.25-8.507.25zM178.173 156.357s-1.136 5.013-.285 6.163c.85 1.15.285-6.163.285-6.163zM157.977 153.214s1.256 1.395.49 2.844c-.766 1.45-.49-2.844-.49-2.844z" opacity=".1"/>
        <path fill="#FF2615" fill-rule="nonzero" d="M156.357 168.143s1.07.81.713 2.072c-.358 1.261-.713-2.072-.713-2.072z"/>
        <path fill="#000" fill-rule="nonzero" d="M155.571 164.214s1.382.56 1.56 1.387c.177.827-1.56-1.387-1.56-1.387zM172.071 200.249s7.86.508 9.429-.678c0 .01-7.088.892-9.429.678zM160.286 200.357s7.871 1.53 9.428.321c0 .011-6.764.42-9.428-.32zM172.857 202.657s2.559 0 3.745.09c1.186.089-3.745-.09-3.745-.09zM160.286 203.5s1.328 1.868 2.827 1.53c1.499-.337-2.827-1.53-2.827-1.53z" opacity=".1"/>
        <path fill="#E3787D" fill-rule="nonzero" d="M163.13 130.265c-.519.785-.536 1.692-.683 2.562a10.578 10.578 0 0 1-2.943 5.648c-1.468 1.522-3.486 2.9-3.868 4.758-.359 1.764.864 3.462 1.506 5.18 1.707 4.528-.683 9.28-1.366 13.954-.191 1.292.038 2.943 1.673 3.372.512.133 1.096.116 1.557.332.614.286.802.884.915 1.419.411 1.92.554 3.886.423 5.844-.075 1.1-.157 2.362.908 3.12a5.586 5.586 0 0 0 1.769.684c1.68.442 3.851.791 4.985-.239.474-.432.652-1.043 1.246-1.385.888-.512 2.147-.166 3.264-.113 2.157.087 4.192-.976 5.309-2.775.905-1.588.826-3.388.492-5.096-.335-1.708-.915-3.396-.956-5.123a2.895 2.895 0 0 1 .396-1.735c.682-1.03 2.27-1.498 3.36-2.305 2.048-1.515 2.027-3.987 1.29-6.08-.738-2.094-2.073-4.067-2.237-6.217a2.328 2.328 0 0 1 .3-1.502 6.155 6.155 0 0 1 1.268-1.1c2.973-2.441 2.622-6.455.163-9.2-2.724-3.056-15.05-9.61-18.77-4.003z"/>
        <g fill="#000" fill-rule="nonzero" opacity=".1">
            <path d="M157.804 148.363a11.204 11.204 0 0 0-.465-5.378c-.316-.867-.78-1.727-1.121-2.594-.167.314-.29.65-.364.997-.353 1.764.852 3.46 1.485 5.178.215.582.371 1.185.465 1.797zM160.505 167.902a21.46 21.46 0 0 0-.418-5.843c-.111-.535-.296-1.133-.902-1.419-.455-.216-1.03-.199-1.536-.332a2.101 2.101 0 0 1-1.41-1.152c-.092.451-.173.906-.24 1.358-.188 1.292.037 2.943 1.65 3.372.505.133 1.081.116 1.536.332.606.289.79.883.902 1.422.187.89.317 1.79.39 2.697.007-.146.017-.293.028-.435zM177.745 167.194a5.853 5.853 0 0 1-5.236 2.774c-1.1-.053-2.357-.399-3.219.113-.583.332-.761.953-1.23 1.385-1.117 1.03-3.259.68-4.915.239a5.346 5.346 0 0 1-1.741-.688 2.162 2.162 0 0 1-.862-1.375c0 .611 0 1.226-.037 1.837-.074 1.1-.155 2.362.899 3.12a5.43 5.43 0 0 0 1.74.684c1.657.441 3.799.79 4.917-.236.468-.435.646-1.047 1.229-1.389.876-.511 2.118-.166 3.22-.113a5.853 5.853 0 0 0 5.235-2.773c.86-1.525.822-3.249.522-4.897-.114.46-.29.904-.522 1.32zM181.577 138.016c-.459.317-.87.696-1.222 1.126a2.355 2.355 0 0 0-.296 1.502c.06.653.2 1.297.417 1.916a7.923 7.923 0 0 1 1.101-.966c1.984-1.661 2.465-4.02 1.822-6.229a5.704 5.704 0 0 1-1.822 2.651zM180.992 152.937c-1.075.807-2.64 1.276-3.314 2.302a2.956 2.956 0 0 0-.39 1.738c.025.698.112 1.392.259 2.076.037-.081.08-.16.131-.233.674-1.03 2.24-1.498 3.314-2.305 1.831-1.385 1.986-3.574 1.444-5.528a4.202 4.202 0 0 1-1.444 1.95z"/>
        </g>
        <path fill="#FF2615" fill-rule="nonzero" d="M193.941 155.026c-1.157 3.156-2.656 4.393-2.656 4.393h-.833l-7.32.081-.846-2.487 1.185-5.37.732.03c.44.25.918.415 1.412.487.537 0 1.571-.03 1.886.122.043.02.09.027.138.02.276-.03.566-.477.566-.477s6.89.044 5.736 3.2z"/>
        <path fill="#000" fill-rule="nonzero" d="M195.5 154.942c-1.273 3.275-2.923 4.558-2.923 4.558h-.917c.48-1.297 1.487-3.958 1.882-4.558.394-.6-2.999-2.03-4.97-2.805.304-.031.622-.494.622-.494s7.575.024 6.305 3.3z" opacity=".1"/>
    </g>
</svg>
