<svg xmlns="http://www.w3.org/2000/svg" width="352" height="198" viewBox="0 0 352 198">
    <defs>
        <linearGradient id="a" x1="49.977%" x2="49.977%" y1="100%" y2="-.008%">
            <stop offset="0%" stop-color="gray" stop-opacity=".25"/>
            <stop offset="54%" stop-color="gray" stop-opacity=".12"/>
            <stop offset="100%" stop-color="gray" stop-opacity=".1"/>
        </linearGradient>
        <linearGradient id="b" x1="49.992%" x2="49.992%" y1="100.014%" y2="-.019%">
            <stop offset="0%" stop-color="gray" stop-opacity=".25"/>
            <stop offset="54%" stop-color="gray" stop-opacity=".12"/>
            <stop offset="100%" stop-color="gray" stop-opacity=".1"/>
        </linearGradient>
    </defs>
    <g fill="none" fill-rule="evenodd">
        <path fill="#FF2615" fill-rule="nonzero" d="M195.758 26.993c-20.292-.117-39.743-5.297-58.338-11.033-18.596-5.736-37.026-12.126-56.9-14.934C67.737-.773 53.17-.718 43.057 5.42c-9.732 5.907-12.686 15.768-14.178 24.889-1.127 6.862-1.71 14.07 1.981 20.382 2.562 4.38 7.009 8.007 10.127 12.187 10.846 14.543 3.886 32.968-7.124 47.691-5.182 6.908-11.193 13.524-15.13 20.836-3.939 7.311-5.639 15.63-1.863 22.899 3.744 7.208 12.378 12.482 21.679 16.115 18.893 7.373 40.986 9.078 62.503 9.825 47.641 1.657 95.438-.718 143.105-3.09 17.644-.88 35.361-1.766 52.668-4.529 9.612-1.54 19.518-3.86 26.397-9.04 8.744-6.58 10.687-17.405 4.534-25.234-10.312-13.139-38.014-15.795-45.34-29.985-4.034-7.813-.304-16.713 5.105-24.18 11.6-16.018 31.345-30.305 31.967-48.306.427-12.365-9.528-24.498-24.597-29.978-15.816-5.765-37.482-4.471-48.79 5.946-11.633 10.725-32.411 15.248-50.343 15.145z" opacity=".1"/>
        <path stroke="#535461" stroke-width="2" d="M184.568 78.94s-8.909-15.846-22.33-20.412a27.485 27.485 0 0 1-13.911-10.447 46.355 46.355 0 0 1-4.104-7.41"/>
        <path fill="#FF2615" fill-rule="nonzero" d="M135.788 37.742c1.527 1.49 8.649 3.03 8.649 3.03s-1.748-7.099-3.274-8.59a3.848 3.848 0 0 0-5.456.082 3.884 3.884 0 0 0 .08 5.478zM139.83 50.597c2.091.417 8.906-2.177 8.906-2.177s-5.34-5.012-7.418-5.429a3.861 3.861 0 0 0-4.532 3.056 3.875 3.875 0 0 0 3.044 4.55zM154.483 64.49c2.013-.7 6.591-6.388 6.591-6.388s-7.1-1.627-9.113-.93a3.882 3.882 0 0 0-1.303 6.616 3.846 3.846 0 0 0 3.825.703zM167.943 72.503c2.101-.348 7.57-5.181 7.57-5.181s-6.723-2.812-8.827-2.464a3.873 3.873 0 0 0-3.179 4.454 3.86 3.86 0 0 0 4.436 3.191zM154.655 42.864c0 2.142-3.854 8.345-3.854 8.345s-3.861-6.2-3.861-8.342a3.865 3.865 0 0 1 3.857-3.872 3.865 3.865 0 0 1 3.858 3.872v-.003zM170.278 52.433c-.649 2.043-6.16 6.805-6.16 6.805s-1.835-7.079-1.2-9.113a3.856 3.856 0 0 1 4.836-2.54 3.877 3.877 0 0 1 2.53 4.854l-.006-.006zM184.188 63.823c-.282 2.122-4.93 7.756-4.93 7.756s-3-6.665-2.717-8.787a3.86 3.86 0 0 1 4.337-3.323 3.87 3.87 0 0 1 3.31 4.354z"/>
        <path fill="#000" fill-rule="nonzero" d="M135.788 37.742c1.527 1.49 8.649 3.03 8.649 3.03s-1.748-7.099-3.274-8.59a3.848 3.848 0 0 0-5.456.082 3.884 3.884 0 0 0 .08 5.478zM139.83 50.597c2.091.417 8.906-2.177 8.906-2.177s-5.34-5.012-7.418-5.429a3.861 3.861 0 0 0-4.532 3.056 3.875 3.875 0 0 0 3.044 4.55zM154.483 64.49c2.013-.7 6.591-6.388 6.591-6.388s-7.1-1.627-9.113-.93a3.882 3.882 0 0 0-1.303 6.616 3.846 3.846 0 0 0 3.825.703zM167.943 72.503c2.101-.348 7.57-5.181 7.57-5.181s-6.723-2.812-8.827-2.464a3.873 3.873 0 0 0-3.179 4.454 3.86 3.86 0 0 0 4.436 3.191zM154.655 42.864c0 2.142-3.854 8.345-3.854 8.345s-3.861-6.2-3.861-8.342a3.865 3.865 0 0 1 3.857-3.872 3.865 3.865 0 0 1 3.858 3.872v-.003zM170.278 52.433c-.649 2.043-6.16 6.805-6.16 6.805s-1.835-7.079-1.2-9.113a3.856 3.856 0 0 1 4.836-2.54 3.877 3.877 0 0 1 2.53 4.854l-.006-.006zM184.188 63.823c-.282 2.122-4.93 7.756-4.93 7.756s-3-6.665-2.717-8.787a3.86 3.86 0 0 1 4.337-3.323 3.87 3.87 0 0 1 3.31 4.354z" opacity=".25"/>
        <path stroke="#535461" stroke-width="2" d="M184.059 78.628s-1.751-18.115-12.173-27.748a27.6 27.6 0 0 1-8.504-15.208 46.478 46.478 0 0 1-.759-8.446"/>
        <path fill="#FF2615" fill-rule="nonzero" d="M156.091 21.114c.795 1.985 6.685 6.291 6.685 6.291s1.267-7.202.47-9.187a3.85 3.85 0 1 0-6.652-.98 3.885 3.885 0 0 0-.503 3.876zM154.587 34.5c1.744 1.23 9.016 1.627 9.016 1.627s-2.834-6.737-4.575-7.967a3.85 3.85 0 0 0-5.376.94 3.884 3.884 0 0 0 .935 5.397v.003zM162.387 53.178c2.123.179 8.604-3.164 8.604-3.164s-5.836-4.377-7.959-4.556a3.863 3.863 0 0 0-4.169 3.534 3.87 3.87 0 0 0 3.52 4.186h.004zM171.458 65.975c2.061.537 9.012-1.657 9.012-1.657s-5.015-5.305-7.077-5.858a3.847 3.847 0 0 0-3.86.927 3.883 3.883 0 0 0-1.003 3.856 3.864 3.864 0 0 0 2.918 2.702l.01.03zM171.276 33.475c-.862 1.953-6.892 6.06-6.892 6.06s-1.028-7.238-.165-9.194a3.853 3.853 0 0 1 5.09-1.976 3.88 3.88 0 0 1 1.967 5.11zM181.692 48.58c-1.407 1.604-8.383 3.71-8.383 3.71s1.176-7.216 2.593-8.824a3.85 3.85 0 0 1 6.555 1.314 3.886 3.886 0 0 1-.755 3.8h-.01zM189.813 64.65c-1.115 1.823-7.638 5.084-7.638 5.084s-.055-7.313 1.06-9.14a3.852 3.852 0 0 1 5.252-1.18 3.885 3.885 0 0 1 1.326 5.236z"/>
        <path fill="#FF2615" fill-rule="nonzero" d="M267.784 193.137c.955 1.877-5.8 3.896-14.167 4.478-7.497.523-13.66-.329-14.44-1.856-.78-1.527 3.995-3.38 11.33-4.215 8.185-.927 16.322-.266 17.277 1.593z" opacity=".1"/>
        <path fill="#FFF" fill-rule="nonzero" d="M70.843 90.397L174.155 53.87v126.189l-103.312-2.15z"/>
        <path fill="#FF2615" fill-rule="nonzero" d="M70.843 90.397L174.155 53.87v126.189l-103.312-2.15z" opacity=".2"/>
        <path fill="#FFF" fill-rule="nonzero" d="M0 110.94l59.036-20.91v87.815H0z"/>
        <path fill="#FF2615" fill-rule="nonzero" d="M0 110.94l59.036-20.91v87.815H0z" opacity=".2"/>
        <path fill="#FFF" fill-rule="nonzero" d="M174.155 53.87l103.313 36.527v87.512l-103.313 2.15z"/>
        <path fill="#FF2615" fill-rule="nonzero" d="M174.155 53.87l103.313 36.527v87.512l-103.313 2.15z" opacity=".5"/>
        <path fill="#FFF" fill-rule="nonzero" d="M349.048 111.204l-59.773-21.175v87.816h59.773z"/>
        <path fill="#FF2615" fill-rule="nonzero" d="M349.048 111.204l-59.773-21.175v87.816h59.773z" opacity=".5"/>
        <path fill="#FFF" fill-rule="nonzero" d="M33.954 126.29c-.411 0-.746.565-.746 1.261v15.69a9.35 9.35 0 0 1-1.055 4.45c-.666 1.176-1.685 1.923-2.66 1.923h-.638c-.956 0-1.893-.718-2.626-1.985a9.117 9.117 0 0 1-1.156-4.48v-20.245a6.125 6.125 0 0 1 .828-3.188c.532-.847 1.23-1.315 1.963-1.315.733 0 1.405.468 1.912 1.308.537.981.808 2.088.784 3.208v18.904c0 1.379-.637 2.598-1.39 2.598-.637 0-1.35-1.04-1.35-2.598v-10.796c0-.693-.335-1.26-.746-1.26s-.749.567-.749 1.26v10.783c0 2.867 1.224 5.029 2.846 5.029.79 0 1.52-.494 2.045-1.395a7.323 7.323 0 0 0 .839-3.634v-18.904a9.859 9.859 0 0 0-1.246-4.987c-.79-1.331-1.845-2.06-2.97-2.06-1.125 0-2.18.729-2.98 2.06a9.823 9.823 0 0 0-1.243 4.997v20.24c0 2.32.587 4.674 1.562 6.297.975 1.623 2.294 2.566 3.645 2.566h.654c1.322 0 2.648-.943 3.635-2.592.512-.87.897-1.81 1.144-2.79.286-1.11.43-2.253.427-3.4V127.52c0-.696-.318-1.26-.742-1.26l.013.032z"/>
        <path fill="#FF2615" fill-rule="nonzero" d="M179.442 161.61s1.92 2.487-.887 6.24c-2.808 3.752-5.127 6.924-4.188 9.257 0 0 4.236-6.97 7.682-7.05 3.446-.08 1.182-4.255-2.607-8.447z"/>
        <path fill="#000" fill-rule="nonzero" d="M179.391 161.61c.169.241.302.504.397.781 3.4 3.907 5.213 7.55 1.943 7.643-3.048.087-6.701 5.408-7.576 6.753.027.108.061.215.102.32 0 0 4.286-6.964 7.772-7.044 3.486-.08 1.196-4.265-2.638-8.453z" opacity=".1"/>
        <path fill="#FFD037" fill-rule="nonzero" d="M183.01 164.403c0 .903-.166 1.635-.371 1.635s-.366-.732-.366-1.635.204-.48.409-.48.328-.423.328.48zM183.96 166.055c-.863.51-1.618.82-1.683.691-.065-.13.582-.652 1.445-1.179.864-.526.524-.137.59 0 .064.138.516-.027-.351.488z"/>
        <path fill="#FF2615" fill-rule="nonzero" d="M168.873 161.61s-1.92 2.487.887 6.24c2.808 3.752 5.12 6.924 4.184 9.257 0 0-4.233-6.97-7.681-7.05-3.45-.08-1.182-4.255 2.61-8.447z"/>
        <path fill="#000" fill-rule="nonzero" d="M168.922 161.61a3.113 3.113 0 0 0-.397.781c-3.403 3.907-5.214 7.55-1.942 7.643 3.043.087 6.698 5.408 7.572 6.753a2.618 2.618 0 0 1-.105.32s-4.28-6.964-7.768-7.044c-3.488-.08-1.196-4.265 2.64-8.453z" opacity=".1"/>
        <path fill="#FFD037" fill-rule="nonzero" d="M165.3 164.403c0 .903.161 1.635.366 1.635s.372-.732.372-1.635-.21-.48-.41-.48c-.199 0-.328-.423-.328.48zM164.35 166.055c.865.51 1.618.82 1.683.691.065-.13-.58-.652-1.44-1.179-.862-.526-.523-.137-.588 0-.065.138-.53-.027.346.488z"/>
        <ellipse cx="174.155" cy="193.342" fill="#FF2615" fill-rule="nonzero" opacity=".1" rx="19.925" ry="2.952"/>
        <path fill="#444053" fill-rule="nonzero" d="M184.482 173.847l-.097.778-.136 1.1-.055.457-.136 1.103-.058.457-.133 1.1-1.537 12.512c-.136 1.116-1.97 1.988-4.187 1.988h-7.976c-2.216 0-4.048-.872-4.187-1.988l-1.537-12.512-.136-1.1-.055-.457-.136-1.103-.058-.457-.133-1.1-.097-.778c-.077-.643.916-1.168 2.171-1.168h16.315c1.256 0 2.246.534 2.168 1.168z"/>
        <path fill="#9D9CB5" fill-rule="nonzero" d="M184.486 174.155l-.137 1.476h-20.391l-.134-1.476zM184.486 175.631l-.134 1.476h-19.655l-.135-1.476zM184.486 177.107l-.134 1.476H164.7l-.137-1.476z"/>
        <path fill="#FFF" fill-rule="nonzero" d="M134.94 105.675l-3.108 4.079a.239.239 0 0 1-.24.1l-3.213-.76a.341.341 0 0 1-.22-.289l-.574-4.2a.446.446 0 0 1 .075-.322l3.102-4.072a.87.87 0 0 0-.072-1.096 3.375 3.375 0 0 0-2.2-.964.623.623 0 0 0-.137 0c-.865.064-2.72.697-4.152 2.687-1.39 1.928-2.845 5.483-1.556 9.456.153.479.325 1.112-.189 1.783-.514.672-13.815 17.036-13.815 17.036-1.246 1.404-1.155 4.001 0 5.512.498.7 1.3 1.127 2.164 1.157a2.427 2.427 0 0 0 2.047-1.186s12.413-17.292 13.018-18.08a.978.978 0 0 1 .768-.46c.215.012.422.087.593.216a3.94 3.94 0 0 0 2.242.672c1.855 0 3.804-1.125 4.996-2.68a9.628 9.628 0 0 0 2.047-5.44 5.918 5.918 0 0 0-.74-3.094.48.48 0 0 0-.836-.07v.015zm-23.432 26.983a.826.826 0 0 1-.688.367.826.826 0 0 1-.688-.367 1.59 1.59 0 0 1 0-1.8.826.826 0 0 1 .688-.367c.277 0 .536.138.688.367a1.59 1.59 0 0 1 .003 1.8h-.003zM244.49 113.521c-.854-9.886-7.546-17.588-15.686-17.588-5.388 0-10.132 3.365-12.981 8.506a6.186 6.186 0 0 0-2.83-.697c-4.114 0-7.439 4.535-7.513 9.646-4.204 1.672-6.973 6.802-6.973 12.186 0 6.598 4.282 12.422 9.56 12.422h34.747c5.281 0 9.563-5.83 9.563-12.422 0-5.876-3.408-11.055-7.888-12.053zm-7.85-2.267l-14.065 17.653c-.18.223-.646.722-1.222.722a1.723 1.723 0 0 1-1.23-.748l-5.901-7.369a.62.62 0 0 1 0-.748l1.872-2.339a.378.378 0 0 1 .295-.159.375.375 0 0 1 .294.16l4.673 5.83 12.833-16.154a.388.388 0 0 1 .294-.159c.119.001.229.06.295.16l1.84 2.38a.606.606 0 0 1 .022.761v.01z"/>
        <ellipse cx="330.231" cy="124.713" fill="#FFF" fill-rule="nonzero" rx="3.321" ry="4.428"/>
        <path fill="#FFF" fill-rule="nonzero" d="M330.315 130.653a3.446 3.446 0 0 1-1.05-.169l-3.194 4.315a.21.21 0 0 0 0 .25l5.075 7.153c.344.495.344 1.15 0 1.645a.8.8 0 0 1-.621.325.79.79 0 0 1-.619-.325l-5.055-7.153a.118.118 0 0 0-.196 0l-1.234 1.665c-1.03 1.385-2.399 1.177-3.871 1.186-1.472.01-2.902-.822-3.95-2.227l-1.184-1.6a.118.118 0 0 0-.196 0l-5.056 7.153a.8.8 0 0 1-.621.326.79.79 0 0 1-.619-.326 1.442 1.442 0 0 1 0-1.645l5.075-7.153a.246.246 0 0 0 0-.25l-7.26-9.793c-.089-.117-.23-.036-.23.124v19.599c0 1.573.982 2.86 2.157 2.86l23.729.976c1.188 0 2.156-1.3 2.156-2.861v-15.909c-.814 1.129-1.96 1.834-3.236 1.834z"/>
        <path fill="#FFF" fill-rule="nonzero" d="M325.87 124.804a7.282 7.282 0 0 1 .557-2.82l-18.837-.96a1.854 1.854 0 0 0-1.343.617l10.641 14.066a3.313 3.313 0 0 0 2.65 1.441c.987 0 1.948.452 2.653-.48l5.457-7.215c-1.083-1.074-1.778-2.756-1.778-4.65z"/>
        <path fill="#FF2615" fill-rule="nonzero" d="M351.937 175.636s-4.067-.216-3.587 2.298c-.054.26.086.521.348.649 0 0 0-.188.417-.123.146.02.294.027.442.018.199-.013.388-.082.54-.196 0 0 1.14-.418 1.586-2.069 0 0 .33-.36.317-.451l-.696.258a.974.974 0 0 1 .048.802s-.02-.787-.153-.768c-.028 0-.348.153-.348.153s.404.76.101 1.312c0 0 .115-.921-.226-1.256l-.484.248s.474.784.154 1.426c0 0 .083-.983-.254-1.367l-.439.307s.446.778.174 1.31c0 0-.035-1.147-.268-1.23a2.518 2.518 0 0 0-.442.421s.303.563.115.858c0 0-.115-.763-.209-.766-.199.258-.342.547-.42.852a1.7 1.7 0 0 1 .33-.9c-.22.036-.424.129-.585.267 0 0 .06-.357.696-.39.115-.149.248-.285.397-.406-.334-.026-.67.009-.988.101 0 0 .348-.338 1.103-.184l.431-.308a4.052 4.052 0 0 0-1.155 0s.397-.307 1.27-.08l.473-.249c-.362-.07-.732-.099-1.103-.086a1.9 1.9 0 0 1 1.239.019l.348-.132s-.508-.09-.654-.102c-.146-.012-.157-.052-.157-.052.32-.046.65-.013.95.095.238-.075.469-.169.689-.28z"/>
        <ellipse cx="348.679" cy="178.952" fill="#FF2615" fill-rule="nonzero" opacity=".1" rx="2.583" ry="1"/>
        <path fill="#FF2615" fill-rule="nonzero" d="M293.609 175.637s-4.86-.271-4.288 2.873a.754.754 0 0 0 .431.81s0-.232.5-.152c.174.027.351.034.527.022.24-.014.467-.1.648-.246 0 0 1.379-.523 1.896-2.592 0 0 .396-.45.379-.568l-.82.319c.156.315.177.673.058 1.002 0 0-.024-.983-.183-.957-.03 0-.427.188-.427.188s.483.958.12 1.65c0 0 .139-1.178-.272-1.596l-.575.32s.562.986.183 1.794c0 0 .096-1.236-.304-1.718l-.524.38s.531.958.207 1.638c0 0-.041-1.437-.32-1.545a3.032 3.032 0 0 0-.528.526s.345.706.138 1.08c0 0-.138-.958-.251-.958a3.078 3.078 0 0 0-.503 1.069c.022-.402.158-.791.392-1.13a1.423 1.423 0 0 0-.689.32s.073-.45.814-.49c.136-.186.296-.357.475-.51-.4-.032-.801.012-1.182.128 0 0 .393-.425 1.317-.233l.516-.39a4.647 4.647 0 0 0-1.378 0s.472-.373 1.52-.102l.562-.32a5.443 5.443 0 0 0-1.32-.105s.52-.261 1.485.02l.4-.166s-.603-.109-.783-.128c-.179-.02-.186-.064-.186-.064a2.265 2.265 0 0 1 1.138.118 5.14 5.14 0 0 0 .827-.287z"/>
        <ellipse cx="290.382" cy="179.69" fill="#FF2615" fill-rule="nonzero" opacity=".1" rx="3.321" ry="1"/>
        <path fill="url(#a)" fill-rule="nonzero" d="M264.645 143.794s.377-.36.252-.602a.552.552 0 0 1 0-.481s-.845-3.277-1.16-3.607a2.506 2.506 0 0 1-.468-.815.419.419 0 0 0 .046-.207 1.638 1.638 0 0 0-.328-.914 2.222 2.222 0 0 1-.39-1.212 1.326 1.326 0 0 1 0-.162 1.631 1.631 0 0 0-1.133-.992c.108-.695.255-1.39.301-2.088.147-2.188-.678-4.312-1.49-6.361a6.669 6.669 0 0 0-.712-1.445 4.275 4.275 0 0 0-3.06-1.648 3.03 3.03 0 0 0-1.31.126 4.073 4.073 0 0 0-1.13.746c-.351.291-.702.589-1.026.906l-.04.038-.114.12-.046.045-.108.12-.04.042c-.046.055-.095.11-.14.168-.043.055-.086.106-.125.161l-.04.055-.085.12-.039.061c-.03.042-.052.084-.079.126l-.036.059c-.032.061-.068.122-.101.187l-.118.259v.035l-.069.171c-.088.207-.174.414-.282.611l-.02.033-.235.28c-.108.14-.198.292-.269.453l-.023.052c0 .023-.016.049-.026.071l-.023.058a.64.64 0 0 1-.023.075v.061l-.02.071v.065c0 .023 0 .048-.016.071v.465a.778.778 0 0 0 0 .088.35.35 0 0 0 0 .058.673.673 0 0 0 0 .08v.139a.37.37 0 0 0 0 .059l.02.084v.052l.03.09s0 .03.016.042c.016.013.032.09.052.133.1.216.224.422.367.614.095.129.193.255.292.384l.14.194a2.78 2.78 0 0 1 .157 3.19l-.117.178a.94.94 0 0 0-.135.323.686.686 0 0 0 .187.553l-.291.074c-.24.065-.403.117-.403.117a3.444 3.444 0 0 0-.597 0 1.641 1.641 0 0 0-.717.452s-1.252.149-1.661-.21c-.41-.359-1.845-.481-1.845-.481s-.406-.783-.845-1.025c-.44-.242-1.501-.692-1.534-.93a2.188 2.188 0 0 0-.406-.693 3.651 3.651 0 0 0-.655-.077l-.07-.116-.874-1.49s-1.097-1.264-1.69-1.384c-.594-.12.835 1.342.904 1.41a.949.949 0 0 0-1.31.213c-.466.51.77 1.71 1.536 2.372l.124.107c.006.066.016.132.03.197.344 1.774 2.25 3.31 2.25 3.31s.22.992.941 1.234c.573.191 3.653 1.568 5.259 1.843-.135.342-.292 1.137.373 2.307 0 0 .157 2.075-.187 2.347-.344.271-.327 3.277-.327 3.277s-1.31 5.233 0 6.345c.083.07.177.127.278.168 0 .081.023.165.033.252.059.524.079 1.067-.062 1.293-.328.51.108 1.894.108 1.894s-1.265 7.069-.701 9.564c.356 1.865.522 3.76.498 5.656 0 0-.187 2.195.783 3.52.106.314.17.64.187.97.063.634.233 1.253.5 1.832.22.42.656 2.198.283 2.677-.374.478.406 5.717.406 5.717s-.626 1.616 0 2.466l.02.023a4.314 4.314 0 0 1-1.098-.155c-.701-.233-.177.646.655 1.248-.363.814-.861 1.907-1.028 2.262-.725.123-2.16.323-3.002.126-1.156-.268.502 1.564 2.064 1.897a15.17 15.17 0 0 0 3.349.24l1.01-1.1c.814.109 1.638.139 2.46.091l-.089 1.022h.593v-1.06c.374-.036.76-.085 1.16-.156 0 0 .023-1.118-.05-2.175l.365.032.055-.585 1.288.23 1.157-9.373s.127-3.488.41-5.443c.28-1.956-.597-8.514-.597-8.514s-.062-.323-.125-.93c-.062-.608 0-4.154 0-4.154s.469-1.94.377-2.104c-.092-.165.03-.992.03-.992 1.965-3.953-.453-7.525-1.295-8.585a.254.254 0 0 0 .082-.171.16.16 0 0 0 0-.068 7.198 7.198 0 0 0-.472-.97l.492-.617c.17.242.292.423.292.423s.53-1.173 1.064-1.616c.534-.443 3.097-4.66 3.097-4.66s.596-.395.281-.725c-.314-.33-.147-.287-.147-.287zm-7.883 33.265a.832.832 0 0 0-.223-.359s-.092-.646-.124-1.477c.186.647.376 1.115.376 1.115l-.03.721zm1.474 15.375v-.171h.046l-.046.171zm.387-42.787v-.039a.476.476 0 0 1 .203-.43.225.225 0 0 0 .108-.21.757.757 0 0 0-.15-.375c.062.046.255.15.386-.226.02-.058.03-.12.03-.18a1.506 1.506 0 0 0-.37-.848l1.415-2.94c.154.045.312.08.471.106-.37 1.131-.674 2.479-.674 2.479l-1.095 2.375c.074.029.14.076.19.136l-.514.152z"/>
        <path fill="#444053" fill-rule="nonzero" d="M253.81 191.235s-1.754.2-2.607-.073c-.854-.273.262 1.164 1.416 1.516a11.61 11.61 0 0 0 2.501.396l1.354-1.187 1.438.105-.25 1.312.447.038.172-1.717-4.471-.39z"/>
        <path fill="#000" fill-rule="nonzero" d="M253.81 191.235s-1.754.2-2.607-.073c-.854-.273.262 1.164 1.416 1.516a11.61 11.61 0 0 0 2.501.396l1.354-1.187 1.438.105-.25 1.312.447.038.172-1.717-4.471-.39z" opacity=".1"/>
        <path fill="#444053" fill-rule="nonzero" d="M251.708 194.08s-2.244.45-3.379.196c-1.135-.255.493 1.47 2.027 1.779 1.082.192 2.185.268 3.286.226l1.598-1.665 1.87-.028-.153 1.706h.586v-2.214h-5.835z"/>
        <path fill="#000" fill-rule="nonzero" d="M251.708 194.08s-2.244.45-3.379.196c-1.135-.255.493 1.47 2.027 1.779 1.082.192 2.185.268 3.286.226l1.598-1.665 1.87-.028-.153 1.706h.586v-2.214h-5.835z" opacity=".1"/>
        <path fill="#444053" fill-rule="nonzero" d="M259.099 152.755s3.604 4.12 1.444 8.774c0 0-.116.833-.031.98.084.149-.344 2.077-.344 2.077s-.06 3.497 0 4.092c.06.594.116.916.116.916s.806 6.463.547 8.392c-.26 1.928-.375 5.367-.375 5.367l-1.066 9.25-5.537-1.066 2.501-12.693.088-2.25s-1.038-2.754-.579-4.15c.46-1.394-.115-19.153-.115-19.153l3.35-.536z"/>
        <path fill="#000" fill-rule="nonzero" d="M259.099 152.755s3.604 4.12 1.444 8.774c0 0-.116.833-.031.98.084.149-.344 2.077-.344 2.077s-.06 3.497 0 4.092c.06.594.116.916.116.916s.806 6.463.547 8.392c-.26 1.928-.375 5.367-.375 5.367l-1.066 9.25-5.537-1.066 2.501-12.693.088-2.25s-1.038-2.754-.579-4.15c.46-1.394-.115-19.153-.115-19.153l3.35-.536z" opacity=".02"/>
        <path fill="#444053" fill-rule="nonzero" d="M257.002 172.721c-.628 1.257-.233 4.313-.233 4.313.838.75.377 7.283.377 7.283s.577 6.44.941 7.191c.364.75.314 3.833.314 3.833-4.254.809-7.034-.929-7.034-.929s1.362-3.206 1.39-3.355c.015-.085.197.143.25.21l-.25-.36c-.58-.838 0-2.455 0-2.455s-.725-5.197-.377-5.694c.349-.497-.056-2.248-.26-2.667a6.038 6.038 0 0 1-.464-1.829 3.843 3.843 0 0 0-.173-.958c-.897-1.319-.725-3.505-.725-3.505a29.963 29.963 0 0 0-.46-5.632c-.522-2.488.649-9.53.649-9.53s-.39-1.377-.1-1.887c.13-.227.112-.767.056-1.3-.07-.649-.201-1.253-.201-1.253l7.903-1.442c.166.286.314.562.458.828 2.613 4.999.85 6.854.85 6.854l-1.678 5.333s-.596 5.69-1.233 6.951z"/>
        <path fill="#EFB7B9" fill-rule="nonzero" d="M243.522 134.073l-1.054.971s-.208-.181-.483-.456c-.662-.648-1.728-1.848-1.327-2.353a.793.793 0 0 1 .525-.37.74.74 0 0 1 .605.16c-.058-.072-1.282-1.518-.779-1.402.504.117 1.465 1.372 1.465 1.372l.755 1.48.293.598zM259.64 149.803l-1.36.413 1.033 1.8 1.182-1.534z"/>
        <circle cx="256.436" cy="128.771" r="4.059" fill="#EFB7B9" fill-rule="nonzero"/>
        <path fill="#EFB7B9" fill-rule="nonzero" d="M253.757 130.26s3.471 5.596.177 6.071c-3.294.475 4.418 3.879 4.418 3.879l2.88-2.96s-2.997-5.272-2.524-7.285c.474-2.014-4.95.295-4.95.295z"/>
        <path fill="#000" fill-rule="nonzero" d="M259.019 153.621c-.81.253-1.636.449-2.472.588 0 0-4.524 2.038-6.17 1.359-.074-.68-.213-1.312-.213-1.312l8.36-1.501c.185.299.348.587.495.866z" opacity=".1"/>
        <path fill="#FF6484" fill-rule="nonzero" d="M262.666 139.364l-.792 1.63-.891 1.833-.129.263-1.059 2.278-1.345 2.883s.476.56.321 1.006c-.154.446-.357.234-.383.209.023.035.322.42.055.59a.56.56 0 0 0-.177.56s1.098 1.804 1.307 2.454c.21.65-3.325 1.211-3.325 1.211s-5.018 2.217-6.267 1.121c-1.25-1.095 0-6.234 0-6.234s0-2.954.322-3.22c.321-.266.177-2.307.177-2.307-.86-1.567-.268-2.454-.268-2.454l-.238-4.018s.386-.413.683-.442c.188-.02.378-.02.566 0 0 0 .155-.055.383-.115.477-.135 1.265-.32 1.545-.183.416.208 3.09-.32 3.09-.32a33.044 33.044 0 0 1 3.474-.32c.397-.024.795.019 1.178.127.524.118.953.493 1.136.997-.044.48.082.961.357 1.358.483.77.28 1.093.28 1.093z"/>
        <path fill="#000" fill-rule="nonzero" d="M243.522 134.133l-1.008.911s-.199-.17-.462-.428c-.08-.945.66-1.07 1.184-1.045l.286.562z" opacity=".1"/>
        <path fill="#FF6484" fill-rule="nonzero" d="M250.216 136.794l-.49.028s-1.155.143-1.53-.202c-.376-.344-1.703-.456-1.703-.456s-.375-.745-.779-.975c-.404-.23-1.386-.659-1.414-.888a2.064 2.064 0 0 0-.376-.659s-2.165-.515-1.846 1.174c.32 1.69 2.078 3.152 2.078 3.152s.203.932.867 1.174c.663.243 4.962 2.236 5.657 1.72.694-.515-.464-4.068-.464-4.068z"/>
        <path fill="#000" fill-rule="nonzero" d="M262.39 138.25a2.041 2.041 0 0 1-.36-1.359 1.585 1.585 0 0 0-1.147-.997 3.11 3.11 0 0 0-.581-.112c.522.121.947.494 1.13.99-.047.482.081.964.361 1.36.478.77.27 1.097.27 1.097l-.8 1.629-.903 1.84-.127.263-1.069 2.28-1.358 2.886s.478.56.325 1.007c-.153.445-.357.234-.387.208.026.035.325.42.059.59a.563.563 0 0 0-.182.561s1.111 1.805 1.32 2.456c.207.651-3.358 1.212-3.358 1.212s-3.519 1.54-5.42 1.42c1.625.626 6.022-1.301 6.022-1.301s3.574-.561 3.356-1.212c-.217-.651-1.319-2.456-1.319-2.456a.557.557 0 0 1 .179-.561c.26-.17-.033-.555-.056-.59.026.025.247.205.387-.209.14-.413-.325-1.007-.325-1.007l1.358-2.885 1.07-2.28.13-.263.9-1.834.799-1.632s.208-.33-.273-1.1z" opacity=".1"/>
        <path fill="#FF6484" fill-rule="nonzero" d="M262.73 138.734l.558.451c.1.299.259.576.466.818.308.327 1.143 3.617 1.143 3.617a.572.572 0 0 0 0 .485c.124.242-.248.605-.248.605s-.184-.063.124.271c.309.334-.278.723-.278.723s-2.535 4.223-3.062 4.677c-.526.455-1.053 1.636-1.053 1.636s-1.1-1.688-1.361-1.72l1.083-2.385s.741-3.317 1.298-3.925c.556-.609-.279-2.686-.279-2.686l1.61-2.567z"/>
        <path fill="#000" fill-rule="nonzero" d="M262.333 144.781c-.438.523-1.211.63-1.902.557-.102 0-.2-.025-.302-.044a4.639 4.639 0 0 1-1.896-.812.914.914 0 0 0-.316-.185.686.686 0 0 0-.692.368c-.149.236-.218.513-.37.749-.337.45-.872.711-1.437.699a5.104 5.104 0 0 1-1.63-.315 4.803 4.803 0 0 0 1.047-1.722c.096-.425.123-.863.082-1.297-.126-2.055-.846-4.22-2.536-5.417-.291-.208-.634-.453-.742-.765.47-.132 1.246-.315 1.522-.18.41.205 3.044-.314 3.044-.314a32.622 32.622 0 0 1 3.42-.315c.392-.023.784.02 1.16.126a7.19 7.19 0 0 0-.094 2.6c.12.534.314 1.049.577 1.53.152.286.317.573.472.86.447.792.872 1.589.951 2.483.068.493-.061.993-.358 1.394zM257.004 149.003c.238-.06.485-.08.73-.061.205.058.392.163.547.304h-1.6c-.413 0-1.034.023-1.352-.256.277-.268 1.27.059 1.675.013z" opacity=".1"/>
        <path fill="#925978" fill-rule="nonzero" d="M251.357 128.387a2.218 2.218 0 0 0-.273 2.226c.253.574.74 1.02 1.04 1.572.46.87.421 1.905-.1 2.742a1.295 1.295 0 0 0-.247.491c-.073.452.414.776.8 1.04 1.775 1.218 2.532 3.425 2.67 5.52.045.442.017.888-.084 1.322a4.841 4.841 0 0 1-1.1 1.754c.549.196 1.128.304 1.713.321a1.87 1.87 0 0 0 1.511-.715c.16-.238.234-.52.39-.764a.724.724 0 0 1 .728-.375c.123.042.236.106.333.19.678.479 1.475.78 2.312.872.717.08 1.53-.036 2-.568.314-.412.45-.925.378-1.43-.16-1.794-1.738-3.209-2.102-4.966-.296-1.428.237-2.887.334-4.337.147-2.15-.667-4.244-1.464-6.255a6.858 6.858 0 0 0-.7-1.425 4.192 4.192 0 0 0-3.002-1.604 2.952 2.952 0 0 0-1.298.125 3.993 3.993 0 0 0-1.114.732c-.76.641-1.544 1.283-2.001 2.175-.18.359-.297.744-.497 1.09"/>
        <g fill="#000" fill-rule="nonzero" opacity=".1">
            <path d="M252.199 127.565c.195-.35.33-.736.488-1.092.171-.334.384-.646.634-.93a5.246 5.246 0 0 0-1.119 1.434c-.171.35-.287.723-.475 1.064l.24-.2a2.46 2.46 0 0 0-.168.258c.155-.162.29-.341.4-.534zM261.565 144.074a4.88 4.88 0 0 1-2.288-.878 1.12 1.12 0 0 0-.33-.19.728.728 0 0 0-.72.38c-.032.05-.06.103-.086.157a.518.518 0 0 1 .33-.028.997.997 0 0 1 .33.19c.672.48 1.46.781 2.288.873.71.08 1.516-.035 1.981-.569.059-.068.11-.142.152-.221a2.605 2.605 0 0 1-1.657.286zM256.332 144.864a5.483 5.483 0 0 1-1.693-.321 4.91 4.91 0 0 0 1.086-1.761c.1-.433.13-.879.086-1.32-.133-2.1-.879-4.314-2.642-5.532-.382-.266-.861-.59-.792-1.044.05-.178.133-.345.248-.492a2.772 2.772 0 0 0 .099-2.744c-.297-.553-.78-1.003-1.034-1.575a2.262 2.262 0 0 1 .106-1.976 3.173 3.173 0 0 1-.267.244c-.069.092-.142.18-.221.264a2.243 2.243 0 0 0-.103 1.973c.251.575.733 1.022 1.03 1.574.454.872.417 1.91-.099 2.748a1.303 1.303 0 0 0-.244.492c-.073.453.41.777.792 1.04 1.756 1.222 2.506 3.433 2.641 5.532.046.442.018.89-.082 1.324a4.859 4.859 0 0 1-1.09 1.757 5.49 5.49 0 0 0 1.697.322 1.843 1.843 0 0 0 1.496-.717c.02-.032.04-.064.056-.096-.321.196-.691.303-1.07.308z"/>
        </g>
        <path fill="url(#b)" fill-rule="nonzero" d="M22.918 183.903a4.553 4.553 0 0 1-1.877-.686l-.058-.042a.621.621 0 0 0 .097-.222 1.087 1.087 0 0 1-.123-.496 1.138 1.138 0 0 0-.096-.476v-.805a1.48 1.48 0 0 1-.271-.924c-.023-.667-.049-3.938-.049-3.938a1.53 1.53 0 0 1-.022-.521c.022-.38.022-.522.022-.522a1.434 1.434 0 0 1-.07-.689.885.885 0 0 0-.175-.615l.368-1.803s.203-6.22-.39-8.097v-.023c.048-1.207-.687-3.22-.271-4.623.416-1.404.467-1.707.467-1.707s-1.837-4.6-2.302-5.692a14.12 14.12 0 0 0-.967-2.048l-.087-.116-.048-.058c.1-.166.162-.353.177-.547.026-.322-.022-.728.226-.966a1.99 1.99 0 0 1 .303-.203c.386-.252.593-.702.535-1.16a1.953 1.953 0 0 0-.487-.942 2.651 2.651 0 0 0-.8-2.408v-.149c.004-.328-.099-.65-.293-.914l.068.048-.116-.1a.86.86 0 0 0-.19-.148 3.602 3.602 0 0 0-3.74-.193 2.05 2.05 0 0 0-.729.644c-.384.592-.287 1.355-.487 2.028s-.645 1.169-1.022 1.73c-.377.56-.69 1.223-.548 1.876.103.477.439.902.432 1.385-.032.528-.44.957-.967 1.017h-.145c.48.29 1.02.462 1.58.502 0 .046-.026.087-.036.132-.438 1.7-.841 3.864-.841 3.864s.27 2.183-.294 3.89c-.564 1.706-.49 5.219-.49 5.219s1.567-.809 1.667-.287c.1.522 0 .663 0 .663.226.12.459.227.696.322v.21l-.07.933c-.026.194.005.39.087.567.135.26 0 .966 0 .966s-.116.07 0 .405c.051.272.02.552-.09.805 0 0-.14 1.778-.165 2.158a7.488 7.488 0 0 1-.49 1.445s.419.522 0 .596c-.42.074-.464.708-.464.708s-.49.406-.49.548a11.22 11.22 0 0 0-2.764 5.879s-.515.473-.441.924c.042.254-.042.341-.123.37.09 0 .19.07.145.293-.07.38-.267 1.185-.267 1.185h.035c-.403.463-.986 1.24-1.077 1.932v.083l-.225.493 1.934.853.171-.26s.858.965 1.838 1.184c.168.037.34.057.512.058a4.584 4.584 0 0 0 1.593-.322s.71-.876-1.128-1.043c0 0-1.077-1.233-.968-1.755.035-.22.058-.44.068-.663v-.142l.126.02.022-.4a.322.322 0 0 0 .075-.238c0-.164-.149-.19 0-.283.148-.094.145 0 .145-.235s-.097-.168.122-.406c.22-.238-.022-.663-.022-.663.274-.205.449-.516.48-.857-.023-.495 1.641-3.65 1.983-3.77.342-.119.367-.737.367-.737s.468.096.613 0c.23-.257.435-.535.613-.83 0 0 1.86-4.695 1.886-6.472l.122-.403s.71.924.61 1.588c-.1.663.544 1.14.544 1.14v2.015c.071.35.11.707.116 1.066-.022.321.29.663.171.95a1.608 1.608 0 0 0 0 .782s-.025.663 0 .853c.026.19-.096 2.37.542 3.32 0 0 .268.685 0 1.136-.268.45.242.901.242.901s-.323.522 0 .902c.183.24.266.541.229.84-.13.483-.223 1.114 0 1.555l.058.68 1.876-.145v-.377c.809.198 1.646.25 2.473.155a2.345 2.345 0 0 0 1.638-.892s.754-1.304-1.3-.805z"/>
        <path fill="#FF6484" fill-rule="nonzero" d="M23.487 184.69c-.37.515-.93.842-1.54.9a5.964 5.964 0 0 1-2.312-.16v.388l-1.753.144-.053-.69c-.203-.454-.11-1.111.016-1.604.056-.233.128-.462.215-.684 0 0 1.51-1.351 2.012-.329.109.21.26.391.443.533a4.061 4.061 0 0 0 1.753.697c1.927-.52 1.22.805 1.22.805z"/>
        <path fill="#000" fill-rule="nonzero" d="M19.187 183.33s0 1.178.748 1.156c.749-.022.851-.47.614-.773-.162-.215-.3-.45-.415-.703l-.947.32z" opacity=".1"/>
        <path fill="#FF6484" fill-rule="nonzero" d="M10.937 187.138a4.481 4.481 0 0 1-1.517.3 2.665 2.665 0 0 1-.49-.05c-.934-.2-1.753-1.103-1.753-1.103l-.163.243-1.848-.793.21-.463v-.08c.086-.632.637-1.355 1.026-1.785.22-.24.392-.397.392-.397l2.231.3v.602a4.8 4.8 0 0 1-.064.618c-.092.484.934 1.629.934 1.629 1.721.156 1.042.979 1.042.979z"/>
        <path fill="#444053" fill-rule="nonzero" d="M6.7 181.533a.223.223 0 0 1-.117 0 .324.324 0 0 1 .117 0z"/>
        <path fill="#000" fill-rule="nonzero" d="M9.593 182.528v.482l-2.951-.315s0-.039.032-.102c.23-.195.425-.32.425-.32l2.494.255zM20.662 183.083c-.425.845-2.951.645-2.951.645a.837.837 0 0 0 .017-.206c.062-.209.141-.413.236-.613 0 0 1.66-1.21 2.212-.294.12.184.287.344.486.468z" opacity=".1"/>
        <path fill="#444053" fill-rule="nonzero" d="M20.662 182.893c-.233 1.07-2.795.833-2.795.833a1.231 1.231 0 0 0-.211-.904c-.32-.384 0-.908 0-.908s-.493-.452-.234-.907c.26-.455 0-1.145 0-1.145-.608-.953-.493-3.148-.519-3.337-.025-.188 0-.858 0-.858a1.684 1.684 0 0 1 0-.788c.116-.286-.185-.62-.16-.952a6.35 6.35 0 0 0-.099-1.064v-2.026c-.347-.273-.54-.7-.519-1.145.093-.67-.589-1.597-.589-1.597l-.115.403c-.026 1.79-1.809 6.505-1.809 6.505-.17.295-.366.574-.586.833-.14.097-.586 0-.586 0s-.026.62-.352.738c-.327.117-1.921 3.291-1.902 3.792-.026.35-.197.672-.47.885 0 0 .233.43.022.667-.212.237-.116.166-.116.406 0 .24 0 .143-.14.238-.141.094 0 .12 0 .286a.349.349 0 0 1-.07.237l-.023.4-2.747-.445s.185-.813.256-1.194c.041-.224-.055-.283-.141-.296.077-.03.157-.117.118-.37-.07-.456.423-.93.423-.93a11.512 11.512 0 0 1 2.606-5.94c0-.143.468-.55.468-.55s.048-.65.448-.715c.4-.065 0-.595 0-.595.202-.468.359-.955.467-1.454.026-.38.157-2.17.157-2.17.106-.255.136-.536.087-.81-.11-.324 0-.406 0-.406s.134-.715 0-.975a1.092 1.092 0 0 1-.08-.573l.064-.936.099-1.399s7.3-1.265 8.098-.24c.088.126.152.268.188.419.57 1.886.375 8.13.375 8.13l-.352 1.812a.905.905 0 0 1 .166.618c-.03.234-.006.471.07.693 0 0 0 .143-.025.524-.02.176-.012.354.026.527 0 0 .022 3.288.045 3.958-.015.33.076.656.259.93v.81c.063.151.095.314.093.478-.004.175.032.349.105.507z"/>
        <path fill="#000" fill-rule="nonzero" d="M9.593 187.438a2.924 2.924 0 0 1-.51-.05c-.972-.195-1.825-1.086-1.825-1.086l-.169.24-1.923-.782.219-.456v-.08l1.99.888s1.591.69 2.218 1.326zM22.138 185.565a6.452 6.452 0 0 1-2.485-.172v.415l-1.885.154-.057-.738c.597 0 1.56.025 1.975 0a8.774 8.774 0 0 1 2.452.341zM7.633 180.799a.62.62 0 0 1 .237.03c.08.05.155.104.227.165.053.029.104.063.151.1.058.059.083.145.141.204.11.108.276.086.43.136.017 0 .034 0 .036.031 0 .017-.01.032-.024.04a.24.24 0 0 1-.235 0 .906.906 0 0 1-.193-.151 1.289 1.289 0 0 0-.38-.238c-.191-.078-.522-.097-.644-.278a.546.546 0 0 1 .254-.04zM7.683 181.45c.056.014.11.033.16.058l.274.123a1.12 1.12 0 0 1-.559-.11 1.231 1.231 0 0 1-.179-.074.95.95 0 0 1 .304.003z" opacity=".1"/>
        <path fill="#000" fill-rule="nonzero" d="M7.82 181.569a.352.352 0 0 1 .155 0c.093.06.179.151.252.269.179.252.4.387.628.384a.174.174 0 0 1-.136.04h-.511a.336.336 0 0 1-.168 0 .656.656 0 0 1-.21-.138c-.088-.068-.447-.252-.45-.464-.004-.212.352-.091.44-.091zM19.925 182.254a.77.77 0 0 0 .339 0c.12-.013.236-.113.337-.29.098-.202.077-.417-.047-.43-.118.013-.233.088-.34.221a1.472 1.472 0 0 0-.158.221c-.024.063-.108.284-.131.278zM19.925 182.908c0 .059-.082.091-.143.11a1.694 1.694 0 0 1-.459.094c-.04 0-.15 0-.135-.055.014-.055.178-.038.217-.045.176-.023.35-.058.52-.104zM18.792 182.168a.505.505 0 0 1 .395.114c-.027.07-.08.111-.135.103a.433.433 0 0 1-.155-.058.655.655 0 0 0-.258-.055.467.467 0 0 1-.116 0c-.117-.03-.079-.094 0-.11.09-.006.18-.003.269.006zM11.807 172.813a1.265 1.265 0 0 0-.738-.265.995.995 0 0 1 .738.265zM11.745 171.857c.282.001.559.06.8.171l-.265-.058a3.376 3.376 0 0 0-.54-.084h-.311c-.103 0-.24-.023-.36-.026.21 0 .445-.01.676-.003zM12.426 172.72c.05 0 .11.042.12.11a1.875 1.875 0 0 0-.388-.194c-.073-.033-.299-.169-.35-.075.187.075.403.1.618.159zM13.125 170.34a2.18 2.18 0 0 0 .896-.613.768.768 0 0 1-.33.621c-.2.132-.423.221-.655.261a2.802 2.802 0 0 0-.672.216c-.103.053-.423.378-.526.378-.103 0 .079-.238.125-.276a4.32 4.32 0 0 1 1.162-.586zM19.187 173.45c-.118-.036-1.56.2-1.472-.036.057-.146.524-.09.639-.087.283.006.563.048.833.123z" opacity=".1"/>
        <path fill="#FBBEBE" fill-rule="nonzero" d="M17.71 145.003a2.583 2.583 0 1 1 0 0z"/>
        <path stroke="#FF2615" d="M16.235 146.4s-.817 2.71-.353 3.261c.464.551-3.337.88-3.337.88s1.589-3.238 1.435-4.043c-.154-.804 2.255-.099 2.255-.099z"/>
        <path fill="#000" fill-rule="nonzero" d="M19.922 163.941c.003.061.003.123 0 .184-.046 1.249-2.115 3.77-2.592 3.34-.478-.431-3.721-1.25-3.721-1.25s-.478-.808-.977-.808a2.418 2.418 0 0 1-.825-.227l.096-1.436s7.07-1.299 7.842-.247c.085.135.145.285.177.444z" opacity=".1"/>
        <path fill="#65617D" fill-rule="nonzero" d="M20.476 163.546c-.023.593-.583 1.491-1.202 2.19-.618.698-1.283 1.193-1.535.996a2.461 2.461 0 0 0-.596-.273c-1.136-.403-3.34-.914-3.34-.914s-.504-.768-1.03-.768c-.528 0-1.54-.51-1.54-.51s.099-.14 0-.651c-.098-.511-1.637.279-1.637.279s-.072-3.443.478-5.12c.55-1.675.289-3.807.289-3.807s.396-2.108.825-3.777c.258-1 .53-1.84.736-1.97.554-.35 3.431 0 3.431 0 .555.006 1.109.053 1.657.139.142.054.263.15.347.273l.085.117c.377.643.698 1.315.96 2.009.458 1.07 2.258 5.582 2.258 5.582s-.049.318-.458 1.676c-.41 1.358.321 3.342.272 4.529z"/>
        <path fill="#FBBEBE" fill-rule="nonzero" d="M18.134 165.3l.787.744s.724 2.408-.219 2.194c-.942-.213-1.73-1.537-1.73-1.537l1.162-1.401z"/>
        <path fill="#000" fill-rule="nonzero" d="M19.925 157.182c-1.874-.021-2.358-2.714-2.358-2.714s-.132-2.669-.375-3.166a5.27 5.27 0 0 1-.22-1.5c.347.625.641 1.279.88 1.954.421 1.04 2.073 5.426 2.073 5.426z" opacity=".1"/>
        <path fill="#65617D" fill-rule="nonzero" d="M19.925 157.182c-1.874-.021-2.358-2.714-2.358-2.714s-.132-2.669-.375-3.166a5.27 5.27 0 0 1-.22-1.5c.347.625.641 1.279.88 1.954.421 1.04 2.073 5.426 2.073 5.426z"/>
        <path fill="#000" fill-rule="nonzero" d="M16.94 150.511s-.633-1.594-1.672 0a7.595 7.595 0 0 0-1.067 3.6l-.18 4.394c.167.283.275.592.319.912 0 .319.623 1.275.623 1.275s.152 1.846.734 2.152l.561 1.518s.025 1.004.406 1.403c.225.294.291.666.18 1.01l2.258-.726s-.256.086 0-.542-.152-1.448-.152-1.448-1.448-2.898-1.628-3.319c-.18-.42-.43-.912-.347-1.403.084-.491.021-5.704.153-6.498.131-.794-.187-2.328-.187-2.328z" opacity=".1"/>
        <path fill="#FF6484" fill-rule="nonzero" d="M16.944 150.511s-.634-1.594-1.678 0a7.637 7.637 0 0 0-1.068 3.6l-.177 4.394c.166.284.274.593.319.912 0 .319.62 1.275.62 1.275s.153 1.846.74 2.15l.558 1.52s.027 1.004.409 1.403c.225.294.291.666.18 1.01l2.257-.726s-.253.086 0-.546c.254-.63-.16-1.453-.16-1.453s-1.445-2.899-1.625-3.32c-.18-.42-.43-.911-.347-1.403.083-.49.02-5.704.149-6.5.128-.798-.177-2.316-.177-2.316z"/>
        <path fill="#000" fill-rule="nonzero" d="M17.162 164.448a.567.567 0 0 1 .207.078c.052.032.096.084.147.12a.33.33 0 0 0 .195.065 1.79 1.79 0 0 1-.228 0 .293.293 0 0 1-.14-.023.575.575 0 0 1-.12-.094.702.702 0 0 0-.15-.107c-.04-.02-.085-.026-.1-.078a.96.96 0 0 1 .189.04zM17.997 165.196c.062 0 .122-.02.184-.026.09-.005.179.002.268.02a.54.54 0 0 1-.423.11.17.17 0 0 0-.127 0c-.044.026-.177.246-.188.052-.011-.195.21-.153.286-.156zM16.857 142.525l-.622-.252c.067.012.131.028.192.048.13.04.248.091.348.153l.198.1-.116-.049zM16.973 149.651a.836.836 0 0 1-.282.35.56.56 0 0 1-.248.095.92.92 0 0 1-.37-.038 4.392 4.392 0 0 1-.45-.15 8.084 8.084 0 0 0-.888-.321 1.392 1.392 0 0 0-1.322.276c-.291.3-.36.769-.649 1.07-.388.403-1.021.378-1.566.298l-.129-.02c.248-1.009.508-1.858.705-1.99.53-.352 3.284 0 3.284 0a10.6 10.6 0 0 1 1.586.142c.136.059.25.16.329.288zM12.545 145.02a2.587 2.587 0 0 1 1.595-2.392 2.632 2.632 0 0 1 2.845.534c0 .449-.09.93.037 1.347.159.396.392.758.689 1.066a2.613 2.613 0 0 1-2.832 1.999 2.6 2.6 0 0 1-2.334-2.553z" opacity=".1"/>
        <path fill="#444053" fill-rule="nonzero" d="M16.95 142.552a3.495 3.495 0 0 0-3.984-.436 2.026 2.026 0 0 0-.717.64c-.378.587-.282 1.346-.48 2.01-.197.663-.634 1.16-1.006 1.714-.371.554-.68 1.21-.539 1.858.102.47.434.894.428 1.374a1.078 1.078 0 0 1-1.059 1.013c.488.292 1.04.466 1.611.506.575.08 1.24.105 1.643-.298.303-.301.375-.77.68-1.07a1.516 1.516 0 0 1 1.388-.276c.48.11.924.32 1.404.458.125.038.257.051.388.039.41-.055.657-.5.683-.904.027-.32-.023-.72.22-.96.093-.077.194-.145.3-.203.383-.256.587-.7.529-1.15-.115-.794-.986-1.281-1.23-2.063-.134-.449-.032-.93-.039-1.394-.007-.464-.19-1-.641-1.156"/>
        <path fill="#000" fill-rule="nonzero" d="M18.44 146.97c-.112-.777-.986-1.254-1.23-2.02-.134-.438-.03-.908-.04-1.363a1.43 1.43 0 0 0-.288-.888l.069.047c-.036-.034-.076-.065-.115-.097a.914.914 0 0 0-.188-.144l-.125-.082.066.06-.069-.047c.194.258.296.57.29.887 0 .455-.096.941.039 1.361.233.756 1.118 1.255 1.23 2.023.057.44-.147.874-.53 1.126a1.938 1.938 0 0 0-.3.197c-.242.232-.193.627-.22.94-.032.396-.269.832-.68.885a1.1 1.1 0 0 1-.391-.037c-.477-.12-.924-.342-1.404-.449a1.535 1.535 0 0 0-1.387.27c-.303.291-.378.752-.68 1.047-.408.392-1.072.37-1.644.292a5.243 5.243 0 0 1-1.105-.242.748.748 0 0 1-.145 0c.488.286 1.04.456 1.611.496.575.078 1.24.103 1.644-.292.302-.295.378-.752.68-1.047.385-.308.907-.41 1.388-.27.48.107.927.314 1.403.449.127.037.26.05.392.037.41-.053.657-.489.68-.884.027-.314-.023-.706.22-.94.093-.075.194-.142.3-.198.38-.25.583-.68.529-1.117z" opacity=".1"/>
        <path fill="#FF2615" fill-rule="nonzero" d="M28.753 185.502c.514 1.79-6.4 2.947-14.543 2.618-7.3-.292-13.026-1.695-13.447-3.162-.421-1.467 4.555-2.662 11.769-2.685 8.046 0 15.707 1.44 16.22 3.229z" opacity=".1"/>
    </g>
</svg>
