<svg xmlns="http://www.w3.org/2000/svg" width="352" height="235" viewBox="0 0 352 235">
    <defs>
        <linearGradient id="a" x1=".109%" y1="50.012%" y2="50.012%">
            <stop offset="0%" stop-color="gray" stop-opacity=".25"/>
            <stop offset="54%" stop-color="gray" stop-opacity=".12"/>
            <stop offset="100%" stop-color="gray" stop-opacity=".1"/>
        </linearGradient>
    </defs>
    <g fill="none" fill-rule="evenodd">
        <path fill="#FF2615" fill-rule="nonzero" d="M200.947 45.09c-21.695-.755-42.358-7.759-62.09-15.423-19.73-7.664-39.284-16.156-60.453-20.216-13.62-2.612-29.194-2.981-40.17 4.321-10.559 7.04-13.971 19.16-15.808 30.419-1.378 8.469-2.19 17.38 1.592 25.31 2.625 5.504 7.288 10.131 10.512 15.405 11.217 18.346 3.289 40.97-8.87 58.883-5.698 8.405-12.316 16.428-16.717 25.366-4.401 8.938-6.436 19.194-2.588 28.32 3.818 9.052 12.913 15.838 22.765 20.616 20.006 9.706 43.579 12.482 66.578 14.054 50.893 3.484 102.061 1.975 153.089.466 18.886-.56 37.856-1.126 56.434-4.047 10.315-1.622 20.968-4.194 28.457-10.41 9.507-7.888 11.864-21.249 5.494-31.14-10.686-16.592-40.226-20.712-47.705-38.521-4.113-9.8.11-20.717 6.084-29.809 12.82-19.5 34.303-36.608 35.437-58.896.777-15.312-9.55-30.64-25.52-37.886-16.742-7.59-39.952-6.638-52.295 5.931-12.725 12.942-35.071 17.92-54.226 17.256z" opacity=".1"/>
        <g opacity=".6">
            <path stroke="#535461" stroke-width="2" d="M86.449 83.433s-9.23-16.401-23.127-21.127A28.464 28.464 0 0 1 48.93 51.493a47.968 47.968 0 0 1-4.25-7.67"/>
            <path fill="#FF2615" fill-rule="nonzero" d="M35.924 40.791c1.581 1.543 8.958 3.137 8.958 3.137s-1.81-7.347-3.395-8.89a3.987 3.987 0 0 0-3.9-1.03 4.003 4.003 0 0 0-2.808 2.904 4.017 4.017 0 0 0 1.145 3.88zM40.094 54.097c2.165.431 9.22-2.254 9.22-2.254s-5.5-5.18-7.666-5.611a3.989 3.989 0 0 0-3.783 1.29 4.02 4.02 0 0 0-.777 3.933 4 4 0 0 0 3.006 2.642zM55.287 68.477c2.085-.724 6.826-6.612 6.826-6.612s-7.357-1.685-9.442-.964a4.012 4.012 0 0 0-2.467 5.1 3.993 3.993 0 0 0 5.083 2.476zM69.224 76.77c2.18-.36 7.844-5.362 7.844-5.362s-6.964-2.91-9.143-2.55a4.008 4.008 0 0 0-3.294 4.608 3.998 3.998 0 0 0 4.593 3.304zM55.465 46.093c0 2.217-3.992 8.637-3.992 8.637s-4-6.4-4-8.633a4.002 4.002 0 0 1 3.996-4.009 4.002 4.002 0 0 1 3.996 4.009v-.004zM71.645 55.997c-.671 2.115-6.38 7.043-6.38 7.043s-1.9-7.326-1.242-9.431a3.994 3.994 0 0 1 5.008-2.63 4.012 4.012 0 0 1 2.621 5.025l-.007-.007zM86.053 67.786c-.292 2.197-5.107 8.028-5.107 8.028s-3.11-6.9-2.814-9.095a3.998 3.998 0 0 1 4.493-3.44 4.007 4.007 0 0 1 3.428 4.507z"/>
            <path fill="#000" fill-rule="nonzero" d="M35.924 40.791c1.581 1.543 8.958 3.137 8.958 3.137s-1.81-7.347-3.395-8.89a3.987 3.987 0 0 0-3.9-1.03 4.003 4.003 0 0 0-2.808 2.904 4.017 4.017 0 0 0 1.145 3.88zM40.094 54.097c2.165.431 9.22-2.254 9.22-2.254s-5.5-5.18-7.666-5.611a3.989 3.989 0 0 0-3.783 1.29 4.02 4.02 0 0 0-.777 3.933 4 4 0 0 0 3.006 2.642zM55.287 68.477c2.085-.724 6.826-6.612 6.826-6.612s-7.357-1.685-9.442-.964a4.012 4.012 0 0 0-2.467 5.1 3.993 3.993 0 0 0 5.083 2.476zM69.224 76.77c2.18-.36 7.844-5.362 7.844-5.362s-6.964-2.91-9.143-2.55a4.008 4.008 0 0 0-3.294 4.608 3.998 3.998 0 0 0 4.593 3.304zM55.465 46.093c0 2.217-3.992 8.637-3.992 8.637s-4-6.4-4-8.633a4.002 4.002 0 0 1 3.996-4.009 4.002 4.002 0 0 1 3.996 4.009v-.004zM71.645 55.997c-.671 2.115-6.38 7.043-6.38 7.043s-1.9-7.326-1.242-9.431a3.994 3.994 0 0 1 5.008-2.63 4.012 4.012 0 0 1 2.621 5.025l-.007-.007zM86.053 67.786c-.292 2.197-5.107 8.028-5.107 8.028s-3.11-6.9-2.814-9.095a3.998 3.998 0 0 1 4.493-3.44 4.007 4.007 0 0 1 3.428 4.507z" opacity=".25"/>
            <path stroke="#535461" stroke-width="2" d="M85.918 83.11s-1.813-18.75-12.61-28.72a28.575 28.575 0 0 1-8.804-15.74c-.533-2.884-.8-5.81-.8-8.742"/>
            <path fill="#FF2615" fill-rule="nonzero" d="M56.949 23.582c.826 2.055 6.923 6.511 6.923 6.511s1.317-7.454.49-9.509a3.99 3.99 0 1 0-6.854-.972 4.02 4.02 0 0 0-.559 3.97zM55.394 37.436c1.803 1.274 9.338 1.685 9.338 1.685s-2.935-6.973-4.741-8.246a3.988 3.988 0 0 0-5.567.973 4.017 4.017 0 0 0 .97 5.585v.003zM63.47 56.768c2.199.185 8.914-3.274 8.914-3.274s-6.044-4.53-8.243-4.716a4 4 0 0 0-4.318 3.658 4.005 4.005 0 0 0 3.646 4.332zM72.864 70.013c2.139.556 9.338-1.715 9.338-1.715s-5.195-5.49-7.33-6.063a3.986 3.986 0 0 0-3.999.96 4.017 4.017 0 0 0-1.037 3.99 4 4 0 0 0 3.021 2.798l.007.03zM72.676 36.375c-.893 2.021-7.138 6.273-7.138 6.273s-1.065-7.492-.171-9.516a3.991 3.991 0 0 1 5.271-2.045 4.014 4.014 0 0 1 2.038 5.288zM83.467 52.009c-1.457 1.66-8.682 3.84-8.682 3.84s1.218-7.468 2.686-9.132a3.988 3.988 0 0 1 5.64-.368 4.019 4.019 0 0 1 .366 5.66h-.01zM91.875 68.642c-1.155 1.886-7.907 5.262-7.907 5.262s-.057-7.57 1.098-9.46a3.988 3.988 0 0 1 5.496-1.316 4.016 4.016 0 0 1 1.313 5.514z"/>
        </g>
        <path fill="#FFF" fill-rule="nonzero" stroke="#33313F" stroke-width="3" d="M49.807 55.74s48.143 1.998 54.693 0c0 0-3.603 81.902-2.293 84.565 0 0-53.382 2.997-57.312 0-3.93-2.996 4.912-84.564 4.912-84.564zM56.515 71.741s22.018 35.455 29.465 38.737M85.98 71.741S64.82 99.996 61.566 109.636"/>
        <path fill="#FFF" fill-rule="nonzero" stroke="#33313F" stroke-width="3" d="M85.138 124.795H58.536c-2.02 0-2.02 9.263-2.02 9.263h28.622v-9.263zM142.36 55.101s46.93-2.35 55.584 0c0 0-3.661 82.59-2.33 85.276 0 0-59.964 4.73-58.246 0 3.661-10.072 4.992-85.276 4.992-85.276zM159.22 62.478s10.692 16.958 14.31 18.526M174.372 62.478S164.16 75.034 162.587 79.32"/>
        <path fill="#FFF" fill-rule="nonzero" stroke="#33313F" stroke-width="3" d="M186.158 91.11h-35.224c-2.658 0-2.658 9.263-2.658 9.263h37.882V91.11zM181.949 121.426h-26.602c-2.02 0-2.02 9.263-2.02 9.263h28.622v-9.263zM186.85 104.736c2.725 0-32.693 2.928-35.867 0-1.672-1.54-2.707 9.111-2.707 9.111h38.575v-9.111z"/>
        <path fill="#FFF" fill-rule="nonzero" stroke="#33313F" stroke-width="3" d="M163.429 126.142l2.08 2.021 3.812-5.053M231.7 56.583s46.509 5.646 55.479 0c0 0-3.655 81.702-2.326 84.36 0 0-61.724 3.457-58.136 0 8.97-8.636 4.983-84.36 4.983-84.36zM238.352 70.899s6.918 10.779 9.26 11.79M247.612 71.741s-6.577 8.806-7.576 11.79"/>
        <path fill="#FFF" fill-rule="nonzero" stroke="#33313F" stroke-width="3" d="M276.235 92.794H241.01c-2.658 0-2.658 5.053-2.658 5.053h37.883v-5.053zM257.714 107.952h18.313c2.654 0 2.654 5.053 2.654 5.053h.08M277.77 99.614c2.723 0-32.695 1.597-35.87 0-1.67-.84-2.706 4.97-2.706 4.97h38.575v-4.97zM231.617 62.478s52.205 4.483 55.562 1.505"/>
        <path fill="#FFF" fill-rule="nonzero" stroke="#33313F" stroke-width="2" d="M280.444 60.373c.708-.275 1.436.116 2.155.318.718.202 1.533.177 2.054-.74M280.444 62.333a16.45 16.45 0 0 0 4.21.25M279.602 64.162a21.808 21.808 0 0 1 4.21-.842M235.157 61.211a5.071 5.071 0 0 0 2.169.407c.47.06.95-.036 1.351-.272.474-.357.513-1.01.513-1.579a1.11 1.11 0 0 0-.08-.508 1.045 1.045 0 0 0-.386-.377c-.892-.578-2.551-.814-3.596-.42-1.43.538-1.2 2.126.03 2.749z"/>
        <path fill="#FFF" fill-rule="nonzero" stroke="#33313F" stroke-width="3" d="M249.55 69.215c-.195 2.32.401 4.625.802 6.923.506 2.902.707 5.842.6 8.78-5.316.301-10.638.373-15.967.216.495.016.37-10.485.417-11.451.061-1.235-.222-3.361 1.318-3.826 1.616-.492 3.894-.188 5.591-.263 2.412-.104 4.825-.23 7.24-.38z"/>
        <path stroke="#33313F" stroke-width="3" d="M112.077 95.47s13.56-.67 15.994 0M128.11 87.741s5.854 5.874 5.854 7.255c0 1.382-7.576 6.22-7.576 6.22M203.837 95.47s13.56-.67 15.995 0"/>
        <path stroke="#33313F" stroke-width="3" d="M218.186 87.741s5.855 5.874 5.855 7.255c0 1.382-7.577 6.22-7.577 6.22"/>
        <ellipse cx="125.546" cy="7.74" fill="#FF2615" fill-rule="nonzero" opacity=".1" rx="7.577" ry="7.579"/>
        <ellipse cx="236.668" cy="17.845" fill="#FF2615" fill-rule="nonzero" opacity=".1" rx="7.577" ry="7.579"/>
        <ellipse cx="314.117" cy="125.637" fill="#FF2615" fill-rule="nonzero" opacity=".1" rx="7.577" ry="7.579"/>
        <ellipse cx="339.793" cy="93.215" fill="#FF2615" fill-rule="nonzero" opacity=".1" rx="12.207" ry="12.211"/>
        <ellipse cx="323.798" cy="152.163" fill="#FF2615" fill-rule="nonzero" opacity=".1" rx="12.207" ry="12.211"/>
        <ellipse cx="12.319" cy="114.268" fill="#FF2615" fill-rule="nonzero" opacity=".1" rx="12.207" ry="12.211"/>
        <path fill="url(#a)" fill-rule="nonzero" d="M290.972 130.415a6.121 6.121 0 0 0-.15-1.21c-.306-1.135-.983-2.512-2.106-2.856a17.667 17.667 0 0 1-3.33-1.415c-.204-3.61.624-7.306-.278-10.806-.335-1.28-.885-2.506-1.036-3.82-.184-1.627.262-3.368-.385-4.87-.51-1.183-1.63-2.022-2.837-2.46-1.207-.438-2.5-.552-3.778-.674-1.61-.134-6.82-.754-8.633.694-.126.097-.239.21-.335.337a1.183 1.183 0 0 0-.111.175.118.118 0 0 1 0 .027 2.135 2.135 0 0 0-.09.22 1.272 1.272 0 0 0-.054.248.643.643 0 0 0 0 .085 1.55 1.55 0 0 0 0 .178V104.615c.023.3.07.607.07.906.004.15-.01.299-.04.445a3.131 3.131 0 0 1-.557 1.088l-.06.088-.11.161-.088.138-.074.122c-.033.057-.06.114-.09.175l-.05.094c-.04.093-.074.189-.1.287-.073.293-.073.599 0 .892.09.378.244.738.455 1.065.084.138.178.272.272.407.093.135.154.212.234.317-.046.313-.071.63-.073.946 0 2.137.978 4.156 2.651 5.474a20.983 20.983 0 0 1-.043 4.275c-.034.3-.067.596-.107.893-.04.296-.074.495-.111.74-.492.07-.993.031-1.468-.114a6.823 6.823 0 0 0-.671-.26c-.979-.242-1.975.735-2.937.439 0 .044-.03.087-.044.135a1.336 1.336 0 0 0-.67-.2c-.57-.026-1.04-.444-1.455-.838l-1.274-1.21a1.295 1.295 0 0 1-.221-.249c-.07-.13-.122-.27-.155-.414a4.787 4.787 0 0 0-1.237-1.782.838.838 0 0 0-.369-.266.45.45 0 0 0-.164 0c-.037-.047-.07-.094-.11-.138a4.415 4.415 0 0 0-.282-.28c-.607-.566-.67-1.05-1.2-1.684-.462-.603-.88-1.24-1.25-1.903a19.27 19.27 0 0 0-.182-1.085 13.887 13.887 0 0 0-.73-2.456l.458-.505v-.502l.818-.96-.057-.05 1.006-.95-1.006-.037-.469.653-.037-.033-.838.842-.587.067-.077.08c-.486-.727-1.006-1.124-1.468-1.03-.781.162-1.17 1.684-1.046 3.675l-2.324 2.442-.261.277-1.2 1.546.942.91 1.445-1.348.231-.253 1.438-1.566c0 .05.024.1.034.151-.046.24-.071.484-.074.728 0 .286.265.492.399.748.223.34.34.74.335 1.149 0 .141-.06.28-.063.424.016.315.124.619.311.872.561.944 1.12 1.887 1.677 2.83.114.199.234.398.335.593v.03c.106.206.26.383.45.516.065.71.252 1.402.552 2.048.06.124.125.249.192.37.45.743.979 1.435 1.579 2.062l.801.9c.784.885 1.572 1.768 2.427 2.586.307.327.678.586 1.09.762.407.166.873.1 1.217-.176v1.25c.24.042.452.18.587.384a.863.863 0 0 1-.057.728c-.701 1.815-1.412 3.644-2.481 5.275.753.446 1.45.98 2.078 1.59.41.454.774.948 1.087 1.475.026.246.05.495.067.741.248 4.016-1.298 8-2.682 11.827-.396 1.082-.835 2.22-.798 3.345a6.918 6.918 0 0 0-.755.546c.275.718.168 1.347.141 2.132-.011.463-.107.92-.282 1.348-.13.3-.335.58-.479.865-.868 1.54-1.063 3.369-1.237 5.124-.104 1.064.308 2.358-.174 3.308-.825 1.634-1.56 3.368-1.694 5.18a5.434 5.434 0 0 1-.15 1.213c-.104.337-.292.624-.386.954a4.081 4.081 0 0 0-.064 1.347 12.934 12.934 0 0 1-.707 4.753c-.42 1.206-.879 2.493-.55 3.73a5.242 5.242 0 0 0-1.418 3.125c-.01.3-.047.6-.11.893-.103.3-.236.59-.4.862a7.575 7.575 0 0 0-.915 4.042c-1.006 1.368-1.505 3.063-1.804 4.743-.298 1.681-.432 3.393-.814 5.053-.507 2.2-1.429 4.42-1.613 6.667-1.086.7-1.552 2.051-1.764 3.328-.21 1.276-.241 2.614-.77 3.796-.276.613-.671 1.162-.933 1.785a8.068 8.068 0 0 0-.405 1.54c-.161.825-.302 1.738-.101 2.526a3.787 3.787 0 0 1-.982.755c.05-.209.097-.421.13-.633-.865.791-2.43.515-3.124 1.462a1.433 1.433 0 0 0 .335 1.95c.217.132.452.233.697.3 1.66.535 3.4 1.081 5.12.795.204-.024.4-.088.58-.189.226-.164.41-.378.54-.626l.774-1.233c.618.186 1.246.334 1.881.444.063.537.106 1.076.13 1.617.336.068.785.084.943-.226a.829.829 0 0 0 .06-.373c0-.243.03-.56.054-.883h.067a6.344 6.344 0 0 0 2.967-.606c-.362-2.982.821-5.899 1.85-8.722 1.084-2.97 2.012-5.999 2.944-9.024.67-2.125 1.415-4.19 2.069-6.32.831-2.694 1.662-5.389 2.49-8.084a86.785 86.785 0 0 1 1.148-3.537 55.52 55.52 0 0 1 3.104-6.953c.335-.633.67-1.263.949-1.926.335-.805.573-1.648.838-2.476a38.838 38.838 0 0 1 2.109-4.982l.06-.125c.272 1.115.547 2.25.724 3.369.247 1.375.266 2.782.057 4.163-.16.94-.466 1.87-.425 2.82.05 1.32.747 2.513 1.093 3.786.222.95.349 1.92.379 2.897.09 1.512.911 3.213.335 4.618-1.79 4.45-.922 9.476-1.948 14.148-.523 2.398-2.136 4.655-2.012 7.108.09 1.74.242 3.476.456 5.208.038.528.161 1.047.366 1.536.137.26.29.51.459.75-.144.061-.272.213-.376.533a2.026 2.026 0 0 0 .745 2.358c.302.163.628.277.965.337a5.23 5.23 0 0 0 1.402.195 2.75 2.75 0 0 0 .439-.057c.519.22 1.05.41 1.59.573 0 .139.013.277.04.414 0 .147.065.287.177.38a.48.48 0 0 0 .268.051h1.82v-.458a1.48 1.48 0 0 0 1.157-.38c.164-.204.278-.443.336-.698.496-1.693.99-3.385 1.482-5.076.226-.715.4-1.446.52-2.187.21-1.19.277-2.403.197-3.61-.644-6.209.778-12.437.315-18.662-.28-3.74-.088-7.502.57-11.194.151-.836.335-1.684.403-2.516.144-1.57-.034-3.157.073-4.716.04-.546.114-1.088.181-1.63.481-3.367.743-6.76.785-10.16a31.186 31.186 0 0 0-.205-3.369c.347-.093.663-.28.912-.539.302-.394.225-.94.222-1.438 0-1.193.5-2.321.898-3.446.515-1.546.94-3.12 1.27-4.716.347-1.292.536-2.621.564-3.958 0-.135 0-.27-.02-.408.126-.087.23-.203.305-.337a1.9 1.9 0 0 0 .16-.623c.125-.862.246-1.721.37-2.584a6674.318 6674.318 0 0 0 1.328-9.324c.093-.65.184-1.297.278-1.947l.275-1.93c.033-.23.063-.458.09-.69.831-1.331.047-3.167-.037-4.73zm-8.881 27.986c-.4-.94-.768-1.907-.67-2.927h-.034a1.533 1.533 0 0 0-.047-.95c-.104-.25-.282-.458-.392-.7a2.58 2.58 0 0 1-.181-.948 25.98 25.98 0 0 1 .476-6.107c.043-.239.09-.475.137-.714.14-.081.266-.18.379-.296a2.76 2.76 0 0 0 .432-.674c.378-.764.727-1.542 1.047-2.334.103-.26.254-.553.512-.617-.053 1.97.148 3.982-.67 5.76a3.595 3.595 0 0 0-.335.91c-.074.498.134 1.01.06 1.509-.037.256-.147.499-.194.751a.743.743 0 0 0 .197.714c.043.033.09.06.141.078a5.75 5.75 0 0 0-.047.404c-.03.276-.04.536-.057.697-.078.823-.11 1.65-.094 2.476 0 .893.037 1.789.02 2.695.014.261-.03.522-.127.765a1.31 1.31 0 0 1-.255.337c-.094-.3-.2-.566-.298-.83z"/>
        <path fill="#33313F" fill-rule="nonzero" d="M256.476 110.478l1.238-1.627-1.105-.057-.578 1.248z"/>
        <path fill="#65617D" fill-rule="nonzero" d="M248.454 116.347l1.215-1.477.27-.265 3.719-3.685 1.266-1.257.594-.064.853-.805.501.417-.829.917.017.482-1.296 1.33-3.652 3.75-.235.24-1.467 1.285z"/>
        <path fill="#33313F" fill-rule="nonzero" d="M249.296 114.382l3.894-3.904 1.157 1.082-3.822 3.971z"/>
        <ellipse cx="254.089" cy="113.819" fill="#FBBEBE" fill-rule="nonzero" rx="1.887" ry="5.346" transform="rotate(-11.58 254.09 113.819)"/>
        <path fill="#3F3D56" fill-rule="nonzero" d="M271.302 226.528c-.307.888-.002 1.88.744 2.42.304.169.63.286.97.35.455.132.926.2 1.4.202.585-.031 1.144-.265 1.723-.349a.274.274 0 0 1 .198.031.31.31 0 0 1 .078.241c.006.344.03.688.074 1.03a.403.403 0 0 0 .113.338.372.372 0 0 0 .331.104h1.821a18.768 18.768 0 0 0-.528-4.932 1.094 1.094 0 0 0-.135-.349 1.066 1.066 0 0 0-.579-.349 3.17 3.17 0 0 0-1.414-.254c-.585.076-1.08.474-1.582.802-.501.328-1.184.617-1.794.446-.609-.17-1.11-.7-1.42.269z"/>
        <path fill="#FBBEBE" fill-rule="nonzero" d="M243.872 224.868a4.787 4.787 0 0 1-1.753 1.265l-.298.154a.163.163 0 0 0-.097.085.193.193 0 0 0 .03.153c.506.828 1.467 1.2 2.355.911.192-.05.37-.149.52-.286.244-.31.383-.698.398-1.102a2.44 2.44 0 0 0-.048-1.255c-.437-1.07-.6-.587-1.107.075z"/>
        <path fill="#3F3D56" fill-rule="nonzero" d="M250.897 230.165a.924.924 0 0 1-.063.415c-.16.344-.62.321-.975.25a26.89 26.89 0 0 0-.424-3.777c-.676-.034-1.166.657-1.525 1.27l-.933 1.592c-.135.273-.327.51-.56.691a1.543 1.543 0 0 1-.599.21c-1.782.313-3.582-.288-5.301-.882a2.777 2.777 0 0 1-.72-.33c-.64-.5-.794-1.456-.349-2.159.717-1.046 2.34-.747 3.234-1.614a8.961 8.961 0 0 1-.46 1.782c1.205-.194 2.009-1.375 2.98-2.163.241-.225.535-.376.85-.437.234-.02.47.008.696.082 1.116.3 2.16.852 3.063 1.618.365.31.936.747 1.096 1.225.17.572-.014 1.618-.01 2.227z"/>
        <ellipse cx="274.13" cy="111.742" fill="#FBBEBE" fill-rule="nonzero" rx="7.156" ry="7.158"/>
        <path fill="#3F3D56" fill-rule="nonzero" d="M287.179 153.8a15.585 15.585 0 0 1-.528 3.709 38.327 38.327 0 0 1-1.185 4.434c-.373 1.055-.845 2.113-.842 3.23 0 .466.076.98-.204 1.35-.254.257-.572.44-.92.53-.351.093-.637.35-.77.69a4.865 4.865 0 0 1-.657-1.448c-.56-1.74-1.085-3.49-1.57-5.248a.686.686 0 0 1 .04-.634.746.746 0 0 1 .277-.155c.321-.134.615-.326.867-.567a1.29 1.29 0 0 0 .292-.374c.092-.228.132-.473.12-.719 0-.836 0-1.675-.02-2.511-.014-.775.015-1.55.086-2.322 0-.155.028-.396.053-.656.047-.5.141-1.074.411-1.267.396-.272 1.59.092 2.046.152.779.111 1.555.238 2.328.387.11.465.17.94.176 1.419zM260.22 118.908c-.267.521-.908.769-1.403 1.101l-1.694 1.134c-.229.2-.53.3-.835.28a1.092 1.092 0 0 1-.625-.57l-.02-.029-.335-.57-1.67-2.731a1.56 1.56 0 0 1-.311-.844c0-.137.05-.27.067-.408a1.981 1.981 0 0 0-.334-1.108c-.134-.247-.405-.446-.395-.72-.014-.36.05-.72.187-1.056.175-.308.426-.57.729-.762.157-.111.334-.215.484-.326a.978.978 0 0 1 .294-.127c.274-.056.548.166.83.176 1.209.788 1.67 2.28 2.622 3.36.535.609.588 1.078 1.193 1.629.098.084.191.175.278.27.122.126.224.269.304.424.107.277.775.61.635.877z"/>
        <path fill="#FBBEBE" fill-rule="nonzero" d="M271.857 118.95c.512 1.06.91 2.224.763 3.389-.03.315-.13.62-.295.892-.495.743-1.533.875-2.44.922a1.46 1.46 0 0 0-1.055.336.92.92 0 0 0 .065 1.151c.288.306.65.538 1.051.673 1.43.62 2.97 1.128 4.526.983.722-.067 1.423-.27 2.141-.374.779-.08 1.561-.12 2.344-.117.935-.034 1.866-.125 2.798-.216l2.464-.239a.55.55 0 0 0 .367-.13c.186-.21-.051-.516-.275-.674-1.312-.952-2.98-1.602-3.721-3.029-.344-.673-.454-1.47-.708-2.2-.255-.731-.66-1.38-.815-2.125a13.708 13.708 0 0 1-.113-1.955c.01-.66-.235-1.3-.688-1.79-.488-.448-1.199-.562-1.87-.593-1.642-.067-3.388.317-4.556 1.45-.313.307-.577.657-.904.95-.326.293-.76.357-.546.72.213.364.629.586.855.909.234.339.438.695.612 1.067z"/>
        <path fill="#3F3D56" fill-rule="nonzero" d="M285.337 128.32a38.938 38.938 0 0 1-1.987 7.523 28.213 28.213 0 0 0-1.176 3.375c-.255 1.036-.203 2.144-.438 3.183a92.148 92.148 0 0 0-.807 3.89 26.024 26.024 0 0 0-.464 6.037c0 .32.06.637.176.935.108.24.285.447.383.69.157.439.125.924-.089 1.336a3.919 3.919 0 0 1-.673 1.045c-3.048.929-6.303.622-9.475.819-2.941.183-5.882.798-8.764.283-.327-1.335.216-2.731.686-4.033 1.353-3.783 2.856-7.723 2.614-11.687-.026-.461-.079-.92-.157-1.376-.47-2.808.043-5.716.87-8.44.516-1.694.493-3.504.372-5.27a9.795 9.795 0 0 1-.023-1.723c.05-.586.263-1.146.614-1.613l.05-.07c.035-.056.143-.023.241 0a.208.208 0 0 0 .164 0 .075.075 0 0 1 .036-.023.09.09 0 0 1 .094 0c.076.05.115.207.278.237a6.4 6.4 0 0 0 .729.073c.293.01.585.052.869.127h.04c.424.072.86.034 1.267-.11.27-.07.532-.172.778-.307.2-.083.405-.153.614-.21.3-.187.235-1.049.297-1.4.033-.354.115-.703.242-1.035.301-.498.826-.81 1.399-.831a6.966 6.966 0 0 1 1.679.154c1.216.177 2.464.143 3.663.43.601.144 1.255.364 1.81.084.147.033.17.17.17.334-.011.156-.042.31-.091.457-.206.922.503 1.767 1.153 2.438.282.315.613.58.98.784.327.154.654.217.98.384.266.143.492.353.654.611.19.294.317.625.372.972a5.91 5.91 0 0 1-.13 1.927z"/>
        <path fill="#000" fill-rule="nonzero" d="M285.363 129.05a37.819 37.819 0 0 1-2.042 7.492 27.514 27.514 0 0 0-1.209 3.362c-.262 1.03-.208 2.134-.45 3.169-.295 1.283-.59 2.577-.83 3.873a5.242 5.242 0 0 1-1.531.529 8.27 8.27 0 0 1-2.46-.08l-4.803-.621c-1.914-.253-3.953-.562-5.373-1.846-.786-.705-1.306-1.636-1.87-2.537-.028-.46-.082-.917-.162-1.37-.483-2.797.044-5.693.894-8.406.53-1.686.507-3.489.382-5.248a9.454 9.454 0 0 1-.023-1.715c.05-.585.27-1.142.631-1.607.098-.029.198-.052.3-.07a1.43 1.43 0 0 1 .204-.023h.097c.113 0 .226.014.336.04.225.057.433.177.655.256h.04c.289.092.59.135.894.127.443 0 .9-.073 1.343-.1a2.493 2.493 0 0 1 1.592.28c.312.248.609.517.886.804.339.259.718.462 1.122.602a11.97 11.97 0 0 0 8.936-.19 1.8 1.8 0 0 1 .896-.222c.233.044.453.136.648.269.199.116.4.23.601.332.196.292.327.622.383.968a5.707 5.707 0 0 1-.087 1.932z" opacity=".1"/>
        <path fill="#FF2615" fill-rule="nonzero" d="M288.712 126.661a17.817 17.817 0 0 1-3.834-1.66 1.716 1.716 0 0 0-.65-.272 1.78 1.78 0 0 0-.899.226 12.06 12.06 0 0 1-8.957.186 3.932 3.932 0 0 1-1.124-.601 9.565 9.565 0 0 0-.886-.803c-1.107-.708-2.639.126-3.881-.332a6.87 6.87 0 0 0-.656-.256c-.98-.24-1.976.72-2.943.431-.36.96-.623 1.952-.787 2.962a31.79 31.79 0 0 0-.22 3.492c-.02.697-.036 1.398 0 2.098.242.042.454.178.59.379a.833.833 0 0 1-.057.71c-.704 1.786-1.414 3.586-2.485 5.186.754.439 1.453.965 2.08 1.567 1.182 1.228 1.758 2.948 3.03 4.083 1.434 1.281 3.481 1.59 5.386 1.846l4.807.65c.814.15 1.646.176 2.468.08a5.27 5.27 0 0 0 1.32-.422 2.36 2.36 0 0 0 .733-.478c.177-.199.323-.423.435-.664.377-.75.727-1.517 1.043-2.293.115-.276.283-.601.586-.621 1.78-1.587 3.467-3.214 5.248-4.8a11.532 11.532 0 0 0 1.915-1.993c.889-1.291.081-3.123 0-4.68a5.658 5.658 0 0 0-.148-1.189c-.313-1.139-.993-2.493-2.114-2.832z"/>
        <path fill="#000" fill-rule="nonzero" d="M259.377 119.535c-.295.566-1.003.835-1.548 1.195l-1.869 1.231a1.294 1.294 0 0 1-.92.305 1.197 1.197 0 0 1-.69-.62v-.254a2.264 2.264 0 0 1 .118-.846c.184-.399.467-.749.825-1.018a6.744 6.744 0 0 1 2.422-1.415.842.842 0 0 1 .446-.043c.056.015.11.037.158.067.135.137.248.292.335.46.14.287.877.648.723.938z" opacity=".1"/>
        <path fill="#FF2615" fill-rule="nonzero" d="M264.163 123.704c-.567-.027-1.031-.449-1.442-.846l-1.269-1.217a1.217 1.217 0 0 1-.22-.252 1.809 1.809 0 0 1-.15-.415c-.271-.685-.691-1.299-1.23-1.794a.865.865 0 0 0-.366-.269.72.72 0 0 0-.404.044 6.042 6.042 0 0 0-2.194 1.36 2.506 2.506 0 0 0-.748.979c-.084.262-.12.537-.107.812.007.903.207 1.794.585 2.611.06.126.12.252.187.374a12.19 12.19 0 0 0 1.569 2.073l.794.908c.782.887 1.563 1.778 2.414 2.6.303.33.67.592 1.079.769.42.174.9.094 1.242-.208.161-.187.282-.407.354-.645.517-1.36 1.002-2.77 1.032-4.236.01-.587-.014-1.173-.07-1.757-.057-.622-.485-.864-1.056-.891z"/>
        <path fill="#33313F" fill-rule="nonzero" d="M283.811 170.349a76.982 76.982 0 0 1-.702 9.967c-.066.53-.139 1.064-.175 1.601-.109 1.545.066 3.103-.076 4.641-.079.829-.247 1.657-.396 2.47a43.949 43.949 0 0 0-.557 10.985c.452 6.109-.94 12.221-.31 18.314a14.856 14.856 0 0 1-.191 3.543c-.12.726-.29 1.443-.511 2.145-.486 1.662-.97 3.32-1.451 4.972-.058.25-.17.485-.33.686-.339.298-.79.434-1.237.371-1.902-.063-3.69-.885-5.418-1.693a1.772 1.772 0 0 1-.544-.332c-.36-.374-.33-.968-.488-1.458-.158-.491-.59-.958-.834-1.469a4.97 4.97 0 0 1-.36-1.505c-.22-1.7-.369-3.403-.448-5.111-.122-2.407 1.458-4.62 1.979-6.961 1.005-4.601.155-9.533 1.912-13.902.551-1.376-.25-3.047-.33-4.532a14.174 14.174 0 0 0-.369-2.844c-.33-1.25-1.022-2.42-1.072-3.712-.04-.935.261-1.846.42-2.771a12.66 12.66 0 0 0-.057-4.084c-.175-1.114-.445-2.228-.712-3.315l-.06.123a37.562 37.562 0 0 0-2.067 4.89c-.26.811-.495 1.637-.824 2.429-.27.663-.6 1.266-.927 1.89a54.08 54.08 0 0 0-3.047 6.821c-.409 1.147-.765 2.32-1.125 3.47-.81 2.652-1.624 5.304-2.44 7.956-.643 2.092-1.385 4.114-2.028 6.202-.913 2.983-1.827 5.94-2.889 8.854-1.009 2.77-2.17 5.635-1.817 8.562a6.238 6.238 0 0 1-2.908.593c-1.7-.152-3.367-.56-4.947-1.21a3.788 3.788 0 0 1-1.704-1.02c-.736-.9-.551-2.215-.33-3.355a7.845 7.845 0 0 1 .399-1.512c.247-.613.643-1.153.913-1.753.521-1.16.554-2.47.759-3.726.204-1.256.66-2.579 1.728-3.265.178-2.205 1.085-4.386 1.582-6.54.376-1.634.502-3.315.795-4.972.294-1.658.778-3.315 1.774-4.641a7.423 7.423 0 0 1 .894-3.978 4.27 4.27 0 0 0 .392-.845c.063-.288.1-.58.11-.875a5.163 5.163 0 0 1 1.388-3.07c-.33-1.213.131-2.472.54-3.646.522-1.497.757-3.08.693-4.664-.05-.442-.028-.89.066-1.326.092-.331.274-.613.376-.934.097-.39.147-.79.148-1.19.132-1.79.85-3.48 1.649-5.082.472-.935.07-2.204.171-3.248.172-1.73.36-3.517 1.21-5.029.174-.275.331-.56.472-.852.174-.42.266-.87.274-1.326.03-.756.135-1.389-.135-2.091 1.764-1.479 4.175-1.89 6.466-1.973 2.292-.083 4.617.11 6.863-.384.66-.146 1.319-.355 2.015-.454 1.583-.232 3.182.132 4.742.49-.11.995.254 1.95.643 2.874a30.988 30.988 0 0 1 2.443 11.8z"/>
        <path fill="#000" fill-rule="nonzero" d="M277.077 171.111l-4.196 8.421c-.194-1.095-.494-2.19-.79-3.259l-.065.12.018-.175 2.288-4.491 2.745-.616zM288.02 153.134c-.249.166-.543.267-.85.29a4.608 4.608 0 0 1-1.399-.174l-3.338-.777a1.498 1.498 0 0 1-.305-.096c.055-.54.167-1.16.488-1.369.47-.294 1.887.1 2.428.164.925.12 1.846.257 2.764.418a6.42 6.42 0 0 1 .212 1.544z" opacity=".1"/>
        <path fill="#FF2615" fill-rule="nonzero" d="M290.284 133.452c.067.28.158.558.208.842.09.695.067 1.4-.067 2.088l-.275 1.933-.275 1.947-1.063 7.479-.264 1.851-.366 2.586a1.98 1.98 0 0 1-.16.621c-.226.373-.62.608-1.053.626a3.787 3.787 0 0 1-1.254-.173l-3-.763a.945.945 0 0 1-.366-.152.74.74 0 0 1-.198-.714c.044-.256.154-.496.194-.753.074-.5-.137-1.014-.06-1.51.07-.32.182-.626.335-.913 1.006-2.24.423-4.853.765-7.286a11.074 11.074 0 0 1 2.293-5.221 14.64 14.64 0 0 1 2.564-2.538c.38-.294.976-.903 1.445-1.014.627-.129.5.639.597 1.064z"/>
        <path fill="#33313F" fill-rule="nonzero" d="M267.493 104.59c-.215.697.121 1.466-.032 2.182-.17.786-.891 1.332-1.097 2.121-.326 1.202.673 2.298 1.4 3.297 2.708 3.706 2.353 8.841 1.426 13.37a69.74 69.74 0 0 1-3.083 10.656c-.405 1.072-.859 2.168-1.658 2.974 1.501-.44 3.093-.883 4.6-.456 1.906.54 3.551 2.427 5.48 1.998 1.164-.267 1.977-1.332 3.024-1.898 1.958-1.076 4.314-.4 6.5-.057.47.116.963.091 1.42-.073.348-.191.644-.468.861-.806a8.314 8.314 0 0 0 1.674-4.43 5.727 5.727 0 0 0-1.602-4.371c-.46-.447-1.015-.806-1.37-1.332a4.147 4.147 0 0 1-.54-2.019c-.26-3.663.614-7.399-.283-10.942-.326-1.262-.861-2.471-1.005-3.766-.18-1.605.251-3.33-.375-4.802-.496-1.166-1.583-1.998-2.75-2.421a13.524 13.524 0 0 0-3.669-.666c-1.788-.16-8.173-.94-8.92 1.442z"/>
        <g fill="#000" fill-rule="nonzero" opacity=".1">
            <path d="M269.229 125.537a68.997 68.997 0 0 1-3.078 10.543c.226-.453.42-.93.6-1.402a68.806 68.806 0 0 0 3.093-10.587c.93-4.496 1.287-9.594-1.43-13.283-.655-.877-1.497-1.83-1.464-2.865a3.479 3.479 0 0 0-.556 1.042c-.328 1.195.674 2.283 1.404 3.275 2.72 3.676 2.364 8.777 1.43 13.277zM267.536 106.534c.261-.331.457-.71.576-1.115a5.73 5.73 0 0 0-.039-1.476 1.594 1.594 0 0 0-.543.761c-.184.586.03 1.228.006 1.83zM287.048 136.335a2.413 2.413 0 0 1-.867.804c-.457.163-.95.189-1.421.073-2.194-.331-4.584-1.016-6.522.056-1.05.576-1.87 1.621-3.035 1.883-1.938.436-3.6-1.436-5.5-1.985-1.352-.38-2.779-.067-4.147.33a5.788 5.788 0 0 1-1.08 1.585c1.505-.437 3.103-.877 4.615-.453 1.912.536 3.562 2.412 5.497 1.985 1.165-.265 1.984-1.324 3.035-1.886 1.964-1.069 4.328-.397 6.521-.056.472.116.967.09 1.424-.073.35-.19.647-.465.865-.8a9.128 9.128 0 0 0 1.355-2.62c-.22.402-.466.79-.74 1.157z"/>
        </g>
        <path fill="#FF2615" fill-rule="nonzero" d="M306.59 193.006s1.854 2.568-.854 6.442-4.946 7.15-4.043 9.558c0 0 4.09-7.196 7.416-7.278 3.327-.083 1.142-4.394-2.52-8.722z"/>
        <path fill="#000" fill-rule="nonzero" d="M306.542 193.006c.165.248.294.52.383.807 3.285 4.033 5.034 7.795 1.878 7.89-2.94.09-6.466 5.584-7.313 6.973.028.109.063.211.101.33 0 0 4.136-7.19 7.5-7.272 3.364-.083 1.154-4.404-2.549-8.728z" opacity=".1"/>
        <path fill="#FFD037" fill-rule="nonzero" d="M310.75 197.035c0 1.031-.19 1.866-.424 1.866-.233 0-.418-.835-.418-1.866 0-1.03.234-.547.467-.547.234 0 .375-.484.375.547z"/>
        <path fill="#FFD037" fill-rule="nonzero" d="M310.993 198.078c-.988.583-1.848.937-1.922.79-.074-.149.667-.745 1.646-1.346.98-.6.601-.157.675 0 .074.157.589-.031-.399.556z"/>
        <path fill="#FF2615" fill-rule="nonzero" d="M296.391 193.006s-1.853 2.568.857 6.442 4.941 7.143 4.038 9.558c0 0-4.088-7.196-7.414-7.278-3.326-.083-1.15-4.394 2.52-8.722z"/>
        <path fill="#000" fill-rule="nonzero" d="M296.438 193.006a3.17 3.17 0 0 0-.382.807c-3.284 4.033-5.033 7.795-1.878 7.89 2.94.09 6.468 5.584 7.312 6.973-.029.109-.063.211-.101.33 0 0-4.135-7.19-7.498-7.272-3.364-.083-1.164-4.404 2.547-8.728z" opacity=".1"/>
        <path fill="#FFD037" fill-rule="nonzero" d="M292.23 197.035c0 1.031.185 1.866.42 1.866.236 0 .421-.835.421-1.866 0-1.03-.235-.547-.47-.547s-.371-.484-.371.547z"/>
        <path fill="#FFD037" fill-rule="nonzero" d="M291.145 198.078c.987.583 1.847.937 1.921.79.074-.149-.666-.745-1.646-1.346-.98-.6-.596-.157-.675 0-.078.157-.584-.031.4.556z"/>
        <path fill="#444053" fill-rule="nonzero" d="M312.429 206.033l-.096.825-.138 1.165-.056.484-.139 1.17-.059.483-.135 1.166-1.566 13.259c-.138 1.182-2.01 2.106-4.265 2.106h-8.129c-2.254 0-4.123-.924-4.262-2.106l-1.566-13.259-.138-1.166-.056-.483-.142-1.17-.056-.484-.135-1.165-.099-.825c-.079-.682.933-1.237 2.209-1.237h16.62c1.275 0 2.29.566 2.208 1.237z"/>
        <path fill="#9D9CB5" fill-rule="nonzero" d="M312.434 206.48l-.14 1.684h-20.77l-.136-1.684zM312.434 209.006l-.143 1.685h-20.76l-.143-1.685z"/>
        <path fill="#9D9CB5" fill-rule="nonzero" d="M312.434 209.848l-.142 1.685h-20.759l-.145-1.685z"/>
    </g>
</svg>
