<svg xmlns="http://www.w3.org/2000/svg" width="320" height="43" viewBox="0 0 320 43">
    <g fill="none" fill-rule="evenodd">
        <g fill-rule="nonzero">
            <path fill="#FF2615" d="M25.017 25.937S6.647 16.749 1.221 14.101c-.615-.299-1.222-.047-1.22.629L0 38.724c0 .74.719 1 1.331.691L25.016 27.48c.716-.383.705-1.19.001-1.543"/>
            <path fill="#EEEEEF" d="M123.048 25.023l-4.361-.873c-1.83-.406-3.933-1.114-3.933-2.998 0-1.709 1.892-2.949 4.498-2.949 2.287 0 4.28 1.104 5.076 2.813a.595.595 0 0 0 .543.335h6.5c.141 0 .273-.06.36-.167a.414.414 0 0 0 .087-.369c-1.222-4.912-6.179-8.342-12.052-8.342-5.792 0-11.783 3.325-11.783 8.89 0 4.233 3.419 7.303 9.628 8.644.591.127 1.297.257 2.043.394.48.087.977.178 1.473.274 3.069.595 4.378 1.46 4.378 2.893 0 1.552-1.695 3.119-5.482 3.119-3.25 0-5.233-1.225-6.062-3.744a.59.59 0 0 0-.555-.391l-6.104-.102h-.007a.595.595 0 0 0-.465.213.53.53 0 0 0-.106.485l.211.77c1.45 5.324 6.5 8.632 13.181 8.632 3.263 0 6.316-.93 8.596-2.62 2.283-1.691 3.541-3.951 3.541-6.362 0-4.52-3.097-7.395-9.205-8.545M71.637 10.969H65.48a.5.5 0 0 0-.46.308l-7.594 17.841L49.3 11.265a.5.5 0 0 0-.454-.296h-6.264a.498.498 0 0 0-.423.238.515.515 0 0 0-.03.492l13.417 29.054c.083.178.26.294.454.294h2.777a.502.502 0 0 0 .455-.302l12.861-29.054a.516.516 0 0 0-.035-.488.496.496 0 0 0-.42-.234M96.949 27.48c0 2.37-.868 4.58-2.44 6.227-1.563 1.634-3.647 2.533-5.87 2.533-4.659 0-8.309-3.847-8.309-8.76 0-4.795 3.727-8.698 8.31-8.698 4.58 0 8.309 3.903 8.309 8.699m-8.25-15.008c-4.077 0-7.877 1.558-10.701 4.388-2.81 2.816-4.357 6.588-4.357 10.62 0 8.45 6.614 15.07 15.059 15.07 4.042 0 7.687-1.502 10.541-4.34a15.233 15.233 0 0 0 4.458-10.73c0-3.972-1.542-7.639-4.458-10.606-2.855-2.839-6.598-4.402-10.541-4.402M150.44 34.47c-2.633 0-4.775-2.13-4.775-4.748v-12.72h8.543a.572.572 0 0 0 .573-.57v-4.917a.572.572 0 0 0-.573-.57h-8.543V3.93a.482.482 0 0 0-.483-.48h-.705c-.006 0-.66.03-.777.159l-9.798 11.1a.573.573 0 0 0-.146.377v1.469c0 .246.202.446.449.446h4.53V30.43c0 5.854 4.79 10.617 10.678 10.617h4.803c.156 0 .3-.058.41-.167a.57.57 0 0 0 .17-.41v-5.506a.495.495 0 0 0-.496-.493h-3.86zM181.11 27.48c0 2.37-.867 4.58-2.44 6.227-1.562 1.634-3.648 2.533-5.869 2.533-4.659 0-8.309-3.847-8.309-8.76 0-4.795 3.727-8.698 8.31-8.698 4.58 0 8.308 3.903 8.308 8.699m-8.248-15.008c-4.077 0-7.879 1.558-10.702 4.388-2.81 2.816-4.358 6.588-4.358 10.62 0 8.45 6.615 15.07 15.06 15.07 4.041 0 7.686-1.502 10.541-4.34a15.235 15.235 0 0 0 4.457-10.73c0-3.972-1.541-7.639-4.457-10.606-2.855-2.839-6.599-4.402-10.541-4.402M208.208 25.437l11.67-12.364a.483.483 0 0 0 .093-.54.509.509 0 0 0-.47-.298h-6.906a.525.525 0 0 0-.379.161l-11.606 12.27V.942c0-.276-.23-.5-.514-.5h-5.71a.508.508 0 0 0-.514.5v39.606c0 .275.23.499.514.499h5.71a.507.507 0 0 0 .514-.5V26.83l13.255 14.055a.52.52 0 0 0 .379.162h7.668a.507.507 0 0 0 .47-.3.482.482 0 0 0-.094-.539l-14.08-14.771z"/>
        </g>
        <path fill="#FF2615" d="M243.873 39.393c3.714 0 6.624-2.45 6.624-7.583v-.306c0-5.133-2.45-7.546-6.356-7.546-3.982 0-6.356 2.796-6.356 7.66v.307c0 5.056 2.718 7.468 6.088 7.468zm-.345 2.643c-5.245 0-9.036-3.715-9.036-9.958v-.306c0-6.128 3.829-10.456 9.343-10.456 3.33 0 5.398 1.608 6.547 3.562V12.085h3.178v29.606h-3.178v-3.447c-1.149 1.954-3.944 3.792-6.854 3.792zm24.774 0c-5.705 0-9.802-4.328-9.802-10.188v-.306c0-6.013 4.173-10.226 9.84-10.226s9.84 4.174 9.84 10.188v.306c0 6.051-4.173 10.226-9.878 10.226zm.038-2.643c4.02 0 6.548-3.025 6.548-7.545v-.268c0-4.634-2.566-7.622-6.548-7.622-4.02 0-6.547 2.988-6.547 7.584v.306c0 4.558 2.488 7.545 6.547 7.545zm23.089 2.643c-5.59 0-9.802-3.945-9.802-10.15v-.306c0-6.128 4.365-10.264 9.725-10.264 4.174 0 8.08 1.915 8.692 7.009h-3.14c-.497-3.18-2.795-4.367-5.552-4.367-3.637 0-6.432 2.911-6.432 7.622v.307c0 4.902 2.68 7.506 6.547 7.506 2.834 0 5.4-1.646 5.744-4.902h2.948c-.421 4.328-3.906 7.545-8.73 7.545zm21.22 0c-4.787 0-7.659-2.413-7.85-6.51h3.101c.23 2.374 1.494 3.867 4.71 3.867 3.025 0 4.365-1.034 4.365-3.179 0-2.106-1.57-2.795-4.671-3.37-5.208-.957-6.969-2.413-6.969-5.898 0-3.715 3.638-5.63 6.777-5.63 3.6 0 6.701 1.455 7.237 5.783h-3.063c-.46-2.183-1.685-3.14-4.212-3.14-2.297 0-3.79 1.148-3.79 2.872 0 1.8.995 2.528 4.67 3.179 4.136.766 7.046 1.685 7.046 5.936 0 3.639-2.489 6.09-7.352 6.09z"/>
    </g>
</svg>
